  0
SECTION
  2
HEADER
  9
$ACADVER
  1
AC1015
  9
$ACADMAINTVER
 70
     6
  9
$DWGCODEPAGE
  3
ANSI_1252
  9
$INSBASE
 10
0.0
 20
0.0
 30
0.0
  9
$EXTMIN
 10
-9.525
 20
-3.175
 30
0.0
  9
$EXTMAX
 10
336.825
 20
90.0
 30
0.0
  9
$LIMMIN
 10
0.0
 20
0.0
  9
$LIMMAX
 10
420.0
 20
297.0
  9
$ORTHOMODE
 70
     0
  9
$REGENMODE
 70
     1
  9
$FILLMODE
 70
     1
  9
$QTEXTMODE
 70
     0
  9
$MIRRTEXT
 70
     1
  9
$LTSCALE
 40
1.0
  9
$ATTMODE
 70
     1
  9
$TEXTSIZE
 40
3.175
  9
$TRACEWID
 40
1.0
  9
$TEXTSTYLE
  7
Standard
  9
$CLAYER
  8
0
  9
$CELTYPE
  6
ByLayer
  9
$CECOLOR
 62
   256
  9
$CELTSCALE
 40
1.0
  9
$DISPSILH
 70
     0
  9
$DIMSCALE
 40
1.0
  9
$DIMASZ
 40
3.302
  9
$DIMEXO
 40
0.0
  9
$DIMDLI
 40
3.75
  9
$DIMRND
 40
0.0
  9
$DIMDLE
 40
0.0
  9
$DIMEXE
 40
3.175
  9
$DIMTP
 40
0.0
  9
$DIMTM
 40
0.0
  9
$DIMTXT
 40
3.175
  9
$DIMCEN
 40
2.5
  9
$DIMTSZ
 40
0.0
  9
$DIMTOL
 70
     0
  9
$DIMLIM
 70
     0
  9
$DIMTIH
 70
     1
  9
$DIMTOH
 70
     1
  9
$DIMSE1
 70
     0
  9
$DIMSE2
 70
     0
  9
$DIMTAD
 70
     0
  9
$DIMZIN
 70
     1
  9
$DIMBLK
  1

  9
$DIMASO
 70
     1
  9
$DIMSHO
 70
     1
  9
$DIMPOST
  1

  9
$DIMAPOST
  1

  9
$DIMALT
 70
     0
  9
$DIMALTD
 70
     3
  9
$DIMALTF
 40
0.0393700787
  9
$DIMLFAC
 40
1.0
  9
$DIMTOFL
 70
     1
  9
$DIMTVP
 40
0.0
  9
$DIMTIX
 70
     0
  9
$DIMSOXD
 70
     0
  9
$DIMSAH
 70
     0
  9
$DIMBLK1
  1

  9
$DIMBLK2
  1

  9
$DIMSTYLE
  2
ISO-25
  9
$DIMCLRD
 70
     0
  9
$DIMCLRE
 70
     0
  9
$DIMCLRT
 70
     0
  9
$DIMTFAC
 40
1.0
  9
$DIMGAP
 40
1.524
  9
$DIMJUST
 70
     0
  9
$DIMSD1
 70
     0
  9
$DIMSD2
 70
     0
  9
$DIMTOLJ
 70
     0
  9
$DIMTZIN
 70
     1
  9
$DIMALTZ
 70
     0
  9
$DIMALTTZ
 70
     0
  9
$DIMUPT
 70
     0
  9
$DIMDEC
 70
     2
  9
$DIMTDEC
 70
     2
  9
$DIMALTU
 70
     2
  9
$DIMALTTD
 70
     3
  9
$DIMTXSTY
  7
Standard
  9
$DIMAUNIT
 70
     0
  9
$DIMADEC
 70
     2
  9
$DIMALTRND
 40
0.0
  9
$DIMAZIN
 70
     0
  9
$DIMDSEP
 70
    44
  9
$DIMATFIT
 70
     3
  9
$DIMFRAC
 70
     0
  9
$DIMLDRBLK
  1

  9
$DIMLUNIT
 70
     2
  9
$DIMLWD
 70
    -2
  9
$DIMLWE
 70
    -2
  9
$DIMTMOVE
 70
     0
  9
$LUNITS
 70
     2
  9
$LUPREC
 70
     2
  9
$SKETCHINC
 40
1.0
  9
$FILLETRAD
 40
0.0
  9
$AUNITS
 70
     0
  9
$AUPREC
 70
     2
  9
$MENU
  1
.
  9
$ELEVATION
 40
0.0
  9
$PELEVATION
 40
0.0
  9
$THICKNESS
 40
0.0
  9
$LIMCHECK
 70
     0
  9
$CHAMFERA
 40
0.0
  9
$CHAMFERB
 40
0.0
  9
$CHAMFERC
 40
0.0
  9
$CHAMFERD
 40
0.0
  9
$SKPOLY
 70
     0
  9
$TDCREATE
 40
2460020.58308331
  9
$TDUCREATE
 40
2460020.749749977
  9
$TDUPDATE
 40
2460020.583234398
  9
$TDUUPDATE
 40
2460020.749901065
  9
$TDINDWG
 40
0.0000000116
  9
$TDUSRTIMER
 40
0.0000000116
  9
$USRTIMER
 70
     1
  9
$ANGBASE
 50
0.0
  9
$ANGDIR
 70
     0
  9
$PDMODE
 70
     0
  9
$PDSIZE
 40
-1.0
  9
$PLINEWID
 40
0.0
  9
$SPLFRAME
 70
     0
  9
$SPLINETYPE
 70
     6
  9
$SPLINESEGS
 70
     8
  9
$HANDSEED
  5
67F
  9
$SURFTAB1
 70
     6
  9
$SURFTAB2
 70
     6
  9
$SURFTYPE
 70
     6
  9
$SURFU
 70
     6
  9
$SURFV
 70
     6
  9
$UCSBASE
  2

  9
$UCSNAME
  2

  9
$UCSORG
 10
0.0
 20
0.0
 30
0.0
  9
$UCSXDIR
 10
1.0
 20
0.0
 30
0.0
  9
$UCSYDIR
 10
0.0
 20
1.0
 30
0.0
  9
$UCSORTHOREF
  2

  9
$UCSORTHOVIEW
 70
     0
  9
$UCSORGTOP
 10
0.0
 20
0.0
 30
0.0
  9
$UCSORGBOTTOM
 10
0.0
 20
0.0
 30
0.0
  9
$UCSORGLEFT
 10
0.0
 20
0.0
 30
0.0
  9
$UCSORGRIGHT
 10
0.0
 20
0.0
 30
0.0
  9
$UCSORGFRONT
 10
0.0
 20
0.0
 30
0.0
  9
$UCSORGBACK
 10
0.0
 20
0.0
 30
0.0
  9
$PUCSBASE
  2

  9
$PUCSNAME
  2

  9
$PUCSORG
 10
0.0
 20
0.0
 30
0.0
  9
$PUCSXDIR
 10
1.0
 20
0.0
 30
0.0
  9
$PUCSYDIR
 10
0.0
 20
1.0
 30
0.0
  9
$PUCSORTHOREF
  2

  9
$PUCSORTHOVIEW
 70
     0
  9
$PUCSORGTOP
 10
0.0
 20
0.0
 30
0.0
  9
$PUCSORGBOTTOM
 10
0.0
 20
0.0
 30
0.0
  9
$PUCSORGLEFT
 10
0.0
 20
0.0
 30
0.0
  9
$PUCSORGRIGHT
 10
0.0
 20
0.0
 30
0.0
  9
$PUCSORGFRONT
 10
0.0
 20
0.0
 30
0.0
  9
$PUCSORGBACK
 10
0.0
 20
0.0
 30
0.0
  9
$USERI1
 70
     0
  9
$USERI2
 70
     0
  9
$USERI3
 70
     0
  9
$USERI4
 70
     0
  9
$USERI5
 70
     0
  9
$USERR1
 40
0.0
  9
$USERR2
 40
0.0
  9
$USERR3
 40
0.0
  9
$USERR4
 40
0.0
  9
$USERR5
 40
0.0
  9
$WORLDVIEW
 70
     1
  9
$SHADEDGE
 70
     3
  9
$SHADEDIF
 70
    70
  9
$TILEMODE
 70
     1
  9
$MAXACTVP
 70
    64
  9
$PINSBASE
 10
0.0
 20
0.0
 30
0.0
  9
$PLIMCHECK
 70
     0
  9
$PEXTMIN
 10
3.175
 20
-3.175
 30
0.0
  9
$PEXTMAX
 10
343.175
 20
90.0
 30
0.0
  9
$PLIMMIN
 10
-23.2841439689
 20
-13.0971789883
  9
$PLIMMAX
 10
369.6341439689
 20
264.7238326848
  9
$UNITMODE
 70
     0
  9
$VISRETAIN
 70
     1
  9
$PLINEGEN
 70
     0
  9
$PSLTSCALE
 70
     1
  9
$TREEDEPTH
 70
  3020
  9
$CMLSTYLE
  2
Standard
  9
$CMLJUST
 70
     0
  9
$CMLSCALE
 40
20.0
  9
$PROXYGRAPHICS
 70
     1
  9
$MEASUREMENT
 70
     1
  9
$CELWEIGHT
370
    -1
  9
$ENDCAPS
280
     0
  9
$JOINSTYLE
280
     0
  9
$LWDISPLAY
290
     1
  9
$INSUNITS
 70
     4
  9
$HYPERLINKBASE
  1

  9
$STYLESHEET
  1

  9
$XEDIT
290
     1
  9
$CEPSNTYPE
380
     0
  9
$PSTYLEMODE
290
     1
  9
$FINGERPRINTGUID
  2
{5ada393e-9921-4979-8dfb-208b2ec2096b}
  9
$VERSIONGUID
  2
{FAEB1C32-E019-11D5-929B-00C0DF256EC4}
  9
$EXTNAMES
290
     1
  9
$PSVPSCALE
 40
0.0
  9
$OLESTARTUP
290
     0
  0
ENDSEC
  0
SECTION
  2
CLASSES
  0
CLASS
  1
ACDBDICTIONARYWDFLT
  2
AcDbDictionaryWithDefault
  3
ObjectDBX Classes
 90
        0
280
     0
281
     0
  0
CLASS
  1
VISUALSTYLE
  2
AcDbVisualStyle
  3
ObjectDBX Classes
 90
     4095
280
     0
281
     0
  0
CLASS
  1
MATERIAL
  2
AcDbMaterial
  3
ObjectDBX Classes
 90
     1153
280
     0
281
     0
  0
CLASS
  1
SCALE
  2
AcDbScale
  3
ObjectDBX Classes
 90
     1153
280
     0
281
     0
  0
CLASS
  1
TABLESTYLE
  2
AcDbTableStyle
  3
ObjectDBX Classes
 90
     4095
280
     0
281
     0
  0
CLASS
  1
MLEADERSTYLE
  2
AcDbMLeaderStyle
  3
ACDB_MLEADERSTYLE_CLASS
 90
     4095
280
     0
281
     0
  0
CLASS
  1
SUN
  2
AcDbSun
  3
SCENEOE
 90
     1153
280
     0
281
     0
  0
CLASS
  1
ACDBPLACEHOLDER
  2
AcDbPlaceHolder
  3
ObjectDBX Classes
 90
        0
280
     0
281
     0
  0
CLASS
  1
LAYOUT
  2
AcDbLayout
  3
ObjectDBX Classes
 90
        0
280
     0
281
     0
  0
ENDSEC
  0
SECTION
  2
TABLES
  0
TABLE
  2
VPORT
  5
8
330
0
100
AcDbSymbolTable
 70
     1
  0
VPORT
  5
29
330
8
100
AcDbSymbolTableRecord
100
AcDbViewportTableRecord
  2
*Active
 70
     0
 10
0.0
 20
0.0
 11
1.0
 21
1.0
 12
163.65
 22
43.4125
 13
0.0
 23
0.0
 14
10.0
 24
10.0
 15
10.0
 25
10.0
 16
0.0
 26
0.0
 36
1.0
 17
0.0
 27
0.0
 37
0.0
 40
95.0385
 41
3.7171988194
 42
50.0
 43
0.0
 44
0.0
 50
0.0
 51
0.0
 71
     0
 72
   100
 73
     1
 74
     3
 75
     0
 76
     0
 77
     0
 78
     0
281
     0
 65
     1
110
0.0
120
0.0
130
0.0
111
1.0
121
0.0
131
0.0
112
0.0
122
1.0
132
0.0
 79
     0
146
0.0
  0
ENDTAB
  0
TABLE
  2
LTYPE
  5
5
330
0
100
AcDbSymbolTable
 70
     6
  0
LTYPE
  5
14
330
5
100
AcDbSymbolTableRecord
100
AcDbLinetypeTableRecord
  2
ByBlock
 70
     0
  3

 72
    65
 73
     0
 40
0.0
  0
LTYPE
  5
15
330
5
100
AcDbSymbolTableRecord
100
AcDbLinetypeTableRecord
  2
ByLayer
 70
     0
  3

 72
    65
 73
     0
 40
0.0
  0
LTYPE
  5
16
330
5
100
AcDbSymbolTableRecord
100
AcDbLinetypeTableRecord
  2
Continuous
 70
     0
  3
Solid line
 72
    65
 73
     0
 40
0.0
  0
LTYPE
  5
5E
330
5
100
AcDbSymbolTableRecord
100
AcDbLinetypeTableRecord
  2
HIDDEN
 70
     0
  3
Hidden __ __ __ __ __ __ __ __ __ __ __ __ __ __
 72
    65
 73
     2
 40
1.905
 49
1.27
 74
     0
 49
-0.635
 74
     0
  0
LTYPE
  5
5F
330
5
100
AcDbSymbolTableRecord
100
AcDbLinetypeTableRecord
  2
PHANTOM
 70
     0
  3
Phantom ______  __  __  ______  __  __  ______
 72
    65
 73
     6
 40
12.7
 49
6.35
 74
     0
 49
-1.27
 74
     0
 49
1.27
 74
     0
 49
-1.27
 74
     0
 49
1.27
 74
     0
 49
-1.27
 74
     0
  0
LTYPE
  5
60
330
5
100
AcDbSymbolTableRecord
100
AcDbLinetypeTableRecord
  2
CENTER
 70
     0
  3
Center ____ _ ____ _ ____ _ ____ _ ____ _ ____
 72
    65
 73
     4
 40
10.16
 49
6.35
 74
     0
 49
-1.27
 74
     0
 49
1.27
 74
     0
 49
-1.27
 74
     0
  0
LTYPE
  5
61
330
5
100
AcDbSymbolTableRecord
100
AcDbLinetypeTableRecord
  2
CENTERX2
 70
     0
  3
Center (2x) ________  __  ________  __  _____
 72
    65
 73
     4
 40
20.32
 49
12.7
 74
     0
 49
-2.54
 74
     0
 49
2.54
 74
     0
 49
-2.54
 74
     0
  0
LTYPE
  5
62
330
5
100
AcDbSymbolTableRecord
100
AcDbLinetypeTableRecord
  2
DOT2
 70
     0
  3
Dot (.5x) ........................................
 72
    65
 73
     2
 40
0.635
 49
0.0
 74
     0
 49
-0.635
 74
     0
  0
ENDTAB
  0
TABLE
  2
LAYER
  5
2
330
0
100
AcDbSymbolTable
 70
     1
  0
LAYER
  5
10
330
2
100
AcDbSymbolTableRecord
100
AcDbLayerTableRecord
  2
0
 70
     0
 62
     7
  6
Continuous
370
    -3
390
F
  0
ENDTAB
  0
TABLE
  2
STYLE
  5
3
330
0
100
AcDbSymbolTable
 70
     2
  0
STYLE
  5
11
330
3
100
AcDbSymbolTableRecord
100
AcDbTextStyleTableRecord
  2
Standard
 70
     0
 40
0.0
 41
1.0
 50
0.0
 71
     0
 42
3.175
  3
txt
  4

  0
STYLE
  5
673
330
3
100
AcDbSymbolTableRecord
100
AcDbTextStyleTableRecord
  2
SLDTEXTSTYLE0
 70
     0
 40
0.0
 41
0.7
 50
0.0
 71
     0
 42
3.175
  3
TXT
  4

  0
ENDTAB
  0
TABLE
  2
VIEW
  5
6
330
0
100
AcDbSymbolTable
 70
     0
  0
ENDTAB
  0
TABLE
  2
UCS
  5
7
330
0
100
AcDbSymbolTable
 70
     0
  0
ENDTAB
  0
TABLE
  2
APPID
  5
9
330
0
100
AcDbSymbolTable
 70
     1
  0
APPID
  5
12
330
9
100
AcDbSymbolTableRecord
100
AcDbRegAppTableRecord
  2
ACAD
 70
     0
  0
ENDTAB
  0
TABLE
  2
DIMSTYLE
  5
A
330
0
100
AcDbSymbolTable
 70
     1
100
AcDbDimStyleTable
  0
DIMSTYLE
105
27
330
A
100
AcDbSymbolTableRecord
100
AcDbDimStyleTableRecord
  2
ISO-25
 70
     0
 41
2.5
 42
0.625
 43
3.75
 44
1.25
 73
     0
 74
     0
 77
     1
 78
     8
140
2.5
141
2.5
143
0.0393700787
147
0.625
171
     3
172
     1
178
     0
271
     2
272
     2
274
     3
278
    44
283
     0
284
     8
340
11
  0
ENDTAB
  0
TABLE
  2
BLOCK_RECORD
  5
1
330
0
100
AcDbSymbolTable
 70
     3
  0
BLOCK_RECORD
  5
1F
330
1
100
AcDbSymbolTableRecord
100
AcDbBlockTableRecord
  2
*Model_Space
340
22
  0
BLOCK_RECORD
  5
1B
330
1
100
AcDbSymbolTableRecord
100
AcDbBlockTableRecord
  2
*Paper_Space
340
1E
  0
BLOCK_RECORD
  5
23
330
1
100
AcDbSymbolTableRecord
100
AcDbBlockTableRecord
  2
*Paper_Space0
340
26
  0
BLOCK_RECORD
  5
47B
330
1
100
AcDbSymbolTableRecord
100
AcDbBlockTableRecord
  2
*Paper_Space1
340
47C
  0
BLOCK_RECORD
  5
577
330
1
100
AcDbSymbolTableRecord
100
AcDbBlockTableRecord
  2
*Paper_Space2
340
578
  0
ENDTAB
  0
ENDSEC
  0
SECTION
  2
BLOCKS
  0
BLOCK
  5
20
330
1F
100
AcDbEntity
  8
0
100
AcDbBlockBegin
  2
*Model_Space
 70
     0
 10
0.0
 20
0.0
 30
0.0
  3
*Model_Space
  1

  0
ENDBLK
  5
21
330
1F
100
AcDbEntity
  8
0
100
AcDbBlockEnd
  0
BLOCK
  5
1C
330
1B
100
AcDbEntity
 67
     1
  8
0
100
AcDbBlockBegin
  2
*Paper_Space
 70
     0
 10
0.0
 20
0.0
 30
0.0
  3
*Paper_Space
  1

  0
ENDBLK
  5
1D
330
1B
100
AcDbEntity
 67
     1
  8
0
100
AcDbBlockEnd
  0
BLOCK
  5
24
330
23
100
AcDbEntity
  8
0
100
AcDbBlockBegin
  2
*Paper_Space0
 70
     0
 10
0.0
 20
0.0
 30
0.0
  3
*Paper_Space0
  1

  0
LINE
  5
357
330
23
100
AcDbEntity
  8
0
  6
Continuous
 62
     7
370
    25
100
AcDbLine
 10
16.885
 20
336.825
 30
0.0
 11
28.115
 21
336.825
 31
0.0
  0
LINE
  5
358
330
23
100
AcDbEntity
  8
0
  6
Continuous
 62
     7
370
    25
100
AcDbLine
 10
28.115
 20
333.55
 30
0.0
 11
28.115
 21
336.825
 31
0.0
  0
LINE
  5
359
330
23
100
AcDbEntity
  8
0
  6
Continuous
 62
     7
370
    25
100
AcDbLine
 10
35.935
 20
333.55
 30
0.0
 11
28.115
 21
333.55
 31
0.0
  0
LINE
  5
35A
330
23
100
AcDbEntity
  8
0
  6
Continuous
 62
     7
370
    25
100
AcDbLine
 10
35.935
 20
336.825
 30
0.0
 11
35.935
 21
333.55
 31
0.0
  0
LINE
  5
35B
330
23
100
AcDbEntity
  8
0
  6
Continuous
 62
     7
370
    25
100
AcDbLine
 10
35.935
 20
336.825
 30
0.0
 11
47.165
 21
336.825
 31
0.0
  0
LINE
  5
35C
330
23
100
AcDbEntity
  8
0
  6
Continuous
 62
     7
370
    25
100
AcDbLine
 10
47.165
 20
333.55
 30
0.0
 11
47.165
 21
336.825
 31
0.0
  0
LINE
  5
35D
330
23
100
AcDbEntity
  8
0
  6
Continuous
 62
     7
370
    25
100
AcDbLine
 10
54.985
 20
333.55
 30
0.0
 11
47.165
 21
333.55
 31
0.0
  0
LINE
  5
35E
330
23
100
AcDbEntity
  8
0
  6
Continuous
 62
     7
370
    25
100
AcDbLine
 10
54.985
 20
336.825
 30
0.0
 11
54.985
 21
333.55
 31
0.0
  0
LINE
  5
35F
330
23
100
AcDbEntity
  8
0
  6
Continuous
 62
     7
370
    25
100
AcDbLine
 10
54.985
 20
336.825
 30
0.0
 11
66.215
 21
336.825
 31
0.0
  0
LINE
  5
360
330
23
100
AcDbEntity
  8
0
  6
Continuous
 62
     7
370
    25
100
AcDbLine
 10
66.215
 20
333.55
 30
0.0
 11
66.215
 21
336.825
 31
0.0
  0
LINE
  5
361
330
23
100
AcDbEntity
  8
0
  6
Continuous
 62
     7
370
    25
100
AcDbLine
 10
74.035
 20
333.55
 30
0.0
 11
66.215
 21
333.55
 31
0.0
  0
LINE
  5
362
330
23
100
AcDbEntity
  8
0
  6
Continuous
 62
     7
370
    25
100
AcDbLine
 10
74.035
 20
336.825
 30
0.0
 11
74.035
 21
333.55
 31
0.0
  0
LINE
  5
363
330
23
100
AcDbEntity
  8
0
  6
Continuous
 62
     7
370
    25
100
AcDbLine
 10
74.035
 20
336.825
 30
0.0
 11
85.265
 21
336.825
 31
0.0
  0
LINE
  5
364
330
23
100
AcDbEntity
  8
0
  6
Continuous
 62
     7
370
    25
100
AcDbLine
 10
85.265
 20
333.55
 30
0.0
 11
85.265
 21
336.825
 31
0.0
  0
LINE
  5
365
330
23
100
AcDbEntity
  8
0
  6
Continuous
 62
     7
370
    25
100
AcDbLine
 10
93.085
 20
333.55
 30
0.0
 11
85.265
 21
333.55
 31
0.0
  0
LINE
  5
366
330
23
100
AcDbEntity
  8
0
  6
Continuous
 62
     7
370
    25
100
AcDbLine
 10
93.085
 20
336.825
 30
0.0
 11
93.085
 21
333.55
 31
0.0
  0
LINE
  5
367
330
23
100
AcDbEntity
  8
0
  6
Continuous
 62
     7
370
    25
100
AcDbLine
 10
93.085
 20
336.825
 30
0.0
 11
104.315
 21
336.825
 31
0.0
  0
LINE
  5
368
330
23
100
AcDbEntity
  8
0
  6
Continuous
 62
     7
370
    25
100
AcDbLine
 10
104.315
 20
333.55
 30
0.0
 11
104.315
 21
336.825
 31
0.0
  0
LINE
  5
369
330
23
100
AcDbEntity
  8
0
  6
Continuous
 62
     7
370
    25
100
AcDbLine
 10
112.135
 20
333.55
 30
0.0
 11
104.315
 21
333.55
 31
0.0
  0
LINE
  5
36A
330
23
100
AcDbEntity
  8
0
  6
Continuous
 62
     7
370
    25
100
AcDbLine
 10
112.135
 20
336.825
 30
0.0
 11
112.135
 21
333.55
 31
0.0
  0
LINE
  5
36B
330
23
100
AcDbEntity
  8
0
  6
Continuous
 62
     7
370
    25
100
AcDbLine
 10
112.135
 20
336.825
 30
0.0
 11
123.365
 21
336.825
 31
0.0
  0
LINE
  5
36C
330
23
100
AcDbEntity
  8
0
  6
Continuous
 62
     7
370
    25
100
AcDbLine
 10
123.365
 20
333.55
 30
0.0
 11
123.365
 21
336.825
 31
0.0
  0
LINE
  5
36D
330
23
100
AcDbEntity
  8
0
  6
Continuous
 62
     7
370
    25
100
AcDbLine
 10
131.185
 20
333.55
 30
0.0
 11
123.365
 21
333.55
 31
0.0
  0
LINE
  5
36E
330
23
100
AcDbEntity
  8
0
  6
Continuous
 62
     7
370
    25
100
AcDbLine
 10
131.185
 20
336.825
 30
0.0
 11
131.185
 21
333.55
 31
0.0
  0
LINE
  5
36F
330
23
100
AcDbEntity
  8
0
  6
Continuous
 62
     7
370
    25
100
AcDbLine
 10
131.185
 20
336.825
 30
0.0
 11
142.415
 21
336.825
 31
0.0
  0
LINE
  5
370
330
23
100
AcDbEntity
  8
0
  6
Continuous
 62
     7
370
    25
100
AcDbLine
 10
142.415
 20
333.55
 30
0.0
 11
142.415
 21
336.825
 31
0.0
  0
LINE
  5
371
330
23
100
AcDbEntity
  8
0
  6
Continuous
 62
     7
370
    25
100
AcDbLine
 10
150.235
 20
333.55
 30
0.0
 11
142.415
 21
333.55
 31
0.0
  0
LINE
  5
372
330
23
100
AcDbEntity
  8
0
  6
Continuous
 62
     7
370
    25
100
AcDbLine
 10
150.235
 20
336.825
 30
0.0
 11
150.235
 21
333.55
 31
0.0
  0
LINE
  5
373
330
23
100
AcDbEntity
  8
0
  6
Continuous
 62
     7
370
    25
100
AcDbLine
 10
150.235
 20
336.825
 30
0.0
 11
161.465
 21
336.825
 31
0.0
  0
LINE
  5
374
330
23
100
AcDbEntity
  8
0
  6
Continuous
 62
     7
370
    25
100
AcDbLine
 10
161.465
 20
333.55
 30
0.0
 11
161.465
 21
336.825
 31
0.0
  0
LINE
  5
375
330
23
100
AcDbEntity
  8
0
  6
Continuous
 62
     7
370
    25
100
AcDbLine
 10
169.285
 20
333.55
 30
0.0
 11
161.465
 21
333.55
 31
0.0
  0
LINE
  5
376
330
23
100
AcDbEntity
  8
0
  6
Continuous
 62
     7
370
    25
100
AcDbLine
 10
169.285
 20
336.825
 30
0.0
 11
169.285
 21
333.55
 31
0.0
  0
LINE
  5
377
330
23
100
AcDbEntity
  8
0
  6
Continuous
 62
     7
370
    25
100
AcDbLine
 10
169.285
 20
336.825
 30
0.0
 11
180.515
 21
336.825
 31
0.0
  0
LINE
  5
378
330
23
100
AcDbEntity
  8
0
  6
Continuous
 62
     7
370
    25
100
AcDbLine
 10
180.515
 20
333.55
 30
0.0
 11
180.515
 21
336.825
 31
0.0
  0
LINE
  5
379
330
23
100
AcDbEntity
  8
0
  6
Continuous
 62
     7
370
    25
100
AcDbLine
 10
188.335
 20
333.55
 30
0.0
 11
180.515
 21
333.55
 31
0.0
  0
LINE
  5
37A
330
23
100
AcDbEntity
  8
0
  6
Continuous
 62
     7
370
    25
100
AcDbLine
 10
188.335
 20
336.825
 30
0.0
 11
188.335
 21
333.55
 31
0.0
  0
LINE
  5
37B
330
23
100
AcDbEntity
  8
0
  6
Continuous
 62
     7
370
    25
100
AcDbLine
 10
188.335
 20
336.825
 30
0.0
 11
199.565
 21
336.825
 31
0.0
  0
LINE
  5
37C
330
23
100
AcDbEntity
  8
0
  6
Continuous
 62
     7
370
    25
100
AcDbLine
 10
199.565
 20
333.55
 30
0.0
 11
199.565
 21
336.825
 31
0.0
  0
LINE
  5
37D
330
23
100
AcDbEntity
  8
0
  6
Continuous
 62
     7
370
    25
100
AcDbLine
 10
207.385
 20
333.55
 30
0.0
 11
199.565
 21
333.55
 31
0.0
  0
LINE
  5
37E
330
23
100
AcDbEntity
  8
0
  6
Continuous
 62
     7
370
    25
100
AcDbLine
 10
207.385
 20
336.825
 30
0.0
 11
207.385
 21
333.55
 31
0.0
  0
LINE
  5
37F
330
23
100
AcDbEntity
  8
0
  6
Continuous
 62
     7
370
    25
100
AcDbLine
 10
207.385
 20
336.825
 30
0.0
 11
218.615
 21
336.825
 31
0.0
  0
LINE
  5
380
330
23
100
AcDbEntity
  8
0
  6
Continuous
 62
     7
370
    25
100
AcDbLine
 10
218.615
 20
333.55
 30
0.0
 11
218.615
 21
336.825
 31
0.0
  0
LINE
  5
381
330
23
100
AcDbEntity
  8
0
  6
Continuous
 62
     7
370
    25
100
AcDbLine
 10
226.435
 20
333.55
 30
0.0
 11
218.615
 21
333.55
 31
0.0
  0
LINE
  5
382
330
23
100
AcDbEntity
  8
0
  6
Continuous
 62
     7
370
    25
100
AcDbLine
 10
226.435
 20
336.825
 30
0.0
 11
226.435
 21
333.55
 31
0.0
  0
LINE
  5
383
330
23
100
AcDbEntity
  8
0
  6
Continuous
 62
     7
370
    25
100
AcDbLine
 10
226.435
 20
336.825
 30
0.0
 11
237.665
 21
336.825
 31
0.0
  0
LINE
  5
384
330
23
100
AcDbEntity
  8
0
  6
Continuous
 62
     7
370
    25
100
AcDbLine
 10
237.665
 20
333.55
 30
0.0
 11
237.665
 21
336.825
 31
0.0
  0
LINE
  5
385
330
23
100
AcDbEntity
  8
0
  6
Continuous
 62
     7
370
    25
100
AcDbLine
 10
245.485
 20
333.55
 30
0.0
 11
237.665
 21
333.55
 31
0.0
  0
LINE
  5
386
330
23
100
AcDbEntity
  8
0
  6
Continuous
 62
     7
370
    25
100
AcDbLine
 10
245.485
 20
336.825
 30
0.0
 11
245.485
 21
333.55
 31
0.0
  0
LINE
  5
387
330
23
100
AcDbEntity
  8
0
  6
Continuous
 62
     7
370
    25
100
AcDbLine
 10
245.485
 20
336.825
 30
0.0
 11
256.715
 21
336.825
 31
0.0
  0
LINE
  5
388
330
23
100
AcDbEntity
  8
0
  6
Continuous
 62
     7
370
    25
100
AcDbLine
 10
256.715
 20
333.55
 30
0.0
 11
256.715
 21
336.825
 31
0.0
  0
LINE
  5
389
330
23
100
AcDbEntity
  8
0
  6
Continuous
 62
     7
370
    25
100
AcDbLine
 10
264.535
 20
333.55
 30
0.0
 11
256.715
 21
333.55
 31
0.0
  0
LINE
  5
38A
330
23
100
AcDbEntity
  8
0
  6
Continuous
 62
     7
370
    25
100
AcDbLine
 10
264.535
 20
336.825
 30
0.0
 11
264.535
 21
333.55
 31
0.0
  0
LINE
  5
38B
330
23
100
AcDbEntity
  8
0
  6
Continuous
 62
     7
370
    25
100
AcDbLine
 10
264.535
 20
336.825
 30
0.0
 11
275.765
 21
336.825
 31
0.0
  0
LINE
  5
38C
330
23
100
AcDbEntity
  8
0
  6
Continuous
 62
     7
370
    25
100
AcDbLine
 10
275.765
 20
333.55
 30
0.0
 11
275.765
 21
336.825
 31
0.0
  0
LINE
  5
38D
330
23
100
AcDbEntity
  8
0
  6
Continuous
 62
     7
370
    25
100
AcDbLine
 10
283.585
 20
333.55
 30
0.0
 11
275.765
 21
333.55
 31
0.0
  0
LINE
  5
38E
330
23
100
AcDbEntity
  8
0
  6
Continuous
 62
     7
370
    25
100
AcDbLine
 10
283.585
 20
336.825
 30
0.0
 11
283.585
 21
333.55
 31
0.0
  0
LINE
  5
38F
330
23
100
AcDbEntity
  8
0
  6
Continuous
 62
     7
370
    25
100
AcDbLine
 10
283.585
 20
336.825
 30
0.0
 11
294.815
 21
336.825
 31
0.0
  0
LINE
  5
390
330
23
100
AcDbEntity
  8
0
  6
Continuous
 62
     7
370
    25
100
AcDbLine
 10
294.815
 20
333.55
 30
0.0
 11
294.815
 21
336.825
 31
0.0
  0
LINE
  5
391
330
23
100
AcDbEntity
  8
0
  6
Continuous
 62
     7
370
    25
100
AcDbLine
 10
302.635
 20
333.55
 30
0.0
 11
294.815
 21
333.55
 31
0.0
  0
LINE
  5
392
330
23
100
AcDbEntity
  8
0
  6
Continuous
 62
     7
370
    25
100
AcDbLine
 10
302.635
 20
336.825
 30
0.0
 11
302.635
 21
333.55
 31
0.0
  0
LINE
  5
393
330
23
100
AcDbEntity
  8
0
  6
Continuous
 62
     7
370
    25
100
AcDbLine
 10
302.635
 20
336.825
 30
0.0
 11
313.865
 21
336.825
 31
0.0
  0
LINE
  5
394
330
23
100
AcDbEntity
  8
0
  6
Continuous
 62
     7
370
    25
100
AcDbLine
 10
313.865
 20
333.55
 30
0.0
 11
313.865
 21
336.825
 31
0.0
  0
LINE
  5
395
330
23
100
AcDbEntity
  8
0
  6
Continuous
 62
     7
370
    25
100
AcDbLine
 10
321.685
 20
333.55
 30
0.0
 11
313.865
 21
333.55
 31
0.0
  0
LINE
  5
396
330
23
100
AcDbEntity
  8
0
  6
Continuous
 62
     7
370
    25
100
AcDbLine
 10
321.685
 20
336.825
 30
0.0
 11
321.685
 21
333.55
 31
0.0
  0
LINE
  5
397
330
23
100
AcDbEntity
  8
0
  6
Continuous
 62
     7
370
    25
100
AcDbLine
 10
321.685
 20
336.825
 30
0.0
 11
332.915
 21
336.825
 31
0.0
  0
LINE
  5
398
330
23
100
AcDbEntity
  8
0
  6
Continuous
 62
     7
370
    25
100
AcDbLine
 10
332.915
 20
333.55
 30
0.0
 11
332.915
 21
336.825
 31
0.0
  0
LINE
  5
399
330
23
100
AcDbEntity
  8
0
  6
Continuous
 62
     7
370
    25
100
AcDbLine
 10
340.735
 20
333.55
 30
0.0
 11
332.915
 21
333.55
 31
0.0
  0
LINE
  5
39A
330
23
100
AcDbEntity
  8
0
  6
Continuous
 62
     7
370
    25
100
AcDbLine
 10
340.735
 20
336.825
 30
0.0
 11
340.735
 21
333.55
 31
0.0
  0
LINE
  5
39B
330
23
100
AcDbEntity
  8
0
  6
Continuous
 62
     7
370
    25
100
AcDbLine
 10
340.735
 20
336.825
 30
0.0
 11
343.175
 21
336.825
 31
0.0
  0
LINE
  5
39C
330
23
100
AcDbEntity
  8
0
  6
Continuous
 62
     7
370
    25
100
AcDbLine
 10
343.175
 20
336.825
 30
0.0
 11
343.175
 21
327.76
 31
0.0
  0
LINE
  5
39D
330
23
100
AcDbEntity
  8
0
  6
Continuous
 62
     7
370
    25
100
AcDbLine
 10
339.9
 20
327.76
 30
0.0
 11
343.175
 21
327.76
 31
0.0
  0
LINE
  5
39E
330
23
100
AcDbEntity
  8
0
  6
Continuous
 62
     7
370
    25
100
AcDbLine
 10
339.9
 20
319.94
 30
0.0
 11
339.9
 21
327.76
 31
0.0
  0
LINE
  5
39F
330
23
100
AcDbEntity
  8
0
  6
Continuous
 62
     7
370
    25
100
AcDbLine
 10
343.175
 20
319.94
 30
0.0
 11
339.9
 21
319.94
 31
0.0
  0
LINE
  5
3A0
330
23
100
AcDbEntity
  8
0
  6
Continuous
 62
     7
370
    25
100
AcDbLine
 10
343.175
 20
319.94
 30
0.0
 11
343.175
 21
308.71
 31
0.0
  0
LINE
  5
3A1
330
23
100
AcDbEntity
  8
0
  6
Continuous
 62
     7
370
    25
100
AcDbLine
 10
339.9
 20
308.71
 30
0.0
 11
343.175
 21
308.71
 31
0.0
  0
LINE
  5
3A2
330
23
100
AcDbEntity
  8
0
  6
Continuous
 62
     7
370
    25
100
AcDbLine
 10
339.9
 20
300.89
 30
0.0
 11
339.9
 21
308.71
 31
0.0
  0
LINE
  5
3A3
330
23
100
AcDbEntity
  8
0
  6
Continuous
 62
     7
370
    25
100
AcDbLine
 10
343.175
 20
300.89
 30
0.0
 11
339.9
 21
300.89
 31
0.0
  0
LINE
  5
3A4
330
23
100
AcDbEntity
  8
0
  6
Continuous
 62
     7
370
    25
100
AcDbLine
 10
343.175
 20
300.89
 30
0.0
 11
343.175
 21
289.66
 31
0.0
  0
LINE
  5
3A5
330
23
100
AcDbEntity
  8
0
  6
Continuous
 62
     7
370
    25
100
AcDbLine
 10
339.9
 20
289.66
 30
0.0
 11
343.175
 21
289.66
 31
0.0
  0
LINE
  5
3A6
330
23
100
AcDbEntity
  8
0
  6
Continuous
 62
     7
370
    25
100
AcDbLine
 10
339.9
 20
281.84
 30
0.0
 11
339.9
 21
289.66
 31
0.0
  0
LINE
  5
3A7
330
23
100
AcDbEntity
  8
0
  6
Continuous
 62
     7
370
    25
100
AcDbLine
 10
343.175
 20
281.84
 30
0.0
 11
339.9
 21
281.84
 31
0.0
  0
LINE
  5
3A8
330
23
100
AcDbEntity
  8
0
  6
Continuous
 62
     7
370
    25
100
AcDbLine
 10
343.175
 20
281.84
 30
0.0
 11
343.175
 21
270.61
 31
0.0
  0
LINE
  5
3A9
330
23
100
AcDbEntity
  8
0
  6
Continuous
 62
     7
370
    25
100
AcDbLine
 10
339.9
 20
270.61
 30
0.0
 11
343.175
 21
270.61
 31
0.0
  0
LINE
  5
3AA
330
23
100
AcDbEntity
  8
0
  6
Continuous
 62
     7
370
    25
100
AcDbLine
 10
339.9
 20
262.79
 30
0.0
 11
339.9
 21
270.61
 31
0.0
  0
LINE
  5
3AB
330
23
100
AcDbEntity
  8
0
  6
Continuous
 62
     7
370
    25
100
AcDbLine
 10
343.175
 20
262.79
 30
0.0
 11
339.9
 21
262.79
 31
0.0
  0
LINE
  5
3AC
330
23
100
AcDbEntity
  8
0
  6
Continuous
 62
     7
370
    25
100
AcDbLine
 10
343.175
 20
262.79
 30
0.0
 11
343.175
 21
251.56
 31
0.0
  0
LINE
  5
3AD
330
23
100
AcDbEntity
  8
0
  6
Continuous
 62
     7
370
    25
100
AcDbLine
 10
339.9
 20
251.56
 30
0.0
 11
343.175
 21
251.56
 31
0.0
  0
LINE
  5
3AE
330
23
100
AcDbEntity
  8
0
  6
Continuous
 62
     7
370
    25
100
AcDbLine
 10
339.9
 20
243.74
 30
0.0
 11
339.9
 21
251.56
 31
0.0
  0
LINE
  5
3AF
330
23
100
AcDbEntity
  8
0
  6
Continuous
 62
     7
370
    25
100
AcDbLine
 10
343.175
 20
243.74
 30
0.0
 11
339.9
 21
243.74
 31
0.0
  0
LINE
  5
3B0
330
23
100
AcDbEntity
  8
0
  6
Continuous
 62
     7
370
    25
100
AcDbLine
 10
343.175
 20
243.74
 30
0.0
 11
343.175
 21
232.51
 31
0.0
  0
LINE
  5
3B1
330
23
100
AcDbEntity
  8
0
  6
Continuous
 62
     7
370
    25
100
AcDbLine
 10
339.9
 20
232.51
 30
0.0
 11
343.175
 21
232.51
 31
0.0
  0
LINE
  5
3B2
330
23
100
AcDbEntity
  8
0
  6
Continuous
 62
     7
370
    25
100
AcDbLine
 10
339.9
 20
224.69
 30
0.0
 11
339.9
 21
232.51
 31
0.0
  0
LINE
  5
3B3
330
23
100
AcDbEntity
  8
0
  6
Continuous
 62
     7
370
    25
100
AcDbLine
 10
343.175
 20
224.69
 30
0.0
 11
339.9
 21
224.69
 31
0.0
  0
LINE
  5
3B4
330
23
100
AcDbEntity
  8
0
  6
Continuous
 62
     7
370
    25
100
AcDbLine
 10
343.175
 20
224.69
 30
0.0
 11
343.175
 21
213.46
 31
0.0
  0
LINE
  5
3B5
330
23
100
AcDbEntity
  8
0
  6
Continuous
 62
     7
370
    25
100
AcDbLine
 10
339.9
 20
213.46
 30
0.0
 11
343.175
 21
213.46
 31
0.0
  0
LINE
  5
3B6
330
23
100
AcDbEntity
  8
0
  6
Continuous
 62
     7
370
    25
100
AcDbLine
 10
339.9
 20
205.64
 30
0.0
 11
339.9
 21
213.46
 31
0.0
  0
LINE
  5
3B7
330
23
100
AcDbEntity
  8
0
  6
Continuous
 62
     7
370
    25
100
AcDbLine
 10
343.175
 20
205.64
 30
0.0
 11
339.9
 21
205.64
 31
0.0
  0
LINE
  5
3B8
330
23
100
AcDbEntity
  8
0
  6
Continuous
 62
     7
370
    25
100
AcDbLine
 10
343.175
 20
205.64
 30
0.0
 11
343.175
 21
194.41
 31
0.0
  0
LINE
  5
3B9
330
23
100
AcDbEntity
  8
0
  6
Continuous
 62
     7
370
    25
100
AcDbLine
 10
339.9
 20
194.41
 30
0.0
 11
343.175
 21
194.41
 31
0.0
  0
LINE
  5
3BA
330
23
100
AcDbEntity
  8
0
  6
Continuous
 62
     7
370
    25
100
AcDbLine
 10
339.9
 20
186.59
 30
0.0
 11
339.9
 21
194.41
 31
0.0
  0
LINE
  5
3BB
330
23
100
AcDbEntity
  8
0
  6
Continuous
 62
     7
370
    25
100
AcDbLine
 10
343.175
 20
186.59
 30
0.0
 11
339.9
 21
186.59
 31
0.0
  0
LINE
  5
3BC
330
23
100
AcDbEntity
  8
0
  6
Continuous
 62
     7
370
    25
100
AcDbLine
 10
343.175
 20
186.59
 30
0.0
 11
343.175
 21
175.36
 31
0.0
  0
LINE
  5
3BD
330
23
100
AcDbEntity
  8
0
  6
Continuous
 62
     7
370
    25
100
AcDbLine
 10
339.9
 20
175.36
 30
0.0
 11
343.175
 21
175.36
 31
0.0
  0
LINE
  5
3BE
330
23
100
AcDbEntity
  8
0
  6
Continuous
 62
     7
370
    25
100
AcDbLine
 10
339.9
 20
167.54
 30
0.0
 11
339.9
 21
175.36
 31
0.0
  0
LINE
  5
3BF
330
23
100
AcDbEntity
  8
0
  6
Continuous
 62
     7
370
    25
100
AcDbLine
 10
343.175
 20
167.54
 30
0.0
 11
339.9
 21
167.54
 31
0.0
  0
LINE
  5
3C0
330
23
100
AcDbEntity
  8
0
  6
Continuous
 62
     7
370
    25
100
AcDbLine
 10
343.175
 20
167.54
 30
0.0
 11
343.175
 21
156.31
 31
0.0
  0
LINE
  5
3C1
330
23
100
AcDbEntity
  8
0
  6
Continuous
 62
     7
370
    25
100
AcDbLine
 10
339.9
 20
156.31
 30
0.0
 11
343.175
 21
156.31
 31
0.0
  0
LINE
  5
3C2
330
23
100
AcDbEntity
  8
0
  6
Continuous
 62
     7
370
    25
100
AcDbLine
 10
339.9
 20
148.49
 30
0.0
 11
339.9
 21
156.31
 31
0.0
  0
LINE
  5
3C3
330
23
100
AcDbEntity
  8
0
  6
Continuous
 62
     7
370
    25
100
AcDbLine
 10
343.175
 20
148.49
 30
0.0
 11
339.9
 21
148.49
 31
0.0
  0
LINE
  5
3C4
330
23
100
AcDbEntity
  8
0
  6
Continuous
 62
     7
370
    25
100
AcDbLine
 10
343.175
 20
148.49
 30
0.0
 11
343.175
 21
137.26
 31
0.0
  0
LINE
  5
3C5
330
23
100
AcDbEntity
  8
0
  6
Continuous
 62
     7
370
    25
100
AcDbLine
 10
339.9
 20
137.26
 30
0.0
 11
343.175
 21
137.26
 31
0.0
  0
LINE
  5
3C6
330
23
100
AcDbEntity
  8
0
  6
Continuous
 62
     7
370
    25
100
AcDbLine
 10
339.9
 20
129.44
 30
0.0
 11
339.9
 21
137.26
 31
0.0
  0
LINE
  5
3C7
330
23
100
AcDbEntity
  8
0
  6
Continuous
 62
     7
370
    25
100
AcDbLine
 10
343.175
 20
129.44
 30
0.0
 11
339.9
 21
129.44
 31
0.0
  0
LINE
  5
3C8
330
23
100
AcDbEntity
  8
0
  6
Continuous
 62
     7
370
    25
100
AcDbLine
 10
343.175
 20
129.44
 30
0.0
 11
343.175
 21
118.21
 31
0.0
  0
LINE
  5
3C9
330
23
100
AcDbEntity
  8
0
  6
Continuous
 62
     7
370
    25
100
AcDbLine
 10
339.9
 20
118.21
 30
0.0
 11
343.175
 21
118.21
 31
0.0
  0
LINE
  5
3CA
330
23
100
AcDbEntity
  8
0
  6
Continuous
 62
     7
370
    25
100
AcDbLine
 10
339.9
 20
110.39
 30
0.0
 11
339.9
 21
118.21
 31
0.0
  0
LINE
  5
3CB
330
23
100
AcDbEntity
  8
0
  6
Continuous
 62
     7
370
    25
100
AcDbLine
 10
343.175
 20
110.39
 30
0.0
 11
339.9
 21
110.39
 31
0.0
  0
LINE
  5
3CC
330
23
100
AcDbEntity
  8
0
  6
Continuous
 62
     7
370
    25
100
AcDbLine
 10
343.175
 20
110.39
 30
0.0
 11
343.175
 21
99.16
 31
0.0
  0
LINE
  5
3CD
330
23
100
AcDbEntity
  8
0
  6
Continuous
 62
     7
370
    25
100
AcDbLine
 10
339.9
 20
99.16
 30
0.0
 11
343.175
 21
99.16
 31
0.0
  0
LINE
  5
3CE
330
23
100
AcDbEntity
  8
0
  6
Continuous
 62
     7
370
    25
100
AcDbLine
 10
339.9
 20
91.34
 30
0.0
 11
339.9
 21
99.16
 31
0.0
  0
LINE
  5
3CF
330
23
100
AcDbEntity
  8
0
  6
Continuous
 62
     7
370
    25
100
AcDbLine
 10
343.175
 20
91.34
 30
0.0
 11
339.9
 21
91.34
 31
0.0
  0
LINE
  5
3D0
330
23
100
AcDbEntity
  8
0
  6
Continuous
 62
     7
370
    25
100
AcDbLine
 10
343.175
 20
91.34
 30
0.0
 11
343.175
 21
80.11
 31
0.0
  0
LINE
  5
3D1
330
23
100
AcDbEntity
  8
0
  6
Continuous
 62
     7
370
    25
100
AcDbLine
 10
339.9
 20
80.11
 30
0.0
 11
343.175
 21
80.11
 31
0.0
  0
LINE
  5
3D2
330
23
100
AcDbEntity
  8
0
  6
Continuous
 62
     7
370
    25
100
AcDbLine
 10
339.9
 20
72.29
 30
0.0
 11
339.9
 21
80.11
 31
0.0
  0
LINE
  5
3D3
330
23
100
AcDbEntity
  8
0
  6
Continuous
 62
     7
370
    25
100
AcDbLine
 10
343.175
 20
72.29
 30
0.0
 11
339.9
 21
72.29
 31
0.0
  0
LINE
  5
3D4
330
23
100
AcDbEntity
  8
0
  6
Continuous
 62
     7
370
    25
100
AcDbLine
 10
343.175
 20
72.29
 30
0.0
 11
343.175
 21
61.06
 31
0.0
  0
LINE
  5
3D5
330
23
100
AcDbEntity
  8
0
  6
Continuous
 62
     7
370
    25
100
AcDbLine
 10
339.9
 20
61.06
 30
0.0
 11
343.175
 21
61.06
 31
0.0
  0
LINE
  5
3D6
330
23
100
AcDbEntity
  8
0
  6
Continuous
 62
     7
370
    25
100
AcDbLine
 10
339.9
 20
53.24
 30
0.0
 11
339.9
 21
61.06
 31
0.0
  0
LINE
  5
3D7
330
23
100
AcDbEntity
  8
0
  6
Continuous
 62
     7
370
    25
100
AcDbLine
 10
343.175
 20
53.24
 30
0.0
 11
339.9
 21
53.24
 31
0.0
  0
LINE
  5
3D8
330
23
100
AcDbEntity
  8
0
  6
Continuous
 62
     7
370
    25
100
AcDbLine
 10
343.175
 20
53.24
 30
0.0
 11
343.175
 21
42.01
 31
0.0
  0
LINE
  5
3D9
330
23
100
AcDbEntity
  8
0
  6
Continuous
 62
     7
370
    25
100
AcDbLine
 10
339.9
 20
42.01
 30
0.0
 11
343.175
 21
42.01
 31
0.0
  0
LINE
  5
3DA
330
23
100
AcDbEntity
  8
0
  6
Continuous
 62
     7
370
    25
100
AcDbLine
 10
339.9
 20
34.19
 30
0.0
 11
339.9
 21
42.01
 31
0.0
  0
LINE
  5
3DB
330
23
100
AcDbEntity
  8
0
  6
Continuous
 62
     7
370
    25
100
AcDbLine
 10
343.175
 20
34.19
 30
0.0
 11
339.9
 21
34.19
 31
0.0
  0
LINE
  5
3DC
330
23
100
AcDbEntity
  8
0
  6
Continuous
 62
     7
370
    25
100
AcDbLine
 10
343.175
 20
34.19
 30
0.0
 11
343.175
 21
22.96
 31
0.0
  0
LINE
  5
3DD
330
23
100
AcDbEntity
  8
0
  6
Continuous
 62
     7
370
    25
100
AcDbLine
 10
339.9
 20
22.96
 30
0.0
 11
343.175
 21
22.96
 31
0.0
  0
LINE
  5
3DE
330
23
100
AcDbEntity
  8
0
  6
Continuous
 62
     7
370
    25
100
AcDbLine
 10
339.9
 20
15.14
 30
0.0
 11
339.9
 21
22.96
 31
0.0
  0
LINE
  5
3DF
330
23
100
AcDbEntity
  8
0
  6
Continuous
 62
     7
370
    25
100
AcDbLine
 10
343.175
 20
15.14
 30
0.0
 11
339.9
 21
15.14
 31
0.0
  0
LINE
  5
3E0
330
23
100
AcDbEntity
  8
0
  6
Continuous
 62
     7
370
    25
100
AcDbLine
 10
343.175
 20
15.14
 30
0.0
 11
343.175
 21
3.91
 31
0.0
  0
LINE
  5
3E1
330
23
100
AcDbEntity
  8
0
  6
Continuous
 62
     7
370
    25
100
AcDbLine
 10
339.9
 20
3.91
 30
0.0
 11
343.175
 21
3.91
 31
0.0
  0
LINE
  5
3E2
330
23
100
AcDbEntity
  8
0
  6
Continuous
 62
     7
370
    25
100
AcDbLine
 10
339.9
 20
-3.91
 30
0.0
 11
339.9
 21
3.91
 31
0.0
  0
LINE
  5
3E3
330
23
100
AcDbEntity
  8
0
  6
Continuous
 62
     7
370
    25
100
AcDbLine
 10
343.175
 20
-3.91
 30
0.0
 11
339.9
 21
-3.91
 31
0.0
  0
LINE
  5
3E4
330
23
100
AcDbEntity
  8
0
  6
Continuous
 62
     7
370
    25
100
AcDbLine
 10
343.175
 20
-3.91
 30
0.0
 11
343.175
 21
-9.525
 31
0.0
  0
LINE
  5
3E5
330
23
100
AcDbEntity
  8
0
  6
Continuous
 62
     7
370
    25
100
AcDbLine
 10
343.175
 20
-9.525
 30
0.0
 11
337.285
 21
-9.525
 31
0.0
  0
LINE
  5
3E6
330
23
100
AcDbEntity
  8
0
  6
Continuous
 62
     7
370
    25
100
AcDbLine
 10
337.285
 20
-6.25
 30
0.0
 11
337.285
 21
-9.525
 31
0.0
  0
LINE
  5
3E7
330
23
100
AcDbEntity
  8
0
  6
Continuous
 62
     7
370
    25
100
AcDbLine
 10
329.465
 20
-6.25
 30
0.0
 11
337.285
 21
-6.25
 31
0.0
  0
LINE
  5
3E8
330
23
100
AcDbEntity
  8
0
  6
Continuous
 62
     7
370
    25
100
AcDbLine
 10
329.465
 20
-9.525
 30
0.0
 11
329.465
 21
-6.25
 31
0.0
  0
LINE
  5
3E9
330
23
100
AcDbEntity
  8
0
  6
Continuous
 62
     7
370
    25
100
AcDbLine
 10
329.465
 20
-9.525
 30
0.0
 11
318.235
 21
-9.525
 31
0.0
  0
LINE
  5
3EA
330
23
100
AcDbEntity
  8
0
  6
Continuous
 62
     7
370
    25
100
AcDbLine
 10
318.235
 20
-6.25
 30
0.0
 11
318.235
 21
-9.525
 31
0.0
  0
LINE
  5
3EB
330
23
100
AcDbEntity
  8
0
  6
Continuous
 62
     7
370
    25
100
AcDbLine
 10
310.415
 20
-6.25
 30
0.0
 11
318.235
 21
-6.25
 31
0.0
  0
LINE
  5
3EC
330
23
100
AcDbEntity
  8
0
  6
Continuous
 62
     7
370
    25
100
AcDbLine
 10
310.415
 20
-9.525
 30
0.0
 11
310.415
 21
-6.25
 31
0.0
  0
LINE
  5
3ED
330
23
100
AcDbEntity
  8
0
  6
Continuous
 62
     7
370
    25
100
AcDbLine
 10
310.415
 20
-9.525
 30
0.0
 11
299.185
 21
-9.525
 31
0.0
  0
LINE
  5
3EE
330
23
100
AcDbEntity
  8
0
  6
Continuous
 62
     7
370
    25
100
AcDbLine
 10
299.185
 20
-6.25
 30
0.0
 11
299.185
 21
-9.525
 31
0.0
  0
LINE
  5
3EF
330
23
100
AcDbEntity
  8
0
  6
Continuous
 62
     7
370
    25
100
AcDbLine
 10
291.365
 20
-6.25
 30
0.0
 11
299.185
 21
-6.25
 31
0.0
  0
LINE
  5
3F0
330
23
100
AcDbEntity
  8
0
  6
Continuous
 62
     7
370
    25
100
AcDbLine
 10
291.365
 20
-9.525
 30
0.0
 11
291.365
 21
-6.25
 31
0.0
  0
LINE
  5
3F1
330
23
100
AcDbEntity
  8
0
  6
Continuous
 62
     7
370
    25
100
AcDbLine
 10
291.365
 20
-9.525
 30
0.0
 11
280.135
 21
-9.525
 31
0.0
  0
LINE
  5
3F2
330
23
100
AcDbEntity
  8
0
  6
Continuous
 62
     7
370
    25
100
AcDbLine
 10
280.135
 20
-6.25
 30
0.0
 11
280.135
 21
-9.525
 31
0.0
  0
LINE
  5
3F3
330
23
100
AcDbEntity
  8
0
  6
Continuous
 62
     7
370
    25
100
AcDbLine
 10
272.315
 20
-6.25
 30
0.0
 11
280.135
 21
-6.25
 31
0.0
  0
LINE
  5
3F4
330
23
100
AcDbEntity
  8
0
  6
Continuous
 62
     7
370
    25
100
AcDbLine
 10
272.315
 20
-9.525
 30
0.0
 11
272.315
 21
-6.25
 31
0.0
  0
LINE
  5
3F5
330
23
100
AcDbEntity
  8
0
  6
Continuous
 62
     7
370
    25
100
AcDbLine
 10
272.315
 20
-9.525
 30
0.0
 11
261.085
 21
-9.525
 31
0.0
  0
LINE
  5
3F6
330
23
100
AcDbEntity
  8
0
  6
Continuous
 62
     7
370
    25
100
AcDbLine
 10
261.085
 20
-6.25
 30
0.0
 11
261.085
 21
-9.525
 31
0.0
  0
LINE
  5
3F7
330
23
100
AcDbEntity
  8
0
  6
Continuous
 62
     7
370
    25
100
AcDbLine
 10
253.265
 20
-6.25
 30
0.0
 11
261.085
 21
-6.25
 31
0.0
  0
LINE
  5
3F8
330
23
100
AcDbEntity
  8
0
  6
Continuous
 62
     7
370
    25
100
AcDbLine
 10
253.265
 20
-9.525
 30
0.0
 11
253.265
 21
-6.25
 31
0.0
  0
LINE
  5
3F9
330
23
100
AcDbEntity
  8
0
  6
Continuous
 62
     7
370
    25
100
AcDbLine
 10
253.265
 20
-9.525
 30
0.0
 11
242.035
 21
-9.525
 31
0.0
  0
LINE
  5
3FA
330
23
100
AcDbEntity
  8
0
  6
Continuous
 62
     7
370
    25
100
AcDbLine
 10
242.035
 20
-6.25
 30
0.0
 11
242.035
 21
-9.525
 31
0.0
  0
LINE
  5
3FB
330
23
100
AcDbEntity
  8
0
  6
Continuous
 62
     7
370
    25
100
AcDbLine
 10
234.215
 20
-6.25
 30
0.0
 11
242.035
 21
-6.25
 31
0.0
  0
LINE
  5
3FC
330
23
100
AcDbEntity
  8
0
  6
Continuous
 62
     7
370
    25
100
AcDbLine
 10
234.215
 20
-9.525
 30
0.0
 11
234.215
 21
-6.25
 31
0.0
  0
LINE
  5
3FD
330
23
100
AcDbEntity
  8
0
  6
Continuous
 62
     7
370
    25
100
AcDbLine
 10
234.215
 20
-9.525
 30
0.0
 11
222.985
 21
-9.525
 31
0.0
  0
LINE
  5
3FE
330
23
100
AcDbEntity
  8
0
  6
Continuous
 62
     7
370
    25
100
AcDbLine
 10
222.985
 20
-6.25
 30
0.0
 11
222.985
 21
-9.525
 31
0.0
  0
LINE
  5
3FF
330
23
100
AcDbEntity
  8
0
  6
Continuous
 62
     7
370
    25
100
AcDbLine
 10
215.165
 20
-6.25
 30
0.0
 11
222.985
 21
-6.25
 31
0.0
  0
LINE
  5
400
330
23
100
AcDbEntity
  8
0
  6
Continuous
 62
     7
370
    25
100
AcDbLine
 10
215.165
 20
-9.525
 30
0.0
 11
215.165
 21
-6.25
 31
0.0
  0
LINE
  5
401
330
23
100
AcDbEntity
  8
0
  6
Continuous
 62
     7
370
    25
100
AcDbLine
 10
215.165
 20
-9.525
 30
0.0
 11
203.935
 21
-9.525
 31
0.0
  0
LINE
  5
402
330
23
100
AcDbEntity
  8
0
  6
Continuous
 62
     7
370
    25
100
AcDbLine
 10
203.935
 20
-6.25
 30
0.0
 11
203.935
 21
-9.525
 31
0.0
  0
LINE
  5
403
330
23
100
AcDbEntity
  8
0
  6
Continuous
 62
     7
370
    25
100
AcDbLine
 10
196.115
 20
-6.25
 30
0.0
 11
203.935
 21
-6.25
 31
0.0
  0
LINE
  5
404
330
23
100
AcDbEntity
  8
0
  6
Continuous
 62
     7
370
    25
100
AcDbLine
 10
196.115
 20
-9.525
 30
0.0
 11
196.115
 21
-6.25
 31
0.0
  0
LINE
  5
405
330
23
100
AcDbEntity
  8
0
  6
Continuous
 62
     7
370
    25
100
AcDbLine
 10
196.115
 20
-9.525
 30
0.0
 11
184.885
 21
-9.525
 31
0.0
  0
LINE
  5
406
330
23
100
AcDbEntity
  8
0
  6
Continuous
 62
     7
370
    25
100
AcDbLine
 10
184.885
 20
-6.25
 30
0.0
 11
184.885
 21
-9.525
 31
0.0
  0
LINE
  5
407
330
23
100
AcDbEntity
  8
0
  6
Continuous
 62
     7
370
    25
100
AcDbLine
 10
177.065
 20
-6.25
 30
0.0
 11
184.885
 21
-6.25
 31
0.0
  0
LINE
  5
408
330
23
100
AcDbEntity
  8
0
  6
Continuous
 62
     7
370
    25
100
AcDbLine
 10
177.065
 20
-9.525
 30
0.0
 11
177.065
 21
-6.25
 31
0.0
  0
LINE
  5
409
330
23
100
AcDbEntity
  8
0
  6
Continuous
 62
     7
370
    25
100
AcDbLine
 10
177.065
 20
-9.525
 30
0.0
 11
165.835
 21
-9.525
 31
0.0
  0
LINE
  5
40A
330
23
100
AcDbEntity
  8
0
  6
Continuous
 62
     7
370
    25
100
AcDbLine
 10
165.835
 20
-6.25
 30
0.0
 11
165.835
 21
-9.525
 31
0.0
  0
LINE
  5
40B
330
23
100
AcDbEntity
  8
0
  6
Continuous
 62
     7
370
    25
100
AcDbLine
 10
158.015
 20
-6.25
 30
0.0
 11
165.835
 21
-6.25
 31
0.0
  0
LINE
  5
40C
330
23
100
AcDbEntity
  8
0
  6
Continuous
 62
     7
370
    25
100
AcDbLine
 10
158.015
 20
-9.525
 30
0.0
 11
158.015
 21
-6.25
 31
0.0
  0
LINE
  5
40D
330
23
100
AcDbEntity
  8
0
  6
Continuous
 62
     7
370
    25
100
AcDbLine
 10
158.015
 20
-9.525
 30
0.0
 11
146.785
 21
-9.525
 31
0.0
  0
LINE
  5
40E
330
23
100
AcDbEntity
  8
0
  6
Continuous
 62
     7
370
    25
100
AcDbLine
 10
146.785
 20
-6.25
 30
0.0
 11
146.785
 21
-9.525
 31
0.0
  0
LINE
  5
40F
330
23
100
AcDbEntity
  8
0
  6
Continuous
 62
     7
370
    25
100
AcDbLine
 10
138.965
 20
-6.25
 30
0.0
 11
146.785
 21
-6.25
 31
0.0
  0
LINE
  5
410
330
23
100
AcDbEntity
  8
0
  6
Continuous
 62
     7
370
    25
100
AcDbLine
 10
138.965
 20
-9.525
 30
0.0
 11
138.965
 21
-6.25
 31
0.0
  0
LINE
  5
411
330
23
100
AcDbEntity
  8
0
  6
Continuous
 62
     7
370
    25
100
AcDbLine
 10
138.965
 20
-9.525
 30
0.0
 11
127.735
 21
-9.525
 31
0.0
  0
LINE
  5
412
330
23
100
AcDbEntity
  8
0
  6
Continuous
 62
     7
370
    25
100
AcDbLine
 10
127.735
 20
-6.25
 30
0.0
 11
127.735
 21
-9.525
 31
0.0
  0
LINE
  5
413
330
23
100
AcDbEntity
  8
0
  6
Continuous
 62
     7
370
    25
100
AcDbLine
 10
119.915
 20
-6.25
 30
0.0
 11
127.735
 21
-6.25
 31
0.0
  0
LINE
  5
414
330
23
100
AcDbEntity
  8
0
  6
Continuous
 62
     7
370
    25
100
AcDbLine
 10
119.915
 20
-9.525
 30
0.0
 11
119.915
 21
-6.25
 31
0.0
  0
LINE
  5
415
330
23
100
AcDbEntity
  8
0
  6
Continuous
 62
     7
370
    25
100
AcDbLine
 10
119.915
 20
-9.525
 30
0.0
 11
108.685
 21
-9.525
 31
0.0
  0
LINE
  5
416
330
23
100
AcDbEntity
  8
0
  6
Continuous
 62
     7
370
    25
100
AcDbLine
 10
108.685
 20
-6.25
 30
0.0
 11
108.685
 21
-9.525
 31
0.0
  0
LINE
  5
417
330
23
100
AcDbEntity
  8
0
  6
Continuous
 62
     7
370
    25
100
AcDbLine
 10
100.865
 20
-6.25
 30
0.0
 11
108.685
 21
-6.25
 31
0.0
  0
LINE
  5
418
330
23
100
AcDbEntity
  8
0
  6
Continuous
 62
     7
370
    25
100
AcDbLine
 10
100.865
 20
-9.525
 30
0.0
 11
100.865
 21
-6.25
 31
0.0
  0
LINE
  5
419
330
23
100
AcDbEntity
  8
0
  6
Continuous
 62
     7
370
    25
100
AcDbLine
 10
100.865
 20
-9.525
 30
0.0
 11
89.635
 21
-9.525
 31
0.0
  0
LINE
  5
41A
330
23
100
AcDbEntity
  8
0
  6
Continuous
 62
     7
370
    25
100
AcDbLine
 10
89.635
 20
-6.25
 30
0.0
 11
89.635
 21
-9.525
 31
0.0
  0
LINE
  5
41B
330
23
100
AcDbEntity
  8
0
  6
Continuous
 62
     7
370
    25
100
AcDbLine
 10
81.815
 20
-6.25
 30
0.0
 11
89.635
 21
-6.25
 31
0.0
  0
LINE
  5
41C
330
23
100
AcDbEntity
  8
0
  6
Continuous
 62
     7
370
    25
100
AcDbLine
 10
81.815
 20
-9.525
 30
0.0
 11
81.815
 21
-6.25
 31
0.0
  0
LINE
  5
41D
330
23
100
AcDbEntity
  8
0
  6
Continuous
 62
     7
370
    25
100
AcDbLine
 10
81.815
 20
-9.525
 30
0.0
 11
70.585
 21
-9.525
 31
0.0
  0
LINE
  5
41E
330
23
100
AcDbEntity
  8
0
  6
Continuous
 62
     7
370
    25
100
AcDbLine
 10
70.585
 20
-6.25
 30
0.0
 11
70.585
 21
-9.525
 31
0.0
  0
LINE
  5
41F
330
23
100
AcDbEntity
  8
0
  6
Continuous
 62
     7
370
    25
100
AcDbLine
 10
62.765
 20
-6.25
 30
0.0
 11
70.585
 21
-6.25
 31
0.0
  0
LINE
  5
420
330
23
100
AcDbEntity
  8
0
  6
Continuous
 62
     7
370
    25
100
AcDbLine
 10
62.765
 20
-9.525
 30
0.0
 11
62.765
 21
-6.25
 31
0.0
  0
LINE
  5
421
330
23
100
AcDbEntity
  8
0
  6
Continuous
 62
     7
370
    25
100
AcDbLine
 10
62.765
 20
-9.525
 30
0.0
 11
51.535
 21
-9.525
 31
0.0
  0
LINE
  5
422
330
23
100
AcDbEntity
  8
0
  6
Continuous
 62
     7
370
    25
100
AcDbLine
 10
51.535
 20
-6.25
 30
0.0
 11
51.535
 21
-9.525
 31
0.0
  0
LINE
  5
423
330
23
100
AcDbEntity
  8
0
  6
Continuous
 62
     7
370
    25
100
AcDbLine
 10
43.715
 20
-6.25
 30
0.0
 11
51.535
 21
-6.25
 31
0.0
  0
LINE
  5
424
330
23
100
AcDbEntity
  8
0
  6
Continuous
 62
     7
370
    25
100
AcDbLine
 10
43.715
 20
-9.525
 30
0.0
 11
43.715
 21
-6.25
 31
0.0
  0
LINE
  5
425
330
23
100
AcDbEntity
  8
0
  6
Continuous
 62
     7
370
    25
100
AcDbLine
 10
43.715
 20
-9.525
 30
0.0
 11
32.485
 21
-9.525
 31
0.0
  0
LINE
  5
426
330
23
100
AcDbEntity
  8
0
  6
Continuous
 62
     7
370
    25
100
AcDbLine
 10
32.485
 20
-6.25
 30
0.0
 11
32.485
 21
-9.525
 31
0.0
  0
LINE
  5
427
330
23
100
AcDbEntity
  8
0
  6
Continuous
 62
     7
370
    25
100
AcDbLine
 10
24.665
 20
-6.25
 30
0.0
 11
32.485
 21
-6.25
 31
0.0
  0
LINE
  5
428
330
23
100
AcDbEntity
  8
0
  6
Continuous
 62
     7
370
    25
100
AcDbLine
 10
24.665
 20
-9.525
 30
0.0
 11
24.665
 21
-6.25
 31
0.0
  0
LINE
  5
429
330
23
100
AcDbEntity
  8
0
  6
Continuous
 62
     7
370
    25
100
AcDbLine
 10
24.665
 20
-9.525
 30
0.0
 11
13.435
 21
-9.525
 31
0.0
  0
LINE
  5
42A
330
23
100
AcDbEntity
  8
0
  6
Continuous
 62
     7
370
    25
100
AcDbLine
 10
13.435
 20
-6.25
 30
0.0
 11
13.435
 21
-9.525
 31
0.0
  0
LINE
  5
42B
330
23
100
AcDbEntity
  8
0
  6
Continuous
 62
     7
370
    25
100
AcDbLine
 10
5.615
 20
-6.25
 30
0.0
 11
13.435
 21
-6.25
 31
0.0
  0
LINE
  5
42C
330
23
100
AcDbEntity
  8
0
  6
Continuous
 62
     7
370
    25
100
AcDbLine
 10
5.615
 20
-9.525
 30
0.0
 11
5.615
 21
-6.25
 31
0.0
  0
LINE
  5
42D
330
23
100
AcDbEntity
  8
0
  6
Continuous
 62
     7
370
    25
100
AcDbLine
 10
5.615
 20
-9.525
 30
0.0
 11
3.175
 21
-9.525
 31
0.0
  0
LINE
  5
42E
330
23
100
AcDbEntity
  8
0
  6
Continuous
 62
     7
370
    25
100
AcDbLine
 10
3.175
 20
-9.525
 30
0.0
 11
3.175
 21
-3.91
 31
0.0
  0
LINE
  5
42F
330
23
100
AcDbEntity
  8
0
  6
Continuous
 62
     7
370
    25
100
AcDbLine
 10
3.175
 20
-3.91
 30
0.0
 11
6.45
 21
-3.91
 31
0.0
  0
LINE
  5
430
330
23
100
AcDbEntity
  8
0
  6
Continuous
 62
     7
370
    25
100
AcDbLine
 10
6.45
 20
-3.91
 30
0.0
 11
6.45
 21
3.91
 31
0.0
  0
LINE
  5
431
330
23
100
AcDbEntity
  8
0
  6
Continuous
 62
     7
370
    25
100
AcDbLine
 10
6.45
 20
3.91
 30
0.0
 11
3.175
 21
3.91
 31
0.0
  0
LINE
  5
432
330
23
100
AcDbEntity
  8
0
  6
Continuous
 62
     7
370
    25
100
AcDbLine
 10
3.175
 20
3.91
 30
0.0
 11
3.175
 21
15.14
 31
0.0
  0
LINE
  5
433
330
23
100
AcDbEntity
  8
0
  6
Continuous
 62
     7
370
    25
100
AcDbLine
 10
3.175
 20
15.14
 30
0.0
 11
6.45
 21
15.14
 31
0.0
  0
LINE
  5
434
330
23
100
AcDbEntity
  8
0
  6
Continuous
 62
     7
370
    25
100
AcDbLine
 10
6.45
 20
15.14
 30
0.0
 11
6.45
 21
22.96
 31
0.0
  0
LINE
  5
435
330
23
100
AcDbEntity
  8
0
  6
Continuous
 62
     7
370
    25
100
AcDbLine
 10
6.45
 20
22.96
 30
0.0
 11
3.175
 21
22.96
 31
0.0
  0
LINE
  5
436
330
23
100
AcDbEntity
  8
0
  6
Continuous
 62
     7
370
    25
100
AcDbLine
 10
3.175
 20
22.96
 30
0.0
 11
3.175
 21
34.19
 31
0.0
  0
LINE
  5
437
330
23
100
AcDbEntity
  8
0
  6
Continuous
 62
     7
370
    25
100
AcDbLine
 10
3.175
 20
34.19
 30
0.0
 11
6.45
 21
34.19
 31
0.0
  0
LINE
  5
438
330
23
100
AcDbEntity
  8
0
  6
Continuous
 62
     7
370
    25
100
AcDbLine
 10
6.45
 20
34.19
 30
0.0
 11
6.45
 21
42.01
 31
0.0
  0
LINE
  5
439
330
23
100
AcDbEntity
  8
0
  6
Continuous
 62
     7
370
    25
100
AcDbLine
 10
6.45
 20
42.01
 30
0.0
 11
3.175
 21
42.01
 31
0.0
  0
LINE
  5
43A
330
23
100
AcDbEntity
  8
0
  6
Continuous
 62
     7
370
    25
100
AcDbLine
 10
3.175
 20
42.01
 30
0.0
 11
3.175
 21
53.24
 31
0.0
  0
LINE
  5
43B
330
23
100
AcDbEntity
  8
0
  6
Continuous
 62
     7
370
    25
100
AcDbLine
 10
3.175
 20
53.24
 30
0.0
 11
6.45
 21
53.24
 31
0.0
  0
LINE
  5
43C
330
23
100
AcDbEntity
  8
0
  6
Continuous
 62
     7
370
    25
100
AcDbLine
 10
6.45
 20
53.24
 30
0.0
 11
6.45
 21
61.06
 31
0.0
  0
LINE
  5
43D
330
23
100
AcDbEntity
  8
0
  6
Continuous
 62
     7
370
    25
100
AcDbLine
 10
6.45
 20
61.06
 30
0.0
 11
3.175
 21
61.06
 31
0.0
  0
LINE
  5
43E
330
23
100
AcDbEntity
  8
0
  6
Continuous
 62
     7
370
    25
100
AcDbLine
 10
3.175
 20
61.06
 30
0.0
 11
3.175
 21
72.29
 31
0.0
  0
LINE
  5
43F
330
23
100
AcDbEntity
  8
0
  6
Continuous
 62
     7
370
    25
100
AcDbLine
 10
3.175
 20
72.29
 30
0.0
 11
6.45
 21
72.29
 31
0.0
  0
LINE
  5
440
330
23
100
AcDbEntity
  8
0
  6
Continuous
 62
     7
370
    25
100
AcDbLine
 10
6.45
 20
72.29
 30
0.0
 11
6.45
 21
80.11
 31
0.0
  0
LINE
  5
441
330
23
100
AcDbEntity
  8
0
  6
Continuous
 62
     7
370
    25
100
AcDbLine
 10
6.45
 20
80.11
 30
0.0
 11
3.175
 21
80.11
 31
0.0
  0
LINE
  5
442
330
23
100
AcDbEntity
  8
0
  6
Continuous
 62
     7
370
    25
100
AcDbLine
 10
3.175
 20
80.11
 30
0.0
 11
3.175
 21
91.34
 31
0.0
  0
LINE
  5
443
330
23
100
AcDbEntity
  8
0
  6
Continuous
 62
     7
370
    25
100
AcDbLine
 10
3.175
 20
91.34
 30
0.0
 11
6.45
 21
91.34
 31
0.0
  0
LINE
  5
444
330
23
100
AcDbEntity
  8
0
  6
Continuous
 62
     7
370
    25
100
AcDbLine
 10
6.45
 20
91.34
 30
0.0
 11
6.45
 21
99.16
 31
0.0
  0
LINE
  5
445
330
23
100
AcDbEntity
  8
0
  6
Continuous
 62
     7
370
    25
100
AcDbLine
 10
6.45
 20
99.16
 30
0.0
 11
3.175
 21
99.16
 31
0.0
  0
LINE
  5
446
330
23
100
AcDbEntity
  8
0
  6
Continuous
 62
     7
370
    25
100
AcDbLine
 10
3.175
 20
99.16
 30
0.0
 11
3.175
 21
110.39
 31
0.0
  0
LINE
  5
447
330
23
100
AcDbEntity
  8
0
  6
Continuous
 62
     7
370
    25
100
AcDbLine
 10
3.175
 20
110.39
 30
0.0
 11
6.45
 21
110.39
 31
0.0
  0
LINE
  5
448
330
23
100
AcDbEntity
  8
0
  6
Continuous
 62
     7
370
    25
100
AcDbLine
 10
6.45
 20
110.39
 30
0.0
 11
6.45
 21
118.21
 31
0.0
  0
LINE
  5
449
330
23
100
AcDbEntity
  8
0
  6
Continuous
 62
     7
370
    25
100
AcDbLine
 10
6.45
 20
118.21
 30
0.0
 11
3.175
 21
118.21
 31
0.0
  0
LINE
  5
44A
330
23
100
AcDbEntity
  8
0
  6
Continuous
 62
     7
370
    25
100
AcDbLine
 10
3.175
 20
118.21
 30
0.0
 11
3.175
 21
129.44
 31
0.0
  0
LINE
  5
44B
330
23
100
AcDbEntity
  8
0
  6
Continuous
 62
     7
370
    25
100
AcDbLine
 10
3.175
 20
129.44
 30
0.0
 11
6.45
 21
129.44
 31
0.0
  0
LINE
  5
44C
330
23
100
AcDbEntity
  8
0
  6
Continuous
 62
     7
370
    25
100
AcDbLine
 10
6.45
 20
129.44
 30
0.0
 11
6.45
 21
137.26
 31
0.0
  0
LINE
  5
44D
330
23
100
AcDbEntity
  8
0
  6
Continuous
 62
     7
370
    25
100
AcDbLine
 10
6.45
 20
137.26
 30
0.0
 11
3.175
 21
137.26
 31
0.0
  0
LINE
  5
44E
330
23
100
AcDbEntity
  8
0
  6
Continuous
 62
     7
370
    25
100
AcDbLine
 10
3.175
 20
137.26
 30
0.0
 11
3.175
 21
148.49
 31
0.0
  0
LINE
  5
44F
330
23
100
AcDbEntity
  8
0
  6
Continuous
 62
     7
370
    25
100
AcDbLine
 10
3.175
 20
148.49
 30
0.0
 11
6.45
 21
148.49
 31
0.0
  0
LINE
  5
450
330
23
100
AcDbEntity
  8
0
  6
Continuous
 62
     7
370
    25
100
AcDbLine
 10
6.45
 20
148.49
 30
0.0
 11
6.45
 21
156.31
 31
0.0
  0
LINE
  5
451
330
23
100
AcDbEntity
  8
0
  6
Continuous
 62
     7
370
    25
100
AcDbLine
 10
6.45
 20
156.31
 30
0.0
 11
3.175
 21
156.31
 31
0.0
  0
LINE
  5
452
330
23
100
AcDbEntity
  8
0
  6
Continuous
 62
     7
370
    25
100
AcDbLine
 10
3.175
 20
156.31
 30
0.0
 11
3.175
 21
167.54
 31
0.0
  0
LINE
  5
453
330
23
100
AcDbEntity
  8
0
  6
Continuous
 62
     7
370
    25
100
AcDbLine
 10
3.175
 20
167.54
 30
0.0
 11
6.45
 21
167.54
 31
0.0
  0
LINE
  5
454
330
23
100
AcDbEntity
  8
0
  6
Continuous
 62
     7
370
    25
100
AcDbLine
 10
6.45
 20
167.54
 30
0.0
 11
6.45
 21
175.36
 31
0.0
  0
LINE
  5
455
330
23
100
AcDbEntity
  8
0
  6
Continuous
 62
     7
370
    25
100
AcDbLine
 10
6.45
 20
175.36
 30
0.0
 11
3.175
 21
175.36
 31
0.0
  0
LINE
  5
456
330
23
100
AcDbEntity
  8
0
  6
Continuous
 62
     7
370
    25
100
AcDbLine
 10
3.175
 20
175.36
 30
0.0
 11
3.175
 21
186.59
 31
0.0
  0
LINE
  5
457
330
23
100
AcDbEntity
  8
0
  6
Continuous
 62
     7
370
    25
100
AcDbLine
 10
3.175
 20
186.59
 30
0.0
 11
6.45
 21
186.59
 31
0.0
  0
LINE
  5
458
330
23
100
AcDbEntity
  8
0
  6
Continuous
 62
     7
370
    25
100
AcDbLine
 10
6.45
 20
186.59
 30
0.0
 11
6.45
 21
194.41
 31
0.0
  0
LINE
  5
459
330
23
100
AcDbEntity
  8
0
  6
Continuous
 62
     7
370
    25
100
AcDbLine
 10
6.45
 20
194.41
 30
0.0
 11
3.175
 21
194.41
 31
0.0
  0
LINE
  5
45A
330
23
100
AcDbEntity
  8
0
  6
Continuous
 62
     7
370
    25
100
AcDbLine
 10
3.175
 20
194.41
 30
0.0
 11
3.175
 21
205.64
 31
0.0
  0
LINE
  5
45B
330
23
100
AcDbEntity
  8
0
  6
Continuous
 62
     7
370
    25
100
AcDbLine
 10
3.175
 20
205.64
 30
0.0
 11
6.45
 21
205.64
 31
0.0
  0
LINE
  5
45C
330
23
100
AcDbEntity
  8
0
  6
Continuous
 62
     7
370
    25
100
AcDbLine
 10
6.45
 20
205.64
 30
0.0
 11
6.45
 21
213.46
 31
0.0
  0
LINE
  5
45D
330
23
100
AcDbEntity
  8
0
  6
Continuous
 62
     7
370
    25
100
AcDbLine
 10
6.45
 20
213.46
 30
0.0
 11
3.175
 21
213.46
 31
0.0
  0
LINE
  5
45E
330
23
100
AcDbEntity
  8
0
  6
Continuous
 62
     7
370
    25
100
AcDbLine
 10
3.175
 20
213.46
 30
0.0
 11
3.175
 21
224.69
 31
0.0
  0
LINE
  5
45F
330
23
100
AcDbEntity
  8
0
  6
Continuous
 62
     7
370
    25
100
AcDbLine
 10
3.175
 20
224.69
 30
0.0
 11
6.45
 21
224.69
 31
0.0
  0
LINE
  5
460
330
23
100
AcDbEntity
  8
0
  6
Continuous
 62
     7
370
    25
100
AcDbLine
 10
6.45
 20
224.69
 30
0.0
 11
6.45
 21
232.51
 31
0.0
  0
LINE
  5
461
330
23
100
AcDbEntity
  8
0
  6
Continuous
 62
     7
370
    25
100
AcDbLine
 10
6.45
 20
232.51
 30
0.0
 11
3.175
 21
232.51
 31
0.0
  0
LINE
  5
462
330
23
100
AcDbEntity
  8
0
  6
Continuous
 62
     7
370
    25
100
AcDbLine
 10
3.175
 20
232.51
 30
0.0
 11
3.175
 21
243.74
 31
0.0
  0
LINE
  5
463
330
23
100
AcDbEntity
  8
0
  6
Continuous
 62
     7
370
    25
100
AcDbLine
 10
3.175
 20
243.74
 30
0.0
 11
6.45
 21
243.74
 31
0.0
  0
LINE
  5
464
330
23
100
AcDbEntity
  8
0
  6
Continuous
 62
     7
370
    25
100
AcDbLine
 10
6.45
 20
243.74
 30
0.0
 11
6.45
 21
251.56
 31
0.0
  0
LINE
  5
465
330
23
100
AcDbEntity
  8
0
  6
Continuous
 62
     7
370
    25
100
AcDbLine
 10
6.45
 20
251.56
 30
0.0
 11
3.175
 21
251.56
 31
0.0
  0
LINE
  5
466
330
23
100
AcDbEntity
  8
0
  6
Continuous
 62
     7
370
    25
100
AcDbLine
 10
3.175
 20
251.56
 30
0.0
 11
3.175
 21
262.79
 31
0.0
  0
LINE
  5
467
330
23
100
AcDbEntity
  8
0
  6
Continuous
 62
     7
370
    25
100
AcDbLine
 10
3.175
 20
262.79
 30
0.0
 11
6.45
 21
262.79
 31
0.0
  0
LINE
  5
468
330
23
100
AcDbEntity
  8
0
  6
Continuous
 62
     7
370
    25
100
AcDbLine
 10
6.45
 20
262.79
 30
0.0
 11
6.45
 21
270.61
 31
0.0
  0
LINE
  5
469
330
23
100
AcDbEntity
  8
0
  6
Continuous
 62
     7
370
    25
100
AcDbLine
 10
6.45
 20
270.61
 30
0.0
 11
3.175
 21
270.61
 31
0.0
  0
LINE
  5
46A
330
23
100
AcDbEntity
  8
0
  6
Continuous
 62
     7
370
    25
100
AcDbLine
 10
3.175
 20
270.61
 30
0.0
 11
3.175
 21
281.84
 31
0.0
  0
LINE
  5
46B
330
23
100
AcDbEntity
  8
0
  6
Continuous
 62
     7
370
    25
100
AcDbLine
 10
3.175
 20
281.84
 30
0.0
 11
6.45
 21
281.84
 31
0.0
  0
LINE
  5
46C
330
23
100
AcDbEntity
  8
0
  6
Continuous
 62
     7
370
    25
100
AcDbLine
 10
6.45
 20
281.84
 30
0.0
 11
6.45
 21
289.66
 31
0.0
  0
LINE
  5
46D
330
23
100
AcDbEntity
  8
0
  6
Continuous
 62
     7
370
    25
100
AcDbLine
 10
6.45
 20
289.66
 30
0.0
 11
3.175
 21
289.66
 31
0.0
  0
LINE
  5
46E
330
23
100
AcDbEntity
  8
0
  6
Continuous
 62
     7
370
    25
100
AcDbLine
 10
3.175
 20
289.66
 30
0.0
 11
3.175
 21
300.89
 31
0.0
  0
LINE
  5
46F
330
23
100
AcDbEntity
  8
0
  6
Continuous
 62
     7
370
    25
100
AcDbLine
 10
3.175
 20
300.89
 30
0.0
 11
6.45
 21
300.89
 31
0.0
  0
LINE
  5
470
330
23
100
AcDbEntity
  8
0
  6
Continuous
 62
     7
370
    25
100
AcDbLine
 10
6.45
 20
300.89
 30
0.0
 11
6.45
 21
308.71
 31
0.0
  0
LINE
  5
471
330
23
100
AcDbEntity
  8
0
  6
Continuous
 62
     7
370
    25
100
AcDbLine
 10
6.45
 20
308.71
 30
0.0
 11
3.175
 21
308.71
 31
0.0
  0
LINE
  5
472
330
23
100
AcDbEntity
  8
0
  6
Continuous
 62
     7
370
    25
100
AcDbLine
 10
3.175
 20
308.71
 30
0.0
 11
3.175
 21
319.94
 31
0.0
  0
LINE
  5
473
330
23
100
AcDbEntity
  8
0
  6
Continuous
 62
     7
370
    25
100
AcDbLine
 10
3.175
 20
319.94
 30
0.0
 11
6.45
 21
319.94
 31
0.0
  0
LINE
  5
474
330
23
100
AcDbEntity
  8
0
  6
Continuous
 62
     7
370
    25
100
AcDbLine
 10
6.45
 20
319.94
 30
0.0
 11
6.45
 21
327.76
 31
0.0
  0
LINE
  5
475
330
23
100
AcDbEntity
  8
0
  6
Continuous
 62
     7
370
    25
100
AcDbLine
 10
6.45
 20
327.76
 30
0.0
 11
3.175
 21
327.76
 31
0.0
  0
LINE
  5
476
330
23
100
AcDbEntity
  8
0
  6
Continuous
 62
     7
370
    25
100
AcDbLine
 10
3.175
 20
327.76
 30
0.0
 11
3.175
 21
336.825
 31
0.0
  0
LINE
  5
477
330
23
100
AcDbEntity
  8
0
  6
Continuous
 62
     7
370
    25
100
AcDbLine
 10
3.175
 20
336.825
 30
0.0
 11
9.065
 21
336.825
 31
0.0
  0
LINE
  5
478
330
23
100
AcDbEntity
  8
0
  6
Continuous
 62
     7
370
    25
100
AcDbLine
 10
9.065
 20
333.55
 30
0.0
 11
9.065
 21
336.825
 31
0.0
  0
LINE
  5
479
330
23
100
AcDbEntity
  8
0
  6
Continuous
 62
     7
370
    25
100
AcDbLine
 10
16.885
 20
333.55
 30
0.0
 11
9.065
 21
333.55
 31
0.0
  0
LINE
  5
47A
330
23
100
AcDbEntity
  8
0
  6
Continuous
 62
     7
370
    25
100
AcDbLine
 10
16.885
 20
336.825
 30
0.0
 11
16.885
 21
333.55
 31
0.0
  0
VIEWPORT
  5
66D
330
23
100
AcDbEntity
  8
0
100
AcDbViewport
 10
0.0
 20
0.0
 30
0.0
 40
205.6
 41
156.0
 68
     1
 69
     1
 12
163.65
 22
43.4125
 13
0.0
 23
0.0
 14
10.0
 24
10.0
 15
10.0
 25
10.0
 16
0.0
 26
0.0
 36
1.0
 17
0.0
 27
0.0
 37
0.0
 42
50.0
 43
0.0
 44
0.0
 45
268.0506420233
 50
0.0
 51
0.0
 72
   100
 90
   557152
  1

281
     0
 71
     1
 74
     0
110
0.0
120
0.0
130
0.0
111
1.0
121
0.0
131
0.0
112
0.0
122
1.0
132
0.0
 79
     0
146
0.0
  0
MTEXT
  5
678
330
23
100
AcDbEntity
  8
0
  6
Continuous
 62
     7
100
AcDbMText
 10
3.175
 20
-10.5445663917
 30
0.0
 40
4.83362
 41
0.0
 71
     1
 72
     1
  1
SOLIDWORKS Educational Product.
  7
SLDTEXTSTYLE0
 73
     1
 44
1.0
  0
MTEXT
  5
679
330
23
100
AcDbEntity
  8
0
  6
Continuous
 62
     7
100
AcDbMText
 10
3.175
 20
-17.7949963917
 30
0.0
 40
4.83362
 41
0.0
 71
     1
 72
     1
  1
For Instructional Use Only.
  7
SLDTEXTSTYLE0
 73
     1
 44
1.0
  0
ENDBLK
  5
25
330
23
100
AcDbEntity
  8
0
100
AcDbBlockEnd
  0
BLOCK
  5
47D
330
47B
100
AcDbEntity
  8
0
100
AcDbBlockBegin
  2
*Paper_Space1
 70
     0
 10
0.0
 20
0.0
 30
0.0
  3
*Paper_Space1
  1

  0
LINE
  5
4FB
330
47B
100
AcDbEntity
  8
0
  6
Continuous
 62
     7
370
    25
100
AcDbLine
 10
68.3047030526
 20
20.7010361183
 30
0.0
 11
68.3047030526
 21
39.7010361183
 31
0.0
  0
LINE
  5
4FC
330
47B
100
AcDbEntity
  8
0
  6
Continuous
 62
     7
370
    25
100
AcDbLine
 10
55.3047030526
 20
39.7010361183
 30
0.0
 11
68.3047030526
 21
39.7010361183
 31
0.0
  0
LINE
  5
4FD
330
47B
100
AcDbEntity
  8
0
  6
Continuous
 62
     7
370
    25
100
AcDbLine
 10
55.3047030526
 20
20.7010361183
 30
0.0
 11
55.3047030526
 21
39.7010361183
 31
0.0
  0
LINE
  5
4FE
330
47B
100
AcDbEntity
  8
0
  6
Continuous
 62
     7
370
    25
100
AcDbLine
 10
55.3047030526
 20
20.7010361183
 30
0.0
 11
68.3047030526
 21
20.7010361183
 31
0.0
  0
LINE
  5
4FF
330
47B
100
AcDbEntity
  8
0
  6
Continuous
 62
     7
370
    25
100
AcDbLine
 10
45.3047030526
 20
20.7010361183
 30
0.0
 11
45.3047030526
 21
39.7010361183
 31
0.0
  0
LINE
  5
500
330
47B
100
AcDbEntity
  8
0
  6
Continuous
 62
     7
370
    25
100
AcDbLine
 10
32.3047030526
 20
39.7010361183
 30
0.0
 11
45.3047030526
 21
39.7010361183
 31
0.0
  0
LINE
  5
501
330
47B
100
AcDbEntity
  8
0
  6
Continuous
 62
     7
370
    25
100
AcDbLine
 10
32.3047030526
 20
20.7010361183
 30
0.0
 11
32.3047030526
 21
39.7010361183
 31
0.0
  0
LINE
  5
502
330
47B
100
AcDbEntity
  8
0
  6
Continuous
 62
     7
370
    25
100
AcDbLine
 10
32.3047030526
 20
20.7010361183
 30
0.0
 11
45.3047030526
 21
20.7010361183
 31
0.0
  0
LINE
  5
503
330
47B
100
AcDbEntity
  8
0
  6
Continuous
 62
     7
370
    25
100
AcDbLine
 10
3.175
 20
11.36
 30
0.0
 11
6.45
 21
11.36
 31
0.0
  0
LINE
  5
504
330
47B
100
AcDbEntity
  8
0
  6
Continuous
 62
     7
370
    25
100
AcDbLine
 10
3.175
 20
22.59
 30
0.0
 11
3.175
 21
11.36
 31
0.0
  0
LINE
  5
505
330
47B
100
AcDbEntity
  8
0
  6
Continuous
 62
     7
370
    25
100
AcDbLine
 10
6.45
 20
22.59
 30
0.0
 11
3.175
 21
22.59
 31
0.0
  0
LINE
  5
506
330
47B
100
AcDbEntity
  8
0
  6
Continuous
 62
     7
370
    25
100
AcDbLine
 10
6.45
 20
30.41
 30
0.0
 11
6.45
 21
22.59
 31
0.0
  0
LINE
  5
507
330
47B
100
AcDbEntity
  8
0
  6
Continuous
 62
     7
370
    25
100
AcDbLine
 10
3.175
 20
30.41
 30
0.0
 11
6.45
 21
30.41
 31
0.0
  0
LINE
  5
508
330
47B
100
AcDbEntity
  8
0
  6
Continuous
 62
     7
370
    25
100
AcDbLine
 10
3.175
 20
41.64
 30
0.0
 11
3.175
 21
30.41
 31
0.0
  0
LINE
  5
509
330
47B
100
AcDbEntity
  8
0
  6
Continuous
 62
     7
370
    25
100
AcDbLine
 10
6.45
 20
41.64
 30
0.0
 11
3.175
 21
41.64
 31
0.0
  0
LINE
  5
50A
330
47B
100
AcDbEntity
  8
0
  6
Continuous
 62
     7
370
    25
100
AcDbLine
 10
6.45
 20
49.46
 30
0.0
 11
6.45
 21
41.64
 31
0.0
  0
LINE
  5
50B
330
47B
100
AcDbEntity
  8
0
  6
Continuous
 62
     7
370
    25
100
AcDbLine
 10
3.175
 20
49.46
 30
0.0
 11
6.45
 21
49.46
 31
0.0
  0
LINE
  5
50C
330
47B
100
AcDbEntity
  8
0
  6
Continuous
 62
     7
370
    25
100
AcDbLine
 10
3.175
 20
60.69
 30
0.0
 11
3.175
 21
49.46
 31
0.0
  0
LINE
  5
50D
330
47B
100
AcDbEntity
  8
0
  6
Continuous
 62
     7
370
    25
100
AcDbLine
 10
6.45
 20
60.69
 30
0.0
 11
3.175
 21
60.69
 31
0.0
  0
LINE
  5
50E
330
47B
100
AcDbEntity
  8
0
  6
Continuous
 62
     7
370
    25
100
AcDbLine
 10
6.45
 20
68.51
 30
0.0
 11
6.45
 21
60.69
 31
0.0
  0
LINE
  5
50F
330
47B
100
AcDbEntity
  8
0
  6
Continuous
 62
     7
370
    25
100
AcDbLine
 10
3.175
 20
68.51
 30
0.0
 11
6.45
 21
68.51
 31
0.0
  0
LINE
  5
510
330
47B
100
AcDbEntity
  8
0
  6
Continuous
 62
     7
370
    25
100
AcDbLine
 10
3.175
 20
79.74
 30
0.0
 11
3.175
 21
68.51
 31
0.0
  0
LINE
  5
511
330
47B
100
AcDbEntity
  8
0
  6
Continuous
 62
     7
370
    25
100
AcDbLine
 10
6.45
 20
79.74
 30
0.0
 11
3.175
 21
79.74
 31
0.0
  0
LINE
  5
512
330
47B
100
AcDbEntity
  8
0
  6
Continuous
 62
     7
370
    25
100
AcDbLine
 10
6.45
 20
87.56
 30
0.0
 11
6.45
 21
79.74
 31
0.0
  0
LINE
  5
513
330
47B
100
AcDbEntity
  8
0
  6
Continuous
 62
     7
370
    25
100
AcDbLine
 10
3.175
 20
87.56
 30
0.0
 11
6.45
 21
87.56
 31
0.0
  0
LINE
  5
514
330
47B
100
AcDbEntity
  8
0
  6
Continuous
 62
     7
370
    25
100
AcDbLine
 10
3.175
 20
90.0
 30
0.0
 11
3.175
 21
87.56
 31
0.0
  0
LINE
  5
515
330
47B
100
AcDbEntity
  8
0
  6
Continuous
 62
     7
370
    25
100
AcDbLine
 10
343.175
 20
90.0
 30
0.0
 11
3.175
 21
90.0
 31
0.0
  0
LINE
  5
516
330
47B
100
AcDbEntity
  8
0
  6
Continuous
 62
     7
370
    25
100
AcDbLine
 10
343.175
 20
87.56
 30
0.0
 11
343.175
 21
90.0
 31
0.0
  0
LINE
  5
517
330
47B
100
AcDbEntity
  8
0
  6
Continuous
 62
     7
370
    25
100
AcDbLine
 10
343.175
 20
87.56
 30
0.0
 11
339.9
 21
87.56
 31
0.0
  0
LINE
  5
518
330
47B
100
AcDbEntity
  8
0
  6
Continuous
 62
     7
370
    25
100
AcDbLine
 10
339.9
 20
87.56
 30
0.0
 11
339.9
 21
79.74
 31
0.0
  0
LINE
  5
519
330
47B
100
AcDbEntity
  8
0
  6
Continuous
 62
     7
370
    25
100
AcDbLine
 10
339.9
 20
79.74
 30
0.0
 11
343.175
 21
79.74
 31
0.0
  0
LINE
  5
51A
330
47B
100
AcDbEntity
  8
0
  6
Continuous
 62
     7
370
    25
100
AcDbLine
 10
343.175
 20
68.51
 30
0.0
 11
343.175
 21
79.74
 31
0.0
  0
LINE
  5
51B
330
47B
100
AcDbEntity
  8
0
  6
Continuous
 62
     7
370
    25
100
AcDbLine
 10
343.175
 20
68.51
 30
0.0
 11
339.9
 21
68.51
 31
0.0
  0
LINE
  5
51C
330
47B
100
AcDbEntity
  8
0
  6
Continuous
 62
     7
370
    25
100
AcDbLine
 10
339.9
 20
68.51
 30
0.0
 11
339.9
 21
60.69
 31
0.0
  0
LINE
  5
51D
330
47B
100
AcDbEntity
  8
0
  6
Continuous
 62
     7
370
    25
100
AcDbLine
 10
339.9
 20
60.69
 30
0.0
 11
343.175
 21
60.69
 31
0.0
  0
LINE
  5
51E
330
47B
100
AcDbEntity
  8
0
  6
Continuous
 62
     7
370
    25
100
AcDbLine
 10
343.175
 20
49.46
 30
0.0
 11
343.175
 21
60.69
 31
0.0
  0
LINE
  5
51F
330
47B
100
AcDbEntity
  8
0
  6
Continuous
 62
     7
370
    25
100
AcDbLine
 10
343.175
 20
49.46
 30
0.0
 11
339.9
 21
49.46
 31
0.0
  0
LINE
  5
520
330
47B
100
AcDbEntity
  8
0
  6
Continuous
 62
     7
370
    25
100
AcDbLine
 10
339.9
 20
49.46
 30
0.0
 11
339.9
 21
41.64
 31
0.0
  0
LINE
  5
521
330
47B
100
AcDbEntity
  8
0
  6
Continuous
 62
     7
370
    25
100
AcDbLine
 10
339.9
 20
41.64
 30
0.0
 11
343.175
 21
41.64
 31
0.0
  0
LINE
  5
522
330
47B
100
AcDbEntity
  8
0
  6
Continuous
 62
     7
370
    25
100
AcDbLine
 10
343.175
 20
30.41
 30
0.0
 11
343.175
 21
41.64
 31
0.0
  0
LINE
  5
523
330
47B
100
AcDbEntity
  8
0
  6
Continuous
 62
     7
370
    25
100
AcDbLine
 10
343.175
 20
30.41
 30
0.0
 11
339.9
 21
30.41
 31
0.0
  0
LINE
  5
524
330
47B
100
AcDbEntity
  8
0
  6
Continuous
 62
     7
370
    25
100
AcDbLine
 10
339.9
 20
30.41
 30
0.0
 11
339.9
 21
22.59
 31
0.0
  0
LINE
  5
525
330
47B
100
AcDbEntity
  8
0
  6
Continuous
 62
     7
370
    25
100
AcDbLine
 10
339.9
 20
22.59
 30
0.0
 11
343.175
 21
22.59
 31
0.0
  0
LINE
  5
526
330
47B
100
AcDbEntity
  8
0
  6
Continuous
 62
     7
370
    25
100
AcDbLine
 10
343.175
 20
11.36
 30
0.0
 11
343.175
 21
22.59
 31
0.0
  0
LINE
  5
527
330
47B
100
AcDbEntity
  8
0
  6
Continuous
 62
     7
370
    25
100
AcDbLine
 10
343.175
 20
11.36
 30
0.0
 11
339.9
 21
11.36
 31
0.0
  0
LINE
  5
528
330
47B
100
AcDbEntity
  8
0
  6
Continuous
 62
     7
370
    25
100
AcDbLine
 10
339.9
 20
11.36
 30
0.0
 11
339.9
 21
3.54
 31
0.0
  0
LINE
  5
529
330
47B
100
AcDbEntity
  8
0
  6
Continuous
 62
     7
370
    25
100
AcDbLine
 10
339.9
 20
3.54
 30
0.0
 11
343.175
 21
3.54
 31
0.0
  0
LINE
  5
52A
330
47B
100
AcDbEntity
  8
0
  6
Continuous
 62
     7
370
    25
100
AcDbLine
 10
343.175
 20
0.0
 30
0.0
 11
343.175
 21
3.54
 31
0.0
  0
LINE
  5
52B
330
47B
100
AcDbEntity
  8
0
  6
Continuous
 62
     7
370
    25
100
AcDbLine
 10
340.635
 20
0.0
 30
0.0
 11
343.175
 21
0.0
 31
0.0
  0
LINE
  5
52C
330
47B
100
AcDbEntity
  8
0
  6
Continuous
 62
     7
370
    25
100
AcDbLine
 10
340.635
 20
-3.175
 30
0.0
 11
340.635
 21
0.0
 31
0.0
  0
LINE
  5
52D
330
47B
100
AcDbEntity
  8
0
  6
Continuous
 62
     7
370
    25
100
AcDbLine
 10
340.635
 20
-3.175
 30
0.0
 11
333.015
 21
-3.175
 31
0.0
  0
LINE
  5
52E
330
47B
100
AcDbEntity
  8
0
  6
Continuous
 62
     7
370
    25
100
AcDbLine
 10
333.015
 20
-3.175
 30
0.0
 11
333.015
 21
0.0
 31
0.0
  0
LINE
  5
52F
330
47B
100
AcDbEntity
  8
0
  6
Continuous
 62
     7
370
    25
100
AcDbLine
 10
321.585
 20
0.0
 30
0.0
 11
333.015
 21
0.0
 31
0.0
  0
LINE
  5
530
330
47B
100
AcDbEntity
  8
0
  6
Continuous
 62
     7
370
    25
100
AcDbLine
 10
321.585
 20
-3.175
 30
0.0
 11
321.585
 21
0.0
 31
0.0
  0
LINE
  5
531
330
47B
100
AcDbEntity
  8
0
  6
Continuous
 62
     7
370
    25
100
AcDbLine
 10
321.585
 20
-3.175
 30
0.0
 11
313.965
 21
-3.175
 31
0.0
  0
LINE
  5
532
330
47B
100
AcDbEntity
  8
0
  6
Continuous
 62
     7
370
    25
100
AcDbLine
 10
313.965
 20
-3.175
 30
0.0
 11
313.965
 21
0.0
 31
0.0
  0
LINE
  5
533
330
47B
100
AcDbEntity
  8
0
  6
Continuous
 62
     7
370
    25
100
AcDbLine
 10
302.535
 20
0.0
 30
0.0
 11
313.965
 21
0.0
 31
0.0
  0
LINE
  5
534
330
47B
100
AcDbEntity
  8
0
  6
Continuous
 62
     7
370
    25
100
AcDbLine
 10
302.535
 20
-3.175
 30
0.0
 11
302.535
 21
0.0
 31
0.0
  0
LINE
  5
535
330
47B
100
AcDbEntity
  8
0
  6
Continuous
 62
     7
370
    25
100
AcDbLine
 10
302.535
 20
-3.175
 30
0.0
 11
294.915
 21
-3.175
 31
0.0
  0
LINE
  5
536
330
47B
100
AcDbEntity
  8
0
  6
Continuous
 62
     7
370
    25
100
AcDbLine
 10
294.915
 20
-3.175
 30
0.0
 11
294.915
 21
0.0
 31
0.0
  0
LINE
  5
537
330
47B
100
AcDbEntity
  8
0
  6
Continuous
 62
     7
370
    25
100
AcDbLine
 10
283.485
 20
0.0
 30
0.0
 11
294.915
 21
0.0
 31
0.0
  0
LINE
  5
538
330
47B
100
AcDbEntity
  8
0
  6
Continuous
 62
     7
370
    25
100
AcDbLine
 10
283.485
 20
-3.175
 30
0.0
 11
283.485
 21
0.0
 31
0.0
  0
LINE
  5
539
330
47B
100
AcDbEntity
  8
0
  6
Continuous
 62
     7
370
    25
100
AcDbLine
 10
283.485
 20
-3.175
 30
0.0
 11
275.865
 21
-3.175
 31
0.0
  0
LINE
  5
53A
330
47B
100
AcDbEntity
  8
0
  6
Continuous
 62
     7
370
    25
100
AcDbLine
 10
275.865
 20
-3.175
 30
0.0
 11
275.865
 21
0.0
 31
0.0
  0
LINE
  5
53B
330
47B
100
AcDbEntity
  8
0
  6
Continuous
 62
     7
370
    25
100
AcDbLine
 10
264.435
 20
0.0
 30
0.0
 11
275.865
 21
0.0
 31
0.0
  0
LINE
  5
53C
330
47B
100
AcDbEntity
  8
0
  6
Continuous
 62
     7
370
    25
100
AcDbLine
 10
264.435
 20
-3.175
 30
0.0
 11
264.435
 21
0.0
 31
0.0
  0
LINE
  5
53D
330
47B
100
AcDbEntity
  8
0
  6
Continuous
 62
     7
370
    25
100
AcDbLine
 10
264.435
 20
-3.175
 30
0.0
 11
256.815
 21
-3.175
 31
0.0
  0
LINE
  5
53E
330
47B
100
AcDbEntity
  8
0
  6
Continuous
 62
     7
370
    25
100
AcDbLine
 10
256.815
 20
-3.175
 30
0.0
 11
256.815
 21
0.0
 31
0.0
  0
LINE
  5
53F
330
47B
100
AcDbEntity
  8
0
  6
Continuous
 62
     7
370
    25
100
AcDbLine
 10
245.385
 20
0.0
 30
0.0
 11
256.815
 21
0.0
 31
0.0
  0
LINE
  5
540
330
47B
100
AcDbEntity
  8
0
  6
Continuous
 62
     7
370
    25
100
AcDbLine
 10
245.385
 20
-3.175
 30
0.0
 11
245.385
 21
0.0
 31
0.0
  0
LINE
  5
541
330
47B
100
AcDbEntity
  8
0
  6
Continuous
 62
     7
370
    25
100
AcDbLine
 10
245.385
 20
-3.175
 30
0.0
 11
237.765
 21
-3.175
 31
0.0
  0
LINE
  5
542
330
47B
100
AcDbEntity
  8
0
  6
Continuous
 62
     7
370
    25
100
AcDbLine
 10
237.765
 20
-3.175
 30
0.0
 11
237.765
 21
0.0
 31
0.0
  0
LINE
  5
543
330
47B
100
AcDbEntity
  8
0
  6
Continuous
 62
     7
370
    25
100
AcDbLine
 10
226.335
 20
0.0
 30
0.0
 11
237.765
 21
0.0
 31
0.0
  0
LINE
  5
544
330
47B
100
AcDbEntity
  8
0
  6
Continuous
 62
     7
370
    25
100
AcDbLine
 10
226.335
 20
-3.175
 30
0.0
 11
226.335
 21
0.0
 31
0.0
  0
LINE
  5
545
330
47B
100
AcDbEntity
  8
0
  6
Continuous
 62
     7
370
    25
100
AcDbLine
 10
226.335
 20
-3.175
 30
0.0
 11
218.715
 21
-3.175
 31
0.0
  0
LINE
  5
546
330
47B
100
AcDbEntity
  8
0
  6
Continuous
 62
     7
370
    25
100
AcDbLine
 10
218.715
 20
-3.175
 30
0.0
 11
218.715
 21
0.0
 31
0.0
  0
LINE
  5
547
330
47B
100
AcDbEntity
  8
0
  6
Continuous
 62
     7
370
    25
100
AcDbLine
 10
207.285
 20
0.0
 30
0.0
 11
218.715
 21
0.0
 31
0.0
  0
LINE
  5
548
330
47B
100
AcDbEntity
  8
0
  6
Continuous
 62
     7
370
    25
100
AcDbLine
 10
207.285
 20
-3.175
 30
0.0
 11
207.285
 21
0.0
 31
0.0
  0
LINE
  5
549
330
47B
100
AcDbEntity
  8
0
  6
Continuous
 62
     7
370
    25
100
AcDbLine
 10
207.285
 20
-3.175
 30
0.0
 11
199.665
 21
-3.175
 31
0.0
  0
LINE
  5
54A
330
47B
100
AcDbEntity
  8
0
  6
Continuous
 62
     7
370
    25
100
AcDbLine
 10
199.665
 20
-3.175
 30
0.0
 11
199.665
 21
0.0
 31
0.0
  0
LINE
  5
54B
330
47B
100
AcDbEntity
  8
0
  6
Continuous
 62
     7
370
    25
100
AcDbLine
 10
188.235
 20
0.0
 30
0.0
 11
199.665
 21
0.0
 31
0.0
  0
LINE
  5
54C
330
47B
100
AcDbEntity
  8
0
  6
Continuous
 62
     7
370
    25
100
AcDbLine
 10
188.235
 20
-3.175
 30
0.0
 11
188.235
 21
0.0
 31
0.0
  0
LINE
  5
54D
330
47B
100
AcDbEntity
  8
0
  6
Continuous
 62
     7
370
    25
100
AcDbLine
 10
188.235
 20
-3.175
 30
0.0
 11
180.615
 21
-3.175
 31
0.0
  0
LINE
  5
54E
330
47B
100
AcDbEntity
  8
0
  6
Continuous
 62
     7
370
    25
100
AcDbLine
 10
180.615
 20
-3.175
 30
0.0
 11
180.615
 21
0.0
 31
0.0
  0
LINE
  5
54F
330
47B
100
AcDbEntity
  8
0
  6
Continuous
 62
     7
370
    25
100
AcDbLine
 10
169.185
 20
0.0
 30
0.0
 11
180.615
 21
0.0
 31
0.0
  0
LINE
  5
550
330
47B
100
AcDbEntity
  8
0
  6
Continuous
 62
     7
370
    25
100
AcDbLine
 10
169.185
 20
-3.175
 30
0.0
 11
169.185
 21
0.0
 31
0.0
  0
LINE
  5
551
330
47B
100
AcDbEntity
  8
0
  6
Continuous
 62
     7
370
    25
100
AcDbLine
 10
169.185
 20
-3.175
 30
0.0
 11
161.565
 21
-3.175
 31
0.0
  0
LINE
  5
552
330
47B
100
AcDbEntity
  8
0
  6
Continuous
 62
     7
370
    25
100
AcDbLine
 10
161.565
 20
-3.175
 30
0.0
 11
161.565
 21
0.0
 31
0.0
  0
LINE
  5
553
330
47B
100
AcDbEntity
  8
0
  6
Continuous
 62
     7
370
    25
100
AcDbLine
 10
150.135
 20
0.0
 30
0.0
 11
161.565
 21
0.0
 31
0.0
  0
LINE
  5
554
330
47B
100
AcDbEntity
  8
0
  6
Continuous
 62
     7
370
    25
100
AcDbLine
 10
150.135
 20
-3.175
 30
0.0
 11
150.135
 21
0.0
 31
0.0
  0
LINE
  5
555
330
47B
100
AcDbEntity
  8
0
  6
Continuous
 62
     7
370
    25
100
AcDbLine
 10
150.135
 20
-3.175
 30
0.0
 11
142.515
 21
-3.175
 31
0.0
  0
LINE
  5
556
330
47B
100
AcDbEntity
  8
0
  6
Continuous
 62
     7
370
    25
100
AcDbLine
 10
142.515
 20
-3.175
 30
0.0
 11
142.515
 21
0.0
 31
0.0
  0
LINE
  5
557
330
47B
100
AcDbEntity
  8
0
  6
Continuous
 62
     7
370
    25
100
AcDbLine
 10
131.085
 20
0.0
 30
0.0
 11
142.515
 21
0.0
 31
0.0
  0
LINE
  5
558
330
47B
100
AcDbEntity
  8
0
  6
Continuous
 62
     7
370
    25
100
AcDbLine
 10
131.085
 20
-3.175
 30
0.0
 11
131.085
 21
0.0
 31
0.0
  0
LINE
  5
559
330
47B
100
AcDbEntity
  8
0
  6
Continuous
 62
     7
370
    25
100
AcDbLine
 10
131.085
 20
-3.175
 30
0.0
 11
123.465
 21
-3.175
 31
0.0
  0
LINE
  5
55A
330
47B
100
AcDbEntity
  8
0
  6
Continuous
 62
     7
370
    25
100
AcDbLine
 10
123.465
 20
-3.175
 30
0.0
 11
123.465
 21
0.0
 31
0.0
  0
LINE
  5
55B
330
47B
100
AcDbEntity
  8
0
  6
Continuous
 62
     7
370
    25
100
AcDbLine
 10
112.035
 20
0.0
 30
0.0
 11
123.465
 21
0.0
 31
0.0
  0
LINE
  5
55C
330
47B
100
AcDbEntity
  8
0
  6
Continuous
 62
     7
370
    25
100
AcDbLine
 10
112.035
 20
-3.175
 30
0.0
 11
112.035
 21
0.0
 31
0.0
  0
LINE
  5
55D
330
47B
100
AcDbEntity
  8
0
  6
Continuous
 62
     7
370
    25
100
AcDbLine
 10
112.035
 20
-3.175
 30
0.0
 11
104.415
 21
-3.175
 31
0.0
  0
LINE
  5
55E
330
47B
100
AcDbEntity
  8
0
  6
Continuous
 62
     7
370
    25
100
AcDbLine
 10
104.415
 20
-3.175
 30
0.0
 11
104.415
 21
0.0
 31
0.0
  0
LINE
  5
55F
330
47B
100
AcDbEntity
  8
0
  6
Continuous
 62
     7
370
    25
100
AcDbLine
 10
92.985
 20
0.0
 30
0.0
 11
104.415
 21
0.0
 31
0.0
  0
LINE
  5
560
330
47B
100
AcDbEntity
  8
0
  6
Continuous
 62
     7
370
    25
100
AcDbLine
 10
92.985
 20
-3.175
 30
0.0
 11
92.985
 21
0.0
 31
0.0
  0
LINE
  5
561
330
47B
100
AcDbEntity
  8
0
  6
Continuous
 62
     7
370
    25
100
AcDbLine
 10
92.985
 20
-3.175
 30
0.0
 11
85.365
 21
-3.175
 31
0.0
  0
LINE
  5
562
330
47B
100
AcDbEntity
  8
0
  6
Continuous
 62
     7
370
    25
100
AcDbLine
 10
85.365
 20
-3.175
 30
0.0
 11
85.365
 21
0.0
 31
0.0
  0
LINE
  5
563
330
47B
100
AcDbEntity
  8
0
  6
Continuous
 62
     7
370
    25
100
AcDbLine
 10
73.935
 20
0.0
 30
0.0
 11
85.365
 21
0.0
 31
0.0
  0
LINE
  5
564
330
47B
100
AcDbEntity
  8
0
  6
Continuous
 62
     7
370
    25
100
AcDbLine
 10
73.935
 20
-3.175
 30
0.0
 11
73.935
 21
0.0
 31
0.0
  0
LINE
  5
565
330
47B
100
AcDbEntity
  8
0
  6
Continuous
 62
     7
370
    25
100
AcDbLine
 10
73.935
 20
-3.175
 30
0.0
 11
66.315
 21
-3.175
 31
0.0
  0
LINE
  5
566
330
47B
100
AcDbEntity
  8
0
  6
Continuous
 62
     7
370
    25
100
AcDbLine
 10
66.315
 20
-3.175
 30
0.0
 11
66.315
 21
0.0
 31
0.0
  0
LINE
  5
567
330
47B
100
AcDbEntity
  8
0
  6
Continuous
 62
     7
370
    25
100
AcDbLine
 10
54.885
 20
0.0
 30
0.0
 11
66.315
 21
0.0
 31
0.0
  0
LINE
  5
568
330
47B
100
AcDbEntity
  8
0
  6
Continuous
 62
     7
370
    25
100
AcDbLine
 10
54.885
 20
-3.175
 30
0.0
 11
54.885
 21
0.0
 31
0.0
  0
LINE
  5
569
330
47B
100
AcDbEntity
  8
0
  6
Continuous
 62
     7
370
    25
100
AcDbLine
 10
54.885
 20
-3.175
 30
0.0
 11
47.265
 21
-3.175
 31
0.0
  0
LINE
  5
56A
330
47B
100
AcDbEntity
  8
0
  6
Continuous
 62
     7
370
    25
100
AcDbLine
 10
47.265
 20
-3.175
 30
0.0
 11
47.265
 21
0.0
 31
0.0
  0
LINE
  5
56B
330
47B
100
AcDbEntity
  8
0
  6
Continuous
 62
     7
370
    25
100
AcDbLine
 10
35.835
 20
0.0
 30
0.0
 11
47.265
 21
0.0
 31
0.0
  0
LINE
  5
56C
330
47B
100
AcDbEntity
  8
0
  6
Continuous
 62
     7
370
    25
100
AcDbLine
 10
35.835
 20
-3.175
 30
0.0
 11
35.835
 21
0.0
 31
0.0
  0
LINE
  5
56D
330
47B
100
AcDbEntity
  8
0
  6
Continuous
 62
     7
370
    25
100
AcDbLine
 10
35.835
 20
-3.175
 30
0.0
 11
28.215
 21
-3.175
 31
0.0
  0
LINE
  5
56E
330
47B
100
AcDbEntity
  8
0
  6
Continuous
 62
     7
370
    25
100
AcDbLine
 10
28.215
 20
-3.175
 30
0.0
 11
28.215
 21
0.0
 31
0.0
  0
LINE
  5
56F
330
47B
100
AcDbEntity
  8
0
  6
Continuous
 62
     7
370
    25
100
AcDbLine
 10
16.785
 20
0.0
 30
0.0
 11
28.215
 21
0.0
 31
0.0
  0
LINE
  5
570
330
47B
100
AcDbEntity
  8
0
  6
Continuous
 62
     7
370
    25
100
AcDbLine
 10
16.785
 20
-3.175
 30
0.0
 11
16.785
 21
0.0
 31
0.0
  0
LINE
  5
571
330
47B
100
AcDbEntity
  8
0
  6
Continuous
 62
     7
370
    25
100
AcDbLine
 10
16.785
 20
-3.175
 30
0.0
 11
9.165
 21
-3.175
 31
0.0
  0
LINE
  5
572
330
47B
100
AcDbEntity
  8
0
  6
Continuous
 62
     7
370
    25
100
AcDbLine
 10
9.165
 20
-3.175
 30
0.0
 11
9.165
 21
0.0
 31
0.0
  0
LINE
  5
573
330
47B
100
AcDbEntity
  8
0
  6
Continuous
 62
     7
370
    25
100
AcDbLine
 10
3.175
 20
0.0
 30
0.0
 11
9.165
 21
0.0
 31
0.0
  0
LINE
  5
574
330
47B
100
AcDbEntity
  8
0
  6
Continuous
 62
     7
370
    25
100
AcDbLine
 10
3.175
 20
3.54
 30
0.0
 11
3.175
 21
0.0
 31
0.0
  0
LINE
  5
575
330
47B
100
AcDbEntity
  8
0
  6
Continuous
 62
     7
370
    25
100
AcDbLine
 10
6.45
 20
3.54
 30
0.0
 11
3.175
 21
3.54
 31
0.0
  0
LINE
  5
576
330
47B
100
AcDbEntity
  8
0
  6
Continuous
 62
     7
370
    25
100
AcDbLine
 10
6.45
 20
11.36
 30
0.0
 11
6.45
 21
3.54
 31
0.0
  0
VIEWPORT
  5
66F
330
47B
100
AcDbEntity
  8
0
100
AcDbViewport
 10
0.0
 20
0.0
 30
0.0
 40
205.6
 41
156.0
 68
     1
 69
     1
 12
163.65
 22
43.4125
 13
0.0
 23
0.0
 14
10.0
 24
10.0
 15
10.0
 25
10.0
 16
0.0
 26
0.0
 36
1.0
 17
0.0
 27
0.0
 37
0.0
 42
50.0
 43
0.0
 44
0.0
 45
268.0506420233
 50
0.0
 51
0.0
 72
   100
 90
   557152
  1

281
     0
 71
     1
 74
     0
110
0.0
120
0.0
130
0.0
111
1.0
121
0.0
131
0.0
112
0.0
122
1.0
132
0.0
 79
     0
146
0.0
  0
MTEXT
  5
67A
330
47B
100
AcDbEntity
  8
0
  6
Continuous
 62
     7
100
AcDbMText
 10
3.175
 20
-4.1945663917
 30
0.0
 40
4.83362
 41
0.0
 71
     1
 72
     1
  1
SOLIDWORKS Educational Product.
  7
SLDTEXTSTYLE0
 73
     1
 44
1.0
  0
MTEXT
  5
67B
330
47B
100
AcDbEntity
  8
0
  6
Continuous
 62
     7
100
AcDbMText
 10
3.175
 20
-11.4449963917
 30
0.0
 40
4.83362
 41
0.0
 71
     1
 72
     1
  1
For Instructional Use Only.
  7
SLDTEXTSTYLE0
 73
     1
 44
1.0
  0
ENDBLK
  5
47E
330
47B
100
AcDbEntity
  8
0
100
AcDbBlockEnd
  0
BLOCK
  5
579
330
577
100
AcDbEntity
  8
0
100
AcDbBlockBegin
  2
*Paper_Space2
 70
     0
 10
0.0
 20
0.0
 30
0.0
  3
*Paper_Space2
  1

  0
LINE
  5
5F3
330
577
100
AcDbEntity
  8
0
  6
Continuous
 62
     7
370
    25
100
AcDbLine
 10
327.66
 20
-3.175
 30
0.0
 11
327.66
 21
0.0
 31
0.0
  0
LINE
  5
5F4
330
577
100
AcDbEntity
  8
0
  6
Continuous
 62
     7
370
    25
100
AcDbLine
 10
327.66
 20
-3.175
 30
0.0
 11
320.04
 21
-3.175
 31
0.0
  0
LINE
  5
5F5
330
577
100
AcDbEntity
  8
0
  6
Continuous
 62
     7
370
    25
100
AcDbLine
 10
320.04
 20
-3.175
 30
0.0
 11
320.04
 21
0.0
 31
0.0
  0
LINE
  5
5F6
330
577
100
AcDbEntity
  8
0
  6
Continuous
 62
     7
370
    25
100
AcDbLine
 10
308.61
 20
-3.175
 30
0.0
 11
308.61
 21
0.0
 31
0.0
  0
LINE
  5
5F7
330
577
100
AcDbEntity
  8
0
  6
Continuous
 62
     7
370
    25
100
AcDbLine
 10
308.61
 20
-3.175
 30
0.0
 11
300.99
 21
-3.175
 31
0.0
  0
LINE
  5
5F8
330
577
100
AcDbEntity
  8
0
  6
Continuous
 62
     7
370
    25
100
AcDbLine
 10
300.99
 20
-3.175
 30
0.0
 11
300.99
 21
0.0
 31
0.0
  0
LINE
  5
5F9
330
577
100
AcDbEntity
  8
0
  6
Continuous
 62
     7
370
    25
100
AcDbLine
 10
289.56
 20
-3.175
 30
0.0
 11
289.56
 21
0.0
 31
0.0
  0
LINE
  5
5FA
330
577
100
AcDbEntity
  8
0
  6
Continuous
 62
     7
370
    25
100
AcDbLine
 10
289.56
 20
-3.175
 30
0.0
 11
281.94
 21
-3.175
 31
0.0
  0
LINE
  5
5FB
330
577
100
AcDbEntity
  8
0
  6
Continuous
 62
     7
370
    25
100
AcDbLine
 10
281.94
 20
-3.175
 30
0.0
 11
281.94
 21
0.0
 31
0.0
  0
LINE
  5
5FC
330
577
100
AcDbEntity
  8
0
  6
Continuous
 62
     7
370
    25
100
AcDbLine
 10
270.51
 20
-3.175
 30
0.0
 11
270.51
 21
0.0
 31
0.0
  0
LINE
  5
5FD
330
577
100
AcDbEntity
  8
0
  6
Continuous
 62
     7
370
    25
100
AcDbLine
 10
270.51
 20
-3.175
 30
0.0
 11
262.89
 21
-3.175
 31
0.0
  0
LINE
  5
5FE
330
577
100
AcDbEntity
  8
0
  6
Continuous
 62
     7
370
    25
100
AcDbLine
 10
262.89
 20
-3.175
 30
0.0
 11
262.89
 21
0.0
 31
0.0
  0
LINE
  5
5FF
330
577
100
AcDbEntity
  8
0
  6
Continuous
 62
     7
370
    25
100
AcDbLine
 10
251.46
 20
-3.175
 30
0.0
 11
251.46
 21
0.0
 31
0.0
  0
LINE
  5
600
330
577
100
AcDbEntity
  8
0
  6
Continuous
 62
     7
370
    25
100
AcDbLine
 10
251.46
 20
-3.175
 30
0.0
 11
243.84
 21
-3.175
 31
0.0
  0
LINE
  5
601
330
577
100
AcDbEntity
  8
0
  6
Continuous
 62
     7
370
    25
100
AcDbLine
 10
243.84
 20
-3.175
 30
0.0
 11
243.84
 21
0.0
 31
0.0
  0
LINE
  5
602
330
577
100
AcDbEntity
  8
0
  6
Continuous
 62
     7
370
    25
100
AcDbLine
 10
232.41
 20
-3.175
 30
0.0
 11
232.41
 21
0.0
 31
0.0
  0
LINE
  5
603
330
577
100
AcDbEntity
  8
0
  6
Continuous
 62
     7
370
    25
100
AcDbLine
 10
232.41
 20
-3.175
 30
0.0
 11
224.79
 21
-3.175
 31
0.0
  0
LINE
  5
604
330
577
100
AcDbEntity
  8
0
  6
Continuous
 62
     7
370
    25
100
AcDbLine
 10
224.79
 20
-3.175
 30
0.0
 11
224.79
 21
0.0
 31
0.0
  0
LINE
  5
605
330
577
100
AcDbEntity
  8
0
  6
Continuous
 62
     7
370
    25
100
AcDbLine
 10
213.36
 20
-3.175
 30
0.0
 11
213.36
 21
0.0
 31
0.0
  0
LINE
  5
606
330
577
100
AcDbEntity
  8
0
  6
Continuous
 62
     7
370
    25
100
AcDbLine
 10
213.36
 20
-3.175
 30
0.0
 11
205.74
 21
-3.175
 31
0.0
  0
LINE
  5
607
330
577
100
AcDbEntity
  8
0
  6
Continuous
 62
     7
370
    25
100
AcDbLine
 10
205.74
 20
-3.175
 30
0.0
 11
205.74
 21
0.0
 31
0.0
  0
LINE
  5
608
330
577
100
AcDbEntity
  8
0
  6
Continuous
 62
     7
370
    25
100
AcDbLine
 10
194.31
 20
-3.175
 30
0.0
 11
194.31
 21
0.0
 31
0.0
  0
LINE
  5
609
330
577
100
AcDbEntity
  8
0
  6
Continuous
 62
     7
370
    25
100
AcDbLine
 10
194.31
 20
-3.175
 30
0.0
 11
186.69
 21
-3.175
 31
0.0
  0
LINE
  5
60A
330
577
100
AcDbEntity
  8
0
  6
Continuous
 62
     7
370
    25
100
AcDbLine
 10
186.69
 20
-3.175
 30
0.0
 11
186.69
 21
0.0
 31
0.0
  0
LINE
  5
60B
330
577
100
AcDbEntity
  8
0
  6
Continuous
 62
     7
370
    25
100
AcDbLine
 10
175.26
 20
-3.175
 30
0.0
 11
175.26
 21
0.0
 31
0.0
  0
LINE
  5
60C
330
577
100
AcDbEntity
  8
0
  6
Continuous
 62
     7
370
    25
100
AcDbLine
 10
175.26
 20
-3.175
 30
0.0
 11
167.64
 21
-3.175
 31
0.0
  0
LINE
  5
60D
330
577
100
AcDbEntity
  8
0
  6
Continuous
 62
     7
370
    25
100
AcDbLine
 10
167.64
 20
-3.175
 30
0.0
 11
167.64
 21
0.0
 31
0.0
  0
LINE
  5
60E
330
577
100
AcDbEntity
  8
0
  6
Continuous
 62
     7
370
    25
100
AcDbLine
 10
156.21
 20
-3.175
 30
0.0
 11
156.21
 21
0.0
 31
0.0
  0
LINE
  5
60F
330
577
100
AcDbEntity
  8
0
  6
Continuous
 62
     7
370
    25
100
AcDbLine
 10
156.21
 20
-3.175
 30
0.0
 11
148.59
 21
-3.175
 31
0.0
  0
LINE
  5
610
330
577
100
AcDbEntity
  8
0
  6
Continuous
 62
     7
370
    25
100
AcDbLine
 10
148.59
 20
-3.175
 30
0.0
 11
148.59
 21
0.0
 31
0.0
  0
LINE
  5
611
330
577
100
AcDbEntity
  8
0
  6
Continuous
 62
     7
370
    25
100
AcDbLine
 10
137.16
 20
-3.175
 30
0.0
 11
137.16
 21
0.0
 31
0.0
  0
LINE
  5
612
330
577
100
AcDbEntity
  8
0
  6
Continuous
 62
     7
370
    25
100
AcDbLine
 10
137.16
 20
-3.175
 30
0.0
 11
129.54
 21
-3.175
 31
0.0
  0
LINE
  5
613
330
577
100
AcDbEntity
  8
0
  6
Continuous
 62
     7
370
    25
100
AcDbLine
 10
129.54
 20
-3.175
 30
0.0
 11
129.54
 21
0.0
 31
0.0
  0
LINE
  5
614
330
577
100
AcDbEntity
  8
0
  6
Continuous
 62
     7
370
    25
100
AcDbLine
 10
118.11
 20
-3.175
 30
0.0
 11
118.11
 21
0.0
 31
0.0
  0
LINE
  5
615
330
577
100
AcDbEntity
  8
0
  6
Continuous
 62
     7
370
    25
100
AcDbLine
 10
118.11
 20
-3.175
 30
0.0
 11
110.49
 21
-3.175
 31
0.0
  0
LINE
  5
616
330
577
100
AcDbEntity
  8
0
  6
Continuous
 62
     7
370
    25
100
AcDbLine
 10
110.49
 20
-3.175
 30
0.0
 11
110.49
 21
0.0
 31
0.0
  0
LINE
  5
617
330
577
100
AcDbEntity
  8
0
  6
Continuous
 62
     7
370
    25
100
AcDbLine
 10
99.06
 20
-3.175
 30
0.0
 11
99.06
 21
0.0
 31
0.0
  0
LINE
  5
618
330
577
100
AcDbEntity
  8
0
  6
Continuous
 62
     7
370
    25
100
AcDbLine
 10
99.06
 20
-3.175
 30
0.0
 11
91.44
 21
-3.175
 31
0.0
  0
LINE
  5
619
330
577
100
AcDbEntity
  8
0
  6
Continuous
 62
     7
370
    25
100
AcDbLine
 10
91.44
 20
-3.175
 30
0.0
 11
91.44
 21
0.0
 31
0.0
  0
LINE
  5
61A
330
577
100
AcDbEntity
  8
0
  6
Continuous
 62
     7
370
    25
100
AcDbLine
 10
80.01
 20
-3.175
 30
0.0
 11
80.01
 21
0.0
 31
0.0
  0
LINE
  5
61B
330
577
100
AcDbEntity
  8
0
  6
Continuous
 62
     7
370
    25
100
AcDbLine
 10
80.01
 20
-3.175
 30
0.0
 11
72.39
 21
-3.175
 31
0.0
  0
LINE
  5
61C
330
577
100
AcDbEntity
  8
0
  6
Continuous
 62
     7
370
    25
100
AcDbLine
 10
72.39
 20
-3.175
 30
0.0
 11
72.39
 21
0.0
 31
0.0
  0
LINE
  5
61D
330
577
100
AcDbEntity
  8
0
  6
Continuous
 62
     7
370
    25
100
AcDbLine
 10
60.96
 20
-3.175
 30
0.0
 11
60.96
 21
0.0
 31
0.0
  0
LINE
  5
61E
330
577
100
AcDbEntity
  8
0
  6
Continuous
 62
     7
370
    25
100
AcDbLine
 10
60.96
 20
-3.175
 30
0.0
 11
53.34
 21
-3.175
 31
0.0
  0
LINE
  5
61F
330
577
100
AcDbEntity
  8
0
  6
Continuous
 62
     7
370
    25
100
AcDbLine
 10
53.34
 20
-3.175
 30
0.0
 11
53.34
 21
0.0
 31
0.0
  0
LINE
  5
620
330
577
100
AcDbEntity
  8
0
  6
Continuous
 62
     7
370
    25
100
AcDbLine
 10
41.91
 20
-3.175
 30
0.0
 11
41.91
 21
0.0
 31
0.0
  0
LINE
  5
621
330
577
100
AcDbEntity
  8
0
  6
Continuous
 62
     7
370
    25
100
AcDbLine
 10
41.91
 20
-3.175
 30
0.0
 11
34.29
 21
-3.175
 31
0.0
  0
LINE
  5
622
330
577
100
AcDbEntity
  8
0
  6
Continuous
 62
     7
370
    25
100
AcDbLine
 10
34.29
 20
-3.175
 30
0.0
 11
34.29
 21
0.0
 31
0.0
  0
LINE
  5
623
330
577
100
AcDbEntity
  8
0
  6
Continuous
 62
     7
370
    25
100
AcDbLine
 10
22.86
 20
-3.175
 30
0.0
 11
22.86
 21
0.0
 31
0.0
  0
LINE
  5
624
330
577
100
AcDbEntity
  8
0
  6
Continuous
 62
     7
370
    25
100
AcDbLine
 10
22.86
 20
-3.175
 30
0.0
 11
15.24
 21
-3.175
 31
0.0
  0
LINE
  5
625
330
577
100
AcDbEntity
  8
0
  6
Continuous
 62
     7
370
    25
100
AcDbLine
 10
15.24
 20
-3.175
 30
0.0
 11
15.24
 21
0.0
 31
0.0
  0
LINE
  5
626
330
577
100
AcDbEntity
  8
0
  6
Continuous
 62
     7
370
    25
100
AcDbLine
 10
3.81
 20
-3.175
 30
0.0
 11
3.81
 21
0.0
 31
0.0
  0
LINE
  5
627
330
577
100
AcDbEntity
  8
0
  6
Continuous
 62
     7
370
    25
100
AcDbLine
 10
3.81
 20
-3.175
 30
0.0
 11
-3.81
 21
-3.175
 31
0.0
  0
LINE
  5
628
330
577
100
AcDbEntity
  8
0
  6
Continuous
 62
     7
370
    25
100
AcDbLine
 10
-3.81
 20
-3.175
 30
0.0
 11
-3.81
 21
0.0
 31
0.0
  0
LINE
  5
629
330
577
100
AcDbEntity
  8
0
  6
Continuous
 62
     7
370
    25
100
AcDbLine
 10
139.3589623553
 20
4.5530431755
 30
0.0
 11
180.3589623553
 21
4.5530431755
 31
0.0
  0
LINE
  5
62A
330
577
100
AcDbEntity
  8
0
  6
Continuous
 62
     7
370
    25
100
AcDbLine
 10
180.3589623553
 20
47.5530431755
 30
0.0
 11
139.3589623553
 21
47.5530431755
 31
0.0
  0
LINE
  5
62B
330
577
100
AcDbEntity
  8
0
  6
Continuous
 62
     7
370
    25
100
AcDbLine
 10
-6.35
 20
90.0
 30
0.0
 11
-6.35
 21
87.46
 31
0.0
  0
LINE
  5
62C
330
577
100
AcDbEntity
  8
0
  6
Continuous
 62
     7
370
    25
100
AcDbLine
 10
333.65
 20
90.0
 30
0.0
 11
-6.35
 21
90.0
 31
0.0
  0
LINE
  5
62D
330
577
100
AcDbEntity
  8
0
  6
Continuous
 62
     7
370
    25
100
AcDbLine
 10
333.65
 20
87.46
 30
0.0
 11
333.65
 21
90.0
 31
0.0
  0
LINE
  5
62E
330
577
100
AcDbEntity
  8
0
  6
Continuous
 62
     7
370
    25
100
AcDbLine
 10
336.825
 20
87.46
 30
0.0
 11
333.65
 21
87.46
 31
0.0
  0
LINE
  5
62F
330
577
100
AcDbEntity
  8
0
  6
Continuous
 62
     7
370
    25
100
AcDbLine
 10
336.825
 20
87.46
 30
0.0
 11
336.825
 21
79.84
 31
0.0
  0
LINE
  5
630
330
577
100
AcDbEntity
  8
0
  6
Continuous
 62
     7
370
    25
100
AcDbLine
 10
336.825
 20
79.84
 30
0.0
 11
333.65
 21
79.84
 31
0.0
  0
LINE
  5
631
330
577
100
AcDbEntity
  8
0
  6
Continuous
 62
     7
370
    25
100
AcDbLine
 10
333.65
 20
68.41
 30
0.0
 11
333.65
 21
79.84
 31
0.0
  0
LINE
  5
632
330
577
100
AcDbEntity
  8
0
  6
Continuous
 62
     7
370
    25
100
AcDbLine
 10
336.825
 20
68.41
 30
0.0
 11
333.65
 21
68.41
 31
0.0
  0
LINE
  5
633
330
577
100
AcDbEntity
  8
0
  6
Continuous
 62
     7
370
    25
100
AcDbLine
 10
336.825
 20
68.41
 30
0.0
 11
336.825
 21
60.79
 31
0.0
  0
LINE
  5
634
330
577
100
AcDbEntity
  8
0
  6
Continuous
 62
     7
370
    25
100
AcDbLine
 10
336.825
 20
60.79
 30
0.0
 11
333.65
 21
60.79
 31
0.0
  0
LINE
  5
635
330
577
100
AcDbEntity
  8
0
  6
Continuous
 62
     7
370
    25
100
AcDbLine
 10
333.65
 20
49.36
 30
0.0
 11
333.65
 21
60.79
 31
0.0
  0
LINE
  5
636
330
577
100
AcDbEntity
  8
0
  6
Continuous
 62
     7
370
    25
100
AcDbLine
 10
336.825
 20
49.36
 30
0.0
 11
333.65
 21
49.36
 31
0.0
  0
LINE
  5
637
330
577
100
AcDbEntity
  8
0
  6
Continuous
 62
     7
370
    25
100
AcDbLine
 10
336.825
 20
49.36
 30
0.0
 11
336.825
 21
41.74
 31
0.0
  0
LINE
  5
638
330
577
100
AcDbEntity
  8
0
  6
Continuous
 62
     7
370
    25
100
AcDbLine
 10
336.825
 20
41.74
 30
0.0
 11
333.65
 21
41.74
 31
0.0
  0
LINE
  5
639
330
577
100
AcDbEntity
  8
0
  6
Continuous
 62
     7
370
    25
100
AcDbLine
 10
333.65
 20
30.31
 30
0.0
 11
333.65
 21
41.74
 31
0.0
  0
LINE
  5
63A
330
577
100
AcDbEntity
  8
0
  6
Continuous
 62
     7
370
    25
100
AcDbLine
 10
336.825
 20
30.31
 30
0.0
 11
333.65
 21
30.31
 31
0.0
  0
LINE
  5
63B
330
577
100
AcDbEntity
  8
0
  6
Continuous
 62
     7
370
    25
100
AcDbLine
 10
336.825
 20
30.31
 30
0.0
 11
336.825
 21
22.69
 31
0.0
  0
LINE
  5
63C
330
577
100
AcDbEntity
  8
0
  6
Continuous
 62
     7
370
    25
100
AcDbLine
 10
336.825
 20
22.69
 30
0.0
 11
333.65
 21
22.69
 31
0.0
  0
LINE
  5
63D
330
577
100
AcDbEntity
  8
0
  6
Continuous
 62
     7
370
    25
100
AcDbLine
 10
333.65
 20
11.26
 30
0.0
 11
333.65
 21
22.69
 31
0.0
  0
LINE
  5
63E
330
577
100
AcDbEntity
  8
0
  6
Continuous
 62
     7
370
    25
100
AcDbLine
 10
336.825
 20
11.26
 30
0.0
 11
333.65
 21
11.26
 31
0.0
  0
LINE
  5
63F
330
577
100
AcDbEntity
  8
0
  6
Continuous
 62
     7
370
    25
100
AcDbLine
 10
336.825
 20
11.26
 30
0.0
 11
336.825
 21
3.64
 31
0.0
  0
LINE
  5
640
330
577
100
AcDbEntity
  8
0
  6
Continuous
 62
     7
370
    25
100
AcDbLine
 10
336.825
 20
3.64
 30
0.0
 11
333.65
 21
3.64
 31
0.0
  0
LINE
  5
641
330
577
100
AcDbEntity
  8
0
  6
Continuous
 62
     7
370
    25
100
AcDbLine
 10
333.65
 20
0.0
 30
0.0
 11
333.65
 21
3.64
 31
0.0
  0
LINE
  5
642
330
577
100
AcDbEntity
  8
0
  6
Continuous
 62
     7
370
    25
100
AcDbLine
 10
327.66
 20
0.0
 30
0.0
 11
333.65
 21
0.0
 31
0.0
  0
LINE
  5
643
330
577
100
AcDbEntity
  8
0
  6
Continuous
 62
     7
370
    25
100
AcDbLine
 10
-6.35
 20
3.64
 30
0.0
 11
-6.35
 21
0.0
 31
0.0
  0
LINE
  5
644
330
577
100
AcDbEntity
  8
0
  6
Continuous
 62
     7
370
    25
100
AcDbLine
 10
-9.525
 20
3.64
 30
0.0
 11
-6.35
 21
3.64
 31
0.0
  0
LINE
  5
645
330
577
100
AcDbEntity
  8
0
  6
Continuous
 62
     7
370
    25
100
AcDbLine
 10
-9.525
 20
3.64
 30
0.0
 11
-9.525
 21
11.26
 31
0.0
  0
LINE
  5
646
330
577
100
AcDbEntity
  8
0
  6
Continuous
 62
     7
370
    25
100
AcDbLine
 10
-9.525
 20
11.26
 30
0.0
 11
-6.35
 21
11.26
 31
0.0
  0
LINE
  5
647
330
577
100
AcDbEntity
  8
0
  6
Continuous
 62
     7
370
    25
100
AcDbLine
 10
-6.35
 20
22.69
 30
0.0
 11
-6.35
 21
11.26
 31
0.0
  0
LINE
  5
648
330
577
100
AcDbEntity
  8
0
  6
Continuous
 62
     7
370
    25
100
AcDbLine
 10
-9.525
 20
22.69
 30
0.0
 11
-6.35
 21
22.69
 31
0.0
  0
LINE
  5
649
330
577
100
AcDbEntity
  8
0
  6
Continuous
 62
     7
370
    25
100
AcDbLine
 10
-9.525
 20
22.69
 30
0.0
 11
-9.525
 21
30.31
 31
0.0
  0
LINE
  5
64A
330
577
100
AcDbEntity
  8
0
  6
Continuous
 62
     7
370
    25
100
AcDbLine
 10
-9.525
 20
30.31
 30
0.0
 11
-6.35
 21
30.31
 31
0.0
  0
LINE
  5
64B
330
577
100
AcDbEntity
  8
0
  6
Continuous
 62
     7
370
    25
100
AcDbLine
 10
-6.35
 20
41.74
 30
0.0
 11
-6.35
 21
30.31
 31
0.0
  0
LINE
  5
64C
330
577
100
AcDbEntity
  8
0
  6
Continuous
 62
     7
370
    25
100
AcDbLine
 10
-9.525
 20
41.74
 30
0.0
 11
-6.35
 21
41.74
 31
0.0
  0
LINE
  5
64D
330
577
100
AcDbEntity
  8
0
  6
Continuous
 62
     7
370
    25
100
AcDbLine
 10
-9.525
 20
41.74
 30
0.0
 11
-9.525
 21
49.36
 31
0.0
  0
LINE
  5
64E
330
577
100
AcDbEntity
  8
0
  6
Continuous
 62
     7
370
    25
100
AcDbLine
 10
-9.525
 20
49.36
 30
0.0
 11
-6.35
 21
49.36
 31
0.0
  0
LINE
  5
64F
330
577
100
AcDbEntity
  8
0
  6
Continuous
 62
     7
370
    25
100
AcDbLine
 10
-6.35
 20
60.79
 30
0.0
 11
-6.35
 21
49.36
 31
0.0
  0
LINE
  5
650
330
577
100
AcDbEntity
  8
0
  6
Continuous
 62
     7
370
    25
100
AcDbLine
 10
-9.525
 20
60.79
 30
0.0
 11
-6.35
 21
60.79
 31
0.0
  0
LINE
  5
651
330
577
100
AcDbEntity
  8
0
  6
Continuous
 62
     7
370
    25
100
AcDbLine
 10
-9.525
 20
60.79
 30
0.0
 11
-9.525
 21
68.41
 31
0.0
  0
LINE
  5
652
330
577
100
AcDbEntity
  8
0
  6
Continuous
 62
     7
370
    25
100
AcDbLine
 10
-9.525
 20
68.41
 30
0.0
 11
-6.35
 21
68.41
 31
0.0
  0
LINE
  5
653
330
577
100
AcDbEntity
  8
0
  6
Continuous
 62
     7
370
    25
100
AcDbLine
 10
-6.35
 20
79.84
 30
0.0
 11
-6.35
 21
68.41
 31
0.0
  0
LINE
  5
654
330
577
100
AcDbEntity
  8
0
  6
Continuous
 62
     7
370
    25
100
AcDbLine
 10
-9.525
 20
79.84
 30
0.0
 11
-6.35
 21
79.84
 31
0.0
  0
LINE
  5
655
330
577
100
AcDbEntity
  8
0
  6
Continuous
 62
     7
370
    25
100
AcDbLine
 10
-9.525
 20
79.84
 30
0.0
 11
-9.525
 21
87.46
 31
0.0
  0
LINE
  5
656
330
577
100
AcDbEntity
  8
0
  6
Continuous
 62
     7
370
    25
100
AcDbLine
 10
-9.525
 20
87.46
 30
0.0
 11
-6.35
 21
87.46
 31
0.0
  0
LINE
  5
657
330
577
100
AcDbEntity
  8
0
  6
Continuous
 62
     7
370
    25
100
AcDbLine
 10
-6.35
 20
0.0
 30
0.0
 11
-3.81
 21
0.0
 31
0.0
  0
LINE
  5
658
330
577
100
AcDbEntity
  8
0
  6
Continuous
 62
     7
370
    25
100
AcDbLine
 10
3.81
 20
0.0
 30
0.0
 11
15.24
 21
0.0
 31
0.0
  0
LINE
  5
659
330
577
100
AcDbEntity
  8
0
  6
Continuous
 62
     7
370
    25
100
AcDbLine
 10
22.86
 20
0.0
 30
0.0
 11
34.29
 21
0.0
 31
0.0
  0
LINE
  5
65A
330
577
100
AcDbEntity
  8
0
  6
Continuous
 62
     7
370
    25
100
AcDbLine
 10
41.91
 20
0.0
 30
0.0
 11
53.34
 21
0.0
 31
0.0
  0
LINE
  5
65B
330
577
100
AcDbEntity
  8
0
  6
Continuous
 62
     7
370
    25
100
AcDbLine
 10
60.96
 20
0.0
 30
0.0
 11
72.39
 21
0.0
 31
0.0
  0
LINE
  5
65C
330
577
100
AcDbEntity
  8
0
  6
Continuous
 62
     7
370
    25
100
AcDbLine
 10
80.01
 20
0.0
 30
0.0
 11
91.44
 21
0.0
 31
0.0
  0
LINE
  5
65D
330
577
100
AcDbEntity
  8
0
  6
Continuous
 62
     7
370
    25
100
AcDbLine
 10
99.06
 20
0.0
 30
0.0
 11
110.49
 21
0.0
 31
0.0
  0
LINE
  5
65E
330
577
100
AcDbEntity
  8
0
  6
Continuous
 62
     7
370
    25
100
AcDbLine
 10
118.11
 20
0.0
 30
0.0
 11
129.54
 21
0.0
 31
0.0
  0
LINE
  5
65F
330
577
100
AcDbEntity
  8
0
  6
Continuous
 62
     7
370
    25
100
AcDbLine
 10
137.16
 20
0.0
 30
0.0
 11
148.59
 21
0.0
 31
0.0
  0
LINE
  5
660
330
577
100
AcDbEntity
  8
0
  6
Continuous
 62
     7
370
    25
100
AcDbLine
 10
156.21
 20
0.0
 30
0.0
 11
167.64
 21
0.0
 31
0.0
  0
LINE
  5
661
330
577
100
AcDbEntity
  8
0
  6
Continuous
 62
     7
370
    25
100
AcDbLine
 10
175.26
 20
0.0
 30
0.0
 11
186.69
 21
0.0
 31
0.0
  0
LINE
  5
662
330
577
100
AcDbEntity
  8
0
  6
Continuous
 62
     7
370
    25
100
AcDbLine
 10
194.31
 20
0.0
 30
0.0
 11
205.74
 21
0.0
 31
0.0
  0
LINE
  5
663
330
577
100
AcDbEntity
  8
0
  6
Continuous
 62
     7
370
    25
100
AcDbLine
 10
213.36
 20
0.0
 30
0.0
 11
224.79
 21
0.0
 31
0.0
  0
LINE
  5
664
330
577
100
AcDbEntity
  8
0
  6
Continuous
 62
     7
370
    25
100
AcDbLine
 10
232.41
 20
0.0
 30
0.0
 11
243.84
 21
0.0
 31
0.0
  0
LINE
  5
665
330
577
100
AcDbEntity
  8
0
  6
Continuous
 62
     7
370
    25
100
AcDbLine
 10
251.46
 20
0.0
 30
0.0
 11
262.89
 21
0.0
 31
0.0
  0
LINE
  5
666
330
577
100
AcDbEntity
  8
0
  6
Continuous
 62
     7
370
    25
100
AcDbLine
 10
270.51
 20
0.0
 30
0.0
 11
281.94
 21
0.0
 31
0.0
  0
LINE
  5
667
330
577
100
AcDbEntity
  8
0
  6
Continuous
 62
     7
370
    25
100
AcDbLine
 10
289.56
 20
0.0
 30
0.0
 11
300.99
 21
0.0
 31
0.0
  0
LINE
  5
668
330
577
100
AcDbEntity
  8
0
  6
Continuous
 62
     7
370
    25
100
AcDbLine
 10
308.61
 20
0.0
 30
0.0
 11
320.04
 21
0.0
 31
0.0
  0
ARC
  5
669
330
577
100
AcDbEntity
  8
0
  6
Continuous
 62
     7
370
    25
100
AcDbCircle
 10
180.3589623553
 20
26.0530431755
 30
0.0
 40
21.5
100
AcDbArc
 50
270.0
 51
90.0
  0
ARC
  5
66A
330
577
100
AcDbEntity
  8
0
  6
Continuous
 62
     7
370
    25
100
AcDbCircle
 10
139.3589623553
 20
26.0530431755
 30
0.0
 40
21.5
100
AcDbArc
 50
90.0
 51
270.0
  0
VIEWPORT
  5
671
330
577
100
AcDbEntity
  8
0
100
AcDbViewport
 10
0.0
 20
0.0
 30
0.0
 40
205.6
 41
156.0
 68
     1
 69
     1
 12
163.65
 22
43.4125
 13
0.0
 23
0.0
 14
10.0
 24
10.0
 15
10.0
 25
10.0
 16
0.0
 26
0.0
 36
1.0
 17
0.0
 27
0.0
 37
0.0
 42
50.0
 43
0.0
 44
0.0
 45
268.0506420233
 50
0.0
 51
0.0
 72
   100
 90
   557152
  1

281
     0
 71
     1
 74
     0
110
0.0
120
0.0
130
0.0
111
1.0
121
0.0
131
0.0
112
0.0
122
1.0
132
0.0
 79
     0
146
0.0
  0
MTEXT
  5
67C
330
577
100
AcDbEntity
  8
0
  6
Continuous
 62
     7
100
AcDbMText
 10
-9.525
 20
-4.1945663917
 30
0.0
 40
4.83362
 41
0.0
 71
     1
 72
     1
  1
SOLIDWORKS Educational Product.
  7
SLDTEXTSTYLE0
 73
     1
 44
1.0
  0
MTEXT
  5
67D
330
577
100
AcDbEntity
  8
0
  6
Continuous
 62
     7
100
AcDbMText
 10
-9.525
 20
-11.4449963917
 30
0.0
 40
4.83362
 41
0.0
 71
     1
 72
     1
  1
For Instructional Use Only.
  7
SLDTEXTSTYLE0
 73
     1
 44
1.0
  0
ENDBLK
  5
57A
330
577
100
AcDbEntity
  8
0
100
AcDbBlockEnd
  0
ENDSEC
  0
SECTION
  2
ENTITIES
  0
LINE
  5
D7
330
1F
100
AcDbEntity
  8
0
  6
Continuous
 62
     7
370
    25
100
AcDbLine
 10
333.65
 20
87.46
 30
0.0
 11
333.65
 21
90.0
 31
0.0
  0
LINE
  5
D8
330
1F
100
AcDbEntity
  8
0
  6
Continuous
 62
     7
370
    25
100
AcDbLine
 10
336.825
 20
87.46
 30
0.0
 11
333.65
 21
87.46
 31
0.0
  0
LINE
  5
D9
330
1F
100
AcDbEntity
  8
0
  6
Continuous
 62
     7
370
    25
100
AcDbLine
 10
336.825
 20
79.84
 30
0.0
 11
336.825
 21
87.46
 31
0.0
  0
LINE
  5
DA
330
1F
100
AcDbEntity
  8
0
  6
Continuous
 62
     7
370
    25
100
AcDbLine
 10
336.825
 20
79.84
 30
0.0
 11
333.65
 21
79.84
 31
0.0
  0
LINE
  5
DB
330
1F
100
AcDbEntity
  8
0
  6
Continuous
 62
     7
370
    25
100
AcDbLine
 10
333.65
 20
68.41
 30
0.0
 11
333.65
 21
79.84
 31
0.0
  0
LINE
  5
DC
330
1F
100
AcDbEntity
  8
0
  6
Continuous
 62
     7
370
    25
100
AcDbLine
 10
336.825
 20
68.41
 30
0.0
 11
333.65
 21
68.41
 31
0.0
  0
LINE
  5
DD
330
1F
100
AcDbEntity
  8
0
  6
Continuous
 62
     7
370
    25
100
AcDbLine
 10
336.825
 20
60.79
 30
0.0
 11
336.825
 21
68.41
 31
0.0
  0
LINE
  5
DE
330
1F
100
AcDbEntity
  8
0
  6
Continuous
 62
     7
370
    25
100
AcDbLine
 10
336.825
 20
60.79
 30
0.0
 11
333.65
 21
60.79
 31
0.0
  0
LINE
  5
DF
330
1F
100
AcDbEntity
  8
0
  6
Continuous
 62
     7
370
    25
100
AcDbLine
 10
333.65
 20
49.36
 30
0.0
 11
333.65
 21
60.79
 31
0.0
  0
LINE
  5
E0
330
1F
100
AcDbEntity
  8
0
  6
Continuous
 62
     7
370
    25
100
AcDbLine
 10
336.825
 20
49.36
 30
0.0
 11
333.65
 21
49.36
 31
0.0
  0
LINE
  5
E1
330
1F
100
AcDbEntity
  8
0
  6
Continuous
 62
     7
370
    25
100
AcDbLine
 10
336.825
 20
41.74
 30
0.0
 11
336.825
 21
49.36
 31
0.0
  0
LINE
  5
E2
330
1F
100
AcDbEntity
  8
0
  6
Continuous
 62
     7
370
    25
100
AcDbLine
 10
336.825
 20
41.74
 30
0.0
 11
333.65
 21
41.74
 31
0.0
  0
LINE
  5
E3
330
1F
100
AcDbEntity
  8
0
  6
Continuous
 62
     7
370
    25
100
AcDbLine
 10
333.65
 20
30.31
 30
0.0
 11
333.65
 21
41.74
 31
0.0
  0
LINE
  5
E4
330
1F
100
AcDbEntity
  8
0
  6
Continuous
 62
     7
370
    25
100
AcDbLine
 10
336.825
 20
30.31
 30
0.0
 11
333.65
 21
30.31
 31
0.0
  0
LINE
  5
E5
330
1F
100
AcDbEntity
  8
0
  6
Continuous
 62
     7
370
    25
100
AcDbLine
 10
336.825
 20
22.69
 30
0.0
 11
336.825
 21
30.31
 31
0.0
  0
LINE
  5
E6
330
1F
100
AcDbEntity
  8
0
  6
Continuous
 62
     7
370
    25
100
AcDbLine
 10
336.825
 20
22.69
 30
0.0
 11
333.65
 21
22.69
 31
0.0
  0
LINE
  5
E7
330
1F
100
AcDbEntity
  8
0
  6
Continuous
 62
     7
370
    25
100
AcDbLine
 10
333.65
 20
11.26
 30
0.0
 11
333.65
 21
22.69
 31
0.0
  0
LINE
  5
E8
330
1F
100
AcDbEntity
  8
0
  6
Continuous
 62
     7
370
    25
100
AcDbLine
 10
336.825
 20
11.26
 30
0.0
 11
333.65
 21
11.26
 31
0.0
  0
LINE
  5
E9
330
1F
100
AcDbEntity
  8
0
  6
Continuous
 62
     7
370
    25
100
AcDbLine
 10
336.825
 20
3.64
 30
0.0
 11
336.825
 21
11.26
 31
0.0
  0
LINE
  5
EA
330
1F
100
AcDbEntity
  8
0
  6
Continuous
 62
     7
370
    25
100
AcDbLine
 10
336.825
 20
3.64
 30
0.0
 11
333.65
 21
3.64
 31
0.0
  0
LINE
  5
EB
330
1F
100
AcDbEntity
  8
0
  6
Continuous
 62
     7
370
    25
100
AcDbLine
 10
333.65
 20
0.0
 30
0.0
 11
333.65
 21
3.64
 31
0.0
  0
LINE
  5
EC
330
1F
100
AcDbEntity
  8
0
  6
Continuous
 62
     7
370
    25
100
AcDbLine
 10
327.66
 20
0.0
 30
0.0
 11
333.65
 21
0.0
 31
0.0
  0
LINE
  5
ED
330
1F
100
AcDbEntity
  8
0
  6
Continuous
 62
     7
370
    25
100
AcDbLine
 10
327.66
 20
-3.175
 30
0.0
 11
327.66
 21
0.0
 31
0.0
  0
LINE
  5
EE
330
1F
100
AcDbEntity
  8
0
  6
Continuous
 62
     7
370
    25
100
AcDbLine
 10
320.04
 20
-3.175
 30
0.0
 11
327.66
 21
-3.175
 31
0.0
  0
LINE
  5
EF
330
1F
100
AcDbEntity
  8
0
  6
Continuous
 62
     7
370
    25
100
AcDbLine
 10
320.04
 20
-3.175
 30
0.0
 11
320.04
 21
0.0
 31
0.0
  0
LINE
  5
F0
330
1F
100
AcDbEntity
  8
0
  6
Continuous
 62
     7
370
    25
100
AcDbLine
 10
308.61
 20
0.0
 30
0.0
 11
320.04
 21
0.0
 31
0.0
  0
LINE
  5
F1
330
1F
100
AcDbEntity
  8
0
  6
Continuous
 62
     7
370
    25
100
AcDbLine
 10
308.61
 20
-3.175
 30
0.0
 11
308.61
 21
0.0
 31
0.0
  0
LINE
  5
F2
330
1F
100
AcDbEntity
  8
0
  6
Continuous
 62
     7
370
    25
100
AcDbLine
 10
300.99
 20
-3.175
 30
0.0
 11
308.61
 21
-3.175
 31
0.0
  0
LINE
  5
F3
330
1F
100
AcDbEntity
  8
0
  6
Continuous
 62
     7
370
    25
100
AcDbLine
 10
300.99
 20
-3.175
 30
0.0
 11
300.99
 21
0.0
 31
0.0
  0
LINE
  5
F4
330
1F
100
AcDbEntity
  8
0
  6
Continuous
 62
     7
370
    25
100
AcDbLine
 10
289.56
 20
0.0
 30
0.0
 11
300.99
 21
0.0
 31
0.0
  0
LINE
  5
F5
330
1F
100
AcDbEntity
  8
0
  6
Continuous
 62
     7
370
    25
100
AcDbLine
 10
289.56
 20
-3.175
 30
0.0
 11
289.56
 21
0.0
 31
0.0
  0
LINE
  5
F6
330
1F
100
AcDbEntity
  8
0
  6
Continuous
 62
     7
370
    25
100
AcDbLine
 10
281.94
 20
-3.175
 30
0.0
 11
289.56
 21
-3.175
 31
0.0
  0
LINE
  5
F7
330
1F
100
AcDbEntity
  8
0
  6
Continuous
 62
     7
370
    25
100
AcDbLine
 10
281.94
 20
-3.175
 30
0.0
 11
281.94
 21
0.0
 31
0.0
  0
LINE
  5
F8
330
1F
100
AcDbEntity
  8
0
  6
Continuous
 62
     7
370
    25
100
AcDbLine
 10
270.51
 20
0.0
 30
0.0
 11
281.94
 21
0.0
 31
0.0
  0
LINE
  5
F9
330
1F
100
AcDbEntity
  8
0
  6
Continuous
 62
     7
370
    25
100
AcDbLine
 10
270.51
 20
-3.175
 30
0.0
 11
270.51
 21
0.0
 31
0.0
  0
LINE
  5
FA
330
1F
100
AcDbEntity
  8
0
  6
Continuous
 62
     7
370
    25
100
AcDbLine
 10
262.89
 20
-3.175
 30
0.0
 11
270.51
 21
-3.175
 31
0.0
  0
LINE
  5
FB
330
1F
100
AcDbEntity
  8
0
  6
Continuous
 62
     7
370
    25
100
AcDbLine
 10
262.89
 20
-3.175
 30
0.0
 11
262.89
 21
0.0
 31
0.0
  0
LINE
  5
FC
330
1F
100
AcDbEntity
  8
0
  6
Continuous
 62
     7
370
    25
100
AcDbLine
 10
251.46
 20
0.0
 30
0.0
 11
262.89
 21
0.0
 31
0.0
  0
LINE
  5
FD
330
1F
100
AcDbEntity
  8
0
  6
Continuous
 62
     7
370
    25
100
AcDbLine
 10
251.46
 20
-3.175
 30
0.0
 11
251.46
 21
0.0
 31
0.0
  0
LINE
  5
FE
330
1F
100
AcDbEntity
  8
0
  6
Continuous
 62
     7
370
    25
100
AcDbLine
 10
243.84
 20
-3.175
 30
0.0
 11
251.46
 21
-3.175
 31
0.0
  0
LINE
  5
FF
330
1F
100
AcDbEntity
  8
0
  6
Continuous
 62
     7
370
    25
100
AcDbLine
 10
243.84
 20
-3.175
 30
0.0
 11
243.84
 21
0.0
 31
0.0
  0
LINE
  5
100
330
1F
100
AcDbEntity
  8
0
  6
Continuous
 62
     7
370
    25
100
AcDbLine
 10
232.41
 20
0.0
 30
0.0
 11
243.84
 21
0.0
 31
0.0
  0
LINE
  5
101
330
1F
100
AcDbEntity
  8
0
  6
Continuous
 62
     7
370
    25
100
AcDbLine
 10
232.41
 20
-3.175
 30
0.0
 11
232.41
 21
0.0
 31
0.0
  0
LINE
  5
102
330
1F
100
AcDbEntity
  8
0
  6
Continuous
 62
     7
370
    25
100
AcDbLine
 10
224.79
 20
-3.175
 30
0.0
 11
232.41
 21
-3.175
 31
0.0
  0
LINE
  5
103
330
1F
100
AcDbEntity
  8
0
  6
Continuous
 62
     7
370
    25
100
AcDbLine
 10
224.79
 20
-3.175
 30
0.0
 11
224.79
 21
0.0
 31
0.0
  0
LINE
  5
104
330
1F
100
AcDbEntity
  8
0
  6
Continuous
 62
     7
370
    25
100
AcDbLine
 10
213.36
 20
0.0
 30
0.0
 11
224.79
 21
0.0
 31
0.0
  0
LINE
  5
105
330
1F
100
AcDbEntity
  8
0
  6
Continuous
 62
     7
370
    25
100
AcDbLine
 10
213.36
 20
-3.175
 30
0.0
 11
213.36
 21
0.0
 31
0.0
  0
LINE
  5
106
330
1F
100
AcDbEntity
  8
0
  6
Continuous
 62
     7
370
    25
100
AcDbLine
 10
205.74
 20
-3.175
 30
0.0
 11
213.36
 21
-3.175
 31
0.0
  0
LINE
  5
107
330
1F
100
AcDbEntity
  8
0
  6
Continuous
 62
     7
370
    25
100
AcDbLine
 10
205.74
 20
-3.175
 30
0.0
 11
205.74
 21
0.0
 31
0.0
  0
LINE
  5
108
330
1F
100
AcDbEntity
  8
0
  6
Continuous
 62
     7
370
    25
100
AcDbLine
 10
194.31
 20
0.0
 30
0.0
 11
205.74
 21
0.0
 31
0.0
  0
LINE
  5
109
330
1F
100
AcDbEntity
  8
0
  6
Continuous
 62
     7
370
    25
100
AcDbLine
 10
194.31
 20
-3.175
 30
0.0
 11
194.31
 21
0.0
 31
0.0
  0
LINE
  5
10A
330
1F
100
AcDbEntity
  8
0
  6
Continuous
 62
     7
370
    25
100
AcDbLine
 10
186.69
 20
-3.175
 30
0.0
 11
194.31
 21
-3.175
 31
0.0
  0
LINE
  5
10B
330
1F
100
AcDbEntity
  8
0
  6
Continuous
 62
     7
370
    25
100
AcDbLine
 10
186.69
 20
-3.175
 30
0.0
 11
186.69
 21
0.0
 31
0.0
  0
LINE
  5
10C
330
1F
100
AcDbEntity
  8
0
  6
Continuous
 62
     7
370
    25
100
AcDbLine
 10
175.26
 20
0.0
 30
0.0
 11
186.69
 21
0.0
 31
0.0
  0
LINE
  5
10D
330
1F
100
AcDbEntity
  8
0
  6
Continuous
 62
     7
370
    25
100
AcDbLine
 10
175.26
 20
-3.175
 30
0.0
 11
175.26
 21
0.0
 31
0.0
  0
LINE
  5
10E
330
1F
100
AcDbEntity
  8
0
  6
Continuous
 62
     7
370
    25
100
AcDbLine
 10
167.64
 20
-3.175
 30
0.0
 11
175.26
 21
-3.175
 31
0.0
  0
LINE
  5
10F
330
1F
100
AcDbEntity
  8
0
  6
Continuous
 62
     7
370
    25
100
AcDbLine
 10
167.64
 20
-3.175
 30
0.0
 11
167.64
 21
0.0
 31
0.0
  0
LINE
  5
110
330
1F
100
AcDbEntity
  8
0
  6
Continuous
 62
     7
370
    25
100
AcDbLine
 10
156.21
 20
0.0
 30
0.0
 11
167.64
 21
0.0
 31
0.0
  0
LINE
  5
111
330
1F
100
AcDbEntity
  8
0
  6
Continuous
 62
     7
370
    25
100
AcDbLine
 10
156.21
 20
-3.175
 30
0.0
 11
156.21
 21
0.0
 31
0.0
  0
LINE
  5
112
330
1F
100
AcDbEntity
  8
0
  6
Continuous
 62
     7
370
    25
100
AcDbLine
 10
148.59
 20
-3.175
 30
0.0
 11
156.21
 21
-3.175
 31
0.0
  0
LINE
  5
113
330
1F
100
AcDbEntity
  8
0
  6
Continuous
 62
     7
370
    25
100
AcDbLine
 10
148.59
 20
-3.175
 30
0.0
 11
148.59
 21
0.0
 31
0.0
  0
LINE
  5
114
330
1F
100
AcDbEntity
  8
0
  6
Continuous
 62
     7
370
    25
100
AcDbLine
 10
137.16
 20
0.0
 30
0.0
 11
148.59
 21
0.0
 31
0.0
  0
LINE
  5
115
330
1F
100
AcDbEntity
  8
0
  6
Continuous
 62
     7
370
    25
100
AcDbLine
 10
137.16
 20
-3.175
 30
0.0
 11
137.16
 21
0.0
 31
0.0
  0
LINE
  5
116
330
1F
100
AcDbEntity
  8
0
  6
Continuous
 62
     7
370
    25
100
AcDbLine
 10
129.54
 20
-3.175
 30
0.0
 11
137.16
 21
-3.175
 31
0.0
  0
LINE
  5
117
330
1F
100
AcDbEntity
  8
0
  6
Continuous
 62
     7
370
    25
100
AcDbLine
 10
129.54
 20
-3.175
 30
0.0
 11
129.54
 21
0.0
 31
0.0
  0
LINE
  5
118
330
1F
100
AcDbEntity
  8
0
  6
Continuous
 62
     7
370
    25
100
AcDbLine
 10
118.11
 20
0.0
 30
0.0
 11
129.54
 21
0.0
 31
0.0
  0
LINE
  5
119
330
1F
100
AcDbEntity
  8
0
  6
Continuous
 62
     7
370
    25
100
AcDbLine
 10
118.11
 20
-3.175
 30
0.0
 11
118.11
 21
0.0
 31
0.0
  0
LINE
  5
11A
330
1F
100
AcDbEntity
  8
0
  6
Continuous
 62
     7
370
    25
100
AcDbLine
 10
110.49
 20
-3.175
 30
0.0
 11
118.11
 21
-3.175
 31
0.0
  0
LINE
  5
11B
330
1F
100
AcDbEntity
  8
0
  6
Continuous
 62
     7
370
    25
100
AcDbLine
 10
110.49
 20
-3.175
 30
0.0
 11
110.49
 21
0.0
 31
0.0
  0
LINE
  5
11C
330
1F
100
AcDbEntity
  8
0
  6
Continuous
 62
     7
370
    25
100
AcDbLine
 10
99.06
 20
0.0
 30
0.0
 11
110.49
 21
0.0
 31
0.0
  0
LINE
  5
11D
330
1F
100
AcDbEntity
  8
0
  6
Continuous
 62
     7
370
    25
100
AcDbLine
 10
99.06
 20
-3.175
 30
0.0
 11
99.06
 21
0.0
 31
0.0
  0
LINE
  5
11E
330
1F
100
AcDbEntity
  8
0
  6
Continuous
 62
     7
370
    25
100
AcDbLine
 10
91.44
 20
-3.175
 30
0.0
 11
99.06
 21
-3.175
 31
0.0
  0
LINE
  5
11F
330
1F
100
AcDbEntity
  8
0
  6
Continuous
 62
     7
370
    25
100
AcDbLine
 10
91.44
 20
-3.175
 30
0.0
 11
91.44
 21
0.0
 31
0.0
  0
LINE
  5
120
330
1F
100
AcDbEntity
  8
0
  6
Continuous
 62
     7
370
    25
100
AcDbLine
 10
80.01
 20
0.0
 30
0.0
 11
91.44
 21
0.0
 31
0.0
  0
LINE
  5
121
330
1F
100
AcDbEntity
  8
0
  6
Continuous
 62
     7
370
    25
100
AcDbLine
 10
80.01
 20
-3.175
 30
0.0
 11
80.01
 21
0.0
 31
0.0
  0
LINE
  5
122
330
1F
100
AcDbEntity
  8
0
  6
Continuous
 62
     7
370
    25
100
AcDbLine
 10
72.39
 20
-3.175
 30
0.0
 11
80.01
 21
-3.175
 31
0.0
  0
LINE
  5
123
330
1F
100
AcDbEntity
  8
0
  6
Continuous
 62
     7
370
    25
100
AcDbLine
 10
72.39
 20
-3.175
 30
0.0
 11
72.39
 21
0.0
 31
0.0
  0
LINE
  5
124
330
1F
100
AcDbEntity
  8
0
  6
Continuous
 62
     7
370
    25
100
AcDbLine
 10
60.96
 20
0.0
 30
0.0
 11
72.39
 21
0.0
 31
0.0
  0
LINE
  5
125
330
1F
100
AcDbEntity
  8
0
  6
Continuous
 62
     7
370
    25
100
AcDbLine
 10
60.96
 20
-3.175
 30
0.0
 11
60.96
 21
0.0
 31
0.0
  0
LINE
  5
126
330
1F
100
AcDbEntity
  8
0
  6
Continuous
 62
     7
370
    25
100
AcDbLine
 10
53.34
 20
-3.175
 30
0.0
 11
60.96
 21
-3.175
 31
0.0
  0
LINE
  5
127
330
1F
100
AcDbEntity
  8
0
  6
Continuous
 62
     7
370
    25
100
AcDbLine
 10
53.34
 20
-3.175
 30
0.0
 11
53.34
 21
0.0
 31
0.0
  0
LINE
  5
128
330
1F
100
AcDbEntity
  8
0
  6
Continuous
 62
     7
370
    25
100
AcDbLine
 10
41.91
 20
0.0
 30
0.0
 11
53.34
 21
0.0
 31
0.0
  0
LINE
  5
129
330
1F
100
AcDbEntity
  8
0
  6
Continuous
 62
     7
370
    25
100
AcDbLine
 10
41.91
 20
-3.175
 30
0.0
 11
41.91
 21
0.0
 31
0.0
  0
LINE
  5
12A
330
1F
100
AcDbEntity
  8
0
  6
Continuous
 62
     7
370
    25
100
AcDbLine
 10
34.29
 20
-3.175
 30
0.0
 11
41.91
 21
-3.175
 31
0.0
  0
LINE
  5
12B
330
1F
100
AcDbEntity
  8
0
  6
Continuous
 62
     7
370
    25
100
AcDbLine
 10
34.29
 20
-3.175
 30
0.0
 11
34.29
 21
0.0
 31
0.0
  0
LINE
  5
12C
330
1F
100
AcDbEntity
  8
0
  6
Continuous
 62
     7
370
    25
100
AcDbLine
 10
22.86
 20
0.0
 30
0.0
 11
34.29
 21
0.0
 31
0.0
  0
LINE
  5
12D
330
1F
100
AcDbEntity
  8
0
  6
Continuous
 62
     7
370
    25
100
AcDbLine
 10
22.86
 20
-3.175
 30
0.0
 11
22.86
 21
0.0
 31
0.0
  0
LINE
  5
12E
330
1F
100
AcDbEntity
  8
0
  6
Continuous
 62
     7
370
    25
100
AcDbLine
 10
15.24
 20
-3.175
 30
0.0
 11
22.86
 21
-3.175
 31
0.0
  0
LINE
  5
12F
330
1F
100
AcDbEntity
  8
0
  6
Continuous
 62
     7
370
    25
100
AcDbLine
 10
15.24
 20
-3.175
 30
0.0
 11
15.24
 21
0.0
 31
0.0
  0
LINE
  5
130
330
1F
100
AcDbEntity
  8
0
  6
Continuous
 62
     7
370
    25
100
AcDbLine
 10
3.81
 20
0.0
 30
0.0
 11
15.24
 21
0.0
 31
0.0
  0
LINE
  5
131
330
1F
100
AcDbEntity
  8
0
  6
Continuous
 62
     7
370
    25
100
AcDbLine
 10
3.81
 20
-3.175
 30
0.0
 11
3.81
 21
0.0
 31
0.0
  0
LINE
  5
132
330
1F
100
AcDbEntity
  8
0
  6
Continuous
 62
     7
370
    25
100
AcDbLine
 10
-3.81
 20
-3.175
 30
0.0
 11
3.81
 21
-3.175
 31
0.0
  0
LINE
  5
133
330
1F
100
AcDbEntity
  8
0
  6
Continuous
 62
     7
370
    25
100
AcDbLine
 10
-3.81
 20
-3.175
 30
0.0
 11
-3.81
 21
0.0
 31
0.0
  0
LINE
  5
134
330
1F
100
AcDbEntity
  8
0
  6
Continuous
 62
     7
370
    25
100
AcDbLine
 10
-6.35
 20
0.0
 30
0.0
 11
-3.81
 21
0.0
 31
0.0
  0
LINE
  5
135
330
1F
100
AcDbEntity
  8
0
  6
Continuous
 62
     7
370
    25
100
AcDbLine
 10
-6.35
 20
3.64
 30
0.0
 11
-6.35
 21
0.0
 31
0.0
  0
LINE
  5
136
330
1F
100
AcDbEntity
  8
0
  6
Continuous
 62
     7
370
    25
100
AcDbLine
 10
-6.35
 20
22.69
 30
0.0
 11
-6.35
 21
11.26
 31
0.0
  0
LINE
  5
137
330
1F
100
AcDbEntity
  8
0
  6
Continuous
 62
     7
370
    25
100
AcDbLine
 10
-6.35
 20
41.74
 30
0.0
 11
-6.35
 21
30.31
 31
0.0
  0
LINE
  5
138
330
1F
100
AcDbEntity
  8
0
  6
Continuous
 62
     7
370
    25
100
AcDbLine
 10
-6.35
 20
60.79
 30
0.0
 11
-6.35
 21
49.36
 31
0.0
  0
LINE
  5
139
330
1F
100
AcDbEntity
  8
0
  6
Continuous
 62
     7
370
    25
100
AcDbLine
 10
-6.35
 20
79.84
 30
0.0
 11
-6.35
 21
68.41
 31
0.0
  0
LINE
  5
13A
330
1F
100
AcDbEntity
  8
0
  6
Continuous
 62
     7
370
    25
100
AcDbLine
 10
-6.35
 20
90.0
 30
0.0
 11
-6.35
 21
87.46
 31
0.0
  0
LINE
  5
13B
330
1F
100
AcDbEntity
  8
0
  6
Continuous
 62
     7
370
    25
100
AcDbLine
 10
333.65
 20
90.0
 30
0.0
 11
-6.35
 21
90.0
 31
0.0
  0
LINE
  5
13C
330
1F
100
AcDbEntity
  8
0
  6
Continuous
 62
     7
370
    25
100
AcDbLine
 10
-9.525
 20
49.36
 30
0.0
 11
-6.35
 21
49.36
 31
0.0
  0
LINE
  5
13D
330
1F
100
AcDbEntity
  8
0
  6
Continuous
 62
     7
370
    25
100
AcDbLine
 10
-9.525
 20
41.74
 30
0.0
 11
-6.35
 21
41.74
 31
0.0
  0
LINE
  5
13E
330
1F
100
AcDbEntity
  8
0
  6
Continuous
 62
     7
370
    25
100
AcDbLine
 10
-9.525
 20
30.31
 30
0.0
 11
-9.525
 21
22.69
 31
0.0
  0
LINE
  5
13F
330
1F
100
AcDbEntity
  8
0
  6
Continuous
 62
     7
370
    25
100
AcDbLine
 10
-9.525
 20
68.41
 30
0.0
 11
-6.35
 21
68.41
 31
0.0
  0
LINE
  5
140
330
1F
100
AcDbEntity
  8
0
  6
Continuous
 62
     7
370
    25
100
AcDbLine
 10
-9.525
 20
60.79
 30
0.0
 11
-6.35
 21
60.79
 31
0.0
  0
LINE
  5
141
330
1F
100
AcDbEntity
  8
0
  6
Continuous
 62
     7
370
    25
100
AcDbLine
 10
-9.525
 20
68.41
 30
0.0
 11
-9.525
 21
60.79
 31
0.0
  0
LINE
  5
142
330
1F
100
AcDbEntity
  8
0
  6
Continuous
 62
     7
370
    25
100
AcDbLine
 10
-9.525
 20
87.46
 30
0.0
 11
-6.35
 21
87.46
 31
0.0
  0
LINE
  5
143
330
1F
100
AcDbEntity
  8
0
  6
Continuous
 62
     7
370
    25
100
AcDbLine
 10
-9.525
 20
79.84
 30
0.0
 11
-6.35
 21
79.84
 31
0.0
  0
LINE
  5
144
330
1F
100
AcDbEntity
  8
0
  6
Continuous
 62
     7
370
    25
100
AcDbLine
 10
-9.525
 20
87.46
 30
0.0
 11
-9.525
 21
79.84
 31
0.0
  0
LINE
  5
145
330
1F
100
AcDbEntity
  8
0
  6
Continuous
 62
     7
370
    25
100
AcDbLine
 10
-9.525
 20
49.36
 30
0.0
 11
-9.525
 21
41.74
 31
0.0
  0
LINE
  5
146
330
1F
100
AcDbEntity
  8
0
  6
Continuous
 62
     7
370
    25
100
AcDbLine
 10
-9.525
 20
11.26
 30
0.0
 11
-6.35
 21
11.26
 31
0.0
  0
LINE
  5
147
330
1F
100
AcDbEntity
  8
0
  6
Continuous
 62
     7
370
    25
100
AcDbLine
 10
-9.525
 20
3.64
 30
0.0
 11
-6.35
 21
3.64
 31
0.0
  0
LINE
  5
148
330
1F
100
AcDbEntity
  8
0
  6
Continuous
 62
     7
370
    25
100
AcDbLine
 10
-9.525
 20
11.26
 30
0.0
 11
-9.525
 21
3.64
 31
0.0
  0
LINE
  5
149
330
1F
100
AcDbEntity
  8
0
  6
Continuous
 62
     7
370
    25
100
AcDbLine
 10
-9.525
 20
30.31
 30
0.0
 11
-6.35
 21
30.31
 31
0.0
  0
LINE
  5
14A
330
1F
100
AcDbEntity
  8
0
  6
Continuous
 62
     7
370
    25
100
AcDbLine
 10
-9.525
 20
22.69
 30
0.0
 11
-6.35
 21
22.69
 31
0.0
  0
MTEXT
  5
676
330
1F
100
AcDbEntity
  8
0
  6
Continuous
 62
     7
100
AcDbMText
 10
-9.525
 20
-4.1945663917
 30
0.0
 40
4.83362
 41
0.0
 71
     1
 72
     1
  1
SOLIDWORKS Educational Product.
  7
SLDTEXTSTYLE0
 73
     1
 44
1.0
  0
MTEXT
  5
677
330
1F
100
AcDbEntity
  8
0
  6
Continuous
 62
     7
100
AcDbMText
 10
-9.525
 20
-11.4449963917
 30
0.0
 40
4.83362
 41
0.0
 71
     1
 72
     1
  1
For Instructional Use Only.
  7
SLDTEXTSTYLE0
 73
     1
 44
1.0
  0
LINE
  5
1BF
330
1B
100
AcDbEntity
 67
     1
  8
0
  6
Continuous
 62
     7
370
    25
100
AcDbLine
 10
6.45
 20
11.36
 30
0.0
 11
6.45
 21
3.54
 31
0.0
  0
LINE
  5
1C0
330
1B
100
AcDbEntity
 67
     1
  8
0
  6
Continuous
 62
     7
370
    25
100
AcDbLine
 10
3.175
 20
11.36
 30
0.0
 11
6.45
 21
11.36
 31
0.0
  0
LINE
  5
1C1
330
1B
100
AcDbEntity
 67
     1
  8
0
  6
Continuous
 62
     7
370
    25
100
AcDbLine
 10
6.45
 20
22.59
 30
0.0
 11
3.175
 21
22.59
 31
0.0
  0
LINE
  5
1C2
330
1B
100
AcDbEntity
 67
     1
  8
0
  6
Continuous
 62
     7
370
    25
100
AcDbLine
 10
6.45
 20
30.41
 30
0.0
 11
6.45
 21
22.59
 31
0.0
  0
LINE
  5
1C3
330
1B
100
AcDbEntity
 67
     1
  8
0
  6
Continuous
 62
     7
370
    25
100
AcDbLine
 10
3.175
 20
30.41
 30
0.0
 11
6.45
 21
30.41
 31
0.0
  0
LINE
  5
1C4
330
1B
100
AcDbEntity
 67
     1
  8
0
  6
Continuous
 62
     7
370
    25
100
AcDbLine
 10
6.45
 20
41.64
 30
0.0
 11
3.175
 21
41.64
 31
0.0
  0
LINE
  5
1C5
330
1B
100
AcDbEntity
 67
     1
  8
0
  6
Continuous
 62
     7
370
    25
100
AcDbLine
 10
6.45
 20
49.46
 30
0.0
 11
6.45
 21
41.64
 31
0.0
  0
LINE
  5
1C6
330
1B
100
AcDbEntity
 67
     1
  8
0
  6
Continuous
 62
     7
370
    25
100
AcDbLine
 10
3.175
 20
49.46
 30
0.0
 11
6.45
 21
49.46
 31
0.0
  0
LINE
  5
1C7
330
1B
100
AcDbEntity
 67
     1
  8
0
  6
Continuous
 62
     7
370
    25
100
AcDbLine
 10
6.45
 20
60.69
 30
0.0
 11
3.175
 21
60.69
 31
0.0
  0
LINE
  5
1C8
330
1B
100
AcDbEntity
 67
     1
  8
0
  6
Continuous
 62
     7
370
    25
100
AcDbLine
 10
6.45
 20
68.51
 30
0.0
 11
6.45
 21
60.69
 31
0.0
  0
LINE
  5
1C9
330
1B
100
AcDbEntity
 67
     1
  8
0
  6
Continuous
 62
     7
370
    25
100
AcDbLine
 10
3.175
 20
68.51
 30
0.0
 11
6.45
 21
68.51
 31
0.0
  0
LINE
  5
1CA
330
1B
100
AcDbEntity
 67
     1
  8
0
  6
Continuous
 62
     7
370
    25
100
AcDbLine
 10
6.45
 20
79.74
 30
0.0
 11
3.175
 21
79.74
 31
0.0
  0
LINE
  5
1CB
330
1B
100
AcDbEntity
 67
     1
  8
0
  6
Continuous
 62
     7
370
    25
100
AcDbLine
 10
6.45
 20
87.56
 30
0.0
 11
6.45
 21
79.74
 31
0.0
  0
LINE
  5
1CC
330
1B
100
AcDbEntity
 67
     1
  8
0
  6
Continuous
 62
     7
370
    25
100
AcDbLine
 10
3.175
 20
87.56
 30
0.0
 11
6.45
 21
87.56
 31
0.0
  0
LINE
  5
1CD
330
1B
100
AcDbEntity
 67
     1
  8
0
  6
Continuous
 62
     7
370
    25
100
AcDbLine
 10
337.185
 20
-3.175
 30
0.0
 11
337.185
 21
0.0
 31
0.0
  0
LINE
  5
1CE
330
1B
100
AcDbEntity
 67
     1
  8
0
  6
Continuous
 62
     7
370
    25
100
AcDbLine
 10
337.185
 20
-3.175
 30
0.0
 11
329.565
 21
-3.175
 31
0.0
  0
LINE
  5
1CF
330
1B
100
AcDbEntity
 67
     1
  8
0
  6
Continuous
 62
     7
370
    25
100
AcDbLine
 10
329.565
 20
-3.175
 30
0.0
 11
329.565
 21
0.0
 31
0.0
  0
LINE
  5
1D0
330
1B
100
AcDbEntity
 67
     1
  8
0
  6
Continuous
 62
     7
370
    25
100
AcDbLine
 10
318.135
 20
-3.175
 30
0.0
 11
318.135
 21
0.0
 31
0.0
  0
LINE
  5
1D1
330
1B
100
AcDbEntity
 67
     1
  8
0
  6
Continuous
 62
     7
370
    25
100
AcDbLine
 10
318.135
 20
-3.175
 30
0.0
 11
310.515
 21
-3.175
 31
0.0
  0
LINE
  5
1D2
330
1B
100
AcDbEntity
 67
     1
  8
0
  6
Continuous
 62
     7
370
    25
100
AcDbLine
 10
310.515
 20
-3.175
 30
0.0
 11
310.515
 21
0.0
 31
0.0
  0
LINE
  5
1D3
330
1B
100
AcDbEntity
 67
     1
  8
0
  6
Continuous
 62
     7
370
    25
100
AcDbLine
 10
299.085
 20
-3.175
 30
0.0
 11
299.085
 21
0.0
 31
0.0
  0
LINE
  5
1D4
330
1B
100
AcDbEntity
 67
     1
  8
0
  6
Continuous
 62
     7
370
    25
100
AcDbLine
 10
299.085
 20
-3.175
 30
0.0
 11
291.465
 21
-3.175
 31
0.0
  0
LINE
  5
1D5
330
1B
100
AcDbEntity
 67
     1
  8
0
  6
Continuous
 62
     7
370
    25
100
AcDbLine
 10
291.465
 20
-3.175
 30
0.0
 11
291.465
 21
0.0
 31
0.0
  0
LINE
  5
1D6
330
1B
100
AcDbEntity
 67
     1
  8
0
  6
Continuous
 62
     7
370
    25
100
AcDbLine
 10
280.035
 20
-3.175
 30
0.0
 11
280.035
 21
0.0
 31
0.0
  0
LINE
  5
1D7
330
1B
100
AcDbEntity
 67
     1
  8
0
  6
Continuous
 62
     7
370
    25
100
AcDbLine
 10
280.035
 20
-3.175
 30
0.0
 11
272.415
 21
-3.175
 31
0.0
  0
LINE
  5
1D8
330
1B
100
AcDbEntity
 67
     1
  8
0
  6
Continuous
 62
     7
370
    25
100
AcDbLine
 10
272.415
 20
-3.175
 30
0.0
 11
272.415
 21
0.0
 31
0.0
  0
LINE
  5
1D9
330
1B
100
AcDbEntity
 67
     1
  8
0
  6
Continuous
 62
     7
370
    25
100
AcDbLine
 10
260.985
 20
-3.175
 30
0.0
 11
260.985
 21
0.0
 31
0.0
  0
LINE
  5
1DA
330
1B
100
AcDbEntity
 67
     1
  8
0
  6
Continuous
 62
     7
370
    25
100
AcDbLine
 10
260.985
 20
-3.175
 30
0.0
 11
253.365
 21
-3.175
 31
0.0
  0
LINE
  5
1DB
330
1B
100
AcDbEntity
 67
     1
  8
0
  6
Continuous
 62
     7
370
    25
100
AcDbLine
 10
253.365
 20
-3.175
 30
0.0
 11
253.365
 21
0.0
 31
0.0
  0
LINE
  5
1DC
330
1B
100
AcDbEntity
 67
     1
  8
0
  6
Continuous
 62
     7
370
    25
100
AcDbLine
 10
241.935
 20
-3.175
 30
0.0
 11
241.935
 21
0.0
 31
0.0
  0
LINE
  5
1DD
330
1B
100
AcDbEntity
 67
     1
  8
0
  6
Continuous
 62
     7
370
    25
100
AcDbLine
 10
241.935
 20
-3.175
 30
0.0
 11
234.315
 21
-3.175
 31
0.0
  0
LINE
  5
1DE
330
1B
100
AcDbEntity
 67
     1
  8
0
  6
Continuous
 62
     7
370
    25
100
AcDbLine
 10
234.315
 20
-3.175
 30
0.0
 11
234.315
 21
0.0
 31
0.0
  0
LINE
  5
1DF
330
1B
100
AcDbEntity
 67
     1
  8
0
  6
Continuous
 62
     7
370
    25
100
AcDbLine
 10
222.885
 20
-3.175
 30
0.0
 11
222.885
 21
0.0
 31
0.0
  0
LINE
  5
1E0
330
1B
100
AcDbEntity
 67
     1
  8
0
  6
Continuous
 62
     7
370
    25
100
AcDbLine
 10
222.885
 20
-3.175
 30
0.0
 11
215.265
 21
-3.175
 31
0.0
  0
LINE
  5
1E1
330
1B
100
AcDbEntity
 67
     1
  8
0
  6
Continuous
 62
     7
370
    25
100
AcDbLine
 10
215.265
 20
-3.175
 30
0.0
 11
215.265
 21
0.0
 31
0.0
  0
LINE
  5
1E2
330
1B
100
AcDbEntity
 67
     1
  8
0
  6
Continuous
 62
     7
370
    25
100
AcDbLine
 10
203.835
 20
-3.175
 30
0.0
 11
203.835
 21
0.0
 31
0.0
  0
LINE
  5
1E3
330
1B
100
AcDbEntity
 67
     1
  8
0
  6
Continuous
 62
     7
370
    25
100
AcDbLine
 10
203.835
 20
-3.175
 30
0.0
 11
196.215
 21
-3.175
 31
0.0
  0
LINE
  5
1E4
330
1B
100
AcDbEntity
 67
     1
  8
0
  6
Continuous
 62
     7
370
    25
100
AcDbLine
 10
196.215
 20
-3.175
 30
0.0
 11
196.215
 21
0.0
 31
0.0
  0
LINE
  5
1E5
330
1B
100
AcDbEntity
 67
     1
  8
0
  6
Continuous
 62
     7
370
    25
100
AcDbLine
 10
184.785
 20
-3.175
 30
0.0
 11
184.785
 21
0.0
 31
0.0
  0
LINE
  5
1E6
330
1B
100
AcDbEntity
 67
     1
  8
0
  6
Continuous
 62
     7
370
    25
100
AcDbLine
 10
184.785
 20
-3.175
 30
0.0
 11
177.165
 21
-3.175
 31
0.0
  0
LINE
  5
1E7
330
1B
100
AcDbEntity
 67
     1
  8
0
  6
Continuous
 62
     7
370
    25
100
AcDbLine
 10
177.165
 20
-3.175
 30
0.0
 11
177.165
 21
0.0
 31
0.0
  0
LINE
  5
1E8
330
1B
100
AcDbEntity
 67
     1
  8
0
  6
Continuous
 62
     7
370
    25
100
AcDbLine
 10
165.735
 20
-3.175
 30
0.0
 11
165.735
 21
0.0
 31
0.0
  0
LINE
  5
1E9
330
1B
100
AcDbEntity
 67
     1
  8
0
  6
Continuous
 62
     7
370
    25
100
AcDbLine
 10
165.735
 20
-3.175
 30
0.0
 11
158.115
 21
-3.175
 31
0.0
  0
LINE
  5
1EA
330
1B
100
AcDbEntity
 67
     1
  8
0
  6
Continuous
 62
     7
370
    25
100
AcDbLine
 10
158.115
 20
-3.175
 30
0.0
 11
158.115
 21
0.0
 31
0.0
  0
LINE
  5
1EB
330
1B
100
AcDbEntity
 67
     1
  8
0
  6
Continuous
 62
     7
370
    25
100
AcDbLine
 10
146.685
 20
-3.175
 30
0.0
 11
146.685
 21
0.0
 31
0.0
  0
LINE
  5
1EC
330
1B
100
AcDbEntity
 67
     1
  8
0
  6
Continuous
 62
     7
370
    25
100
AcDbLine
 10
146.685
 20
-3.175
 30
0.0
 11
139.065
 21
-3.175
 31
0.0
  0
LINE
  5
1ED
330
1B
100
AcDbEntity
 67
     1
  8
0
  6
Continuous
 62
     7
370
    25
100
AcDbLine
 10
139.065
 20
-3.175
 30
0.0
 11
139.065
 21
0.0
 31
0.0
  0
LINE
  5
1EE
330
1B
100
AcDbEntity
 67
     1
  8
0
  6
Continuous
 62
     7
370
    25
100
AcDbLine
 10
127.635
 20
-3.175
 30
0.0
 11
127.635
 21
0.0
 31
0.0
  0
LINE
  5
1EF
330
1B
100
AcDbEntity
 67
     1
  8
0
  6
Continuous
 62
     7
370
    25
100
AcDbLine
 10
127.635
 20
-3.175
 30
0.0
 11
120.015
 21
-3.175
 31
0.0
  0
LINE
  5
1F0
330
1B
100
AcDbEntity
 67
     1
  8
0
  6
Continuous
 62
     7
370
    25
100
AcDbLine
 10
120.015
 20
-3.175
 30
0.0
 11
120.015
 21
0.0
 31
0.0
  0
LINE
  5
1F1
330
1B
100
AcDbEntity
 67
     1
  8
0
  6
Continuous
 62
     7
370
    25
100
AcDbLine
 10
108.585
 20
-3.175
 30
0.0
 11
108.585
 21
0.0
 31
0.0
  0
LINE
  5
1F2
330
1B
100
AcDbEntity
 67
     1
  8
0
  6
Continuous
 62
     7
370
    25
100
AcDbLine
 10
108.585
 20
-3.175
 30
0.0
 11
100.965
 21
-3.175
 31
0.0
  0
LINE
  5
1F3
330
1B
100
AcDbEntity
 67
     1
  8
0
  6
Continuous
 62
     7
370
    25
100
AcDbLine
 10
100.965
 20
-3.175
 30
0.0
 11
100.965
 21
0.0
 31
0.0
  0
LINE
  5
1F4
330
1B
100
AcDbEntity
 67
     1
  8
0
  6
Continuous
 62
     7
370
    25
100
AcDbLine
 10
89.535
 20
-3.175
 30
0.0
 11
89.535
 21
0.0
 31
0.0
  0
LINE
  5
1F5
330
1B
100
AcDbEntity
 67
     1
  8
0
  6
Continuous
 62
     7
370
    25
100
AcDbLine
 10
89.535
 20
-3.175
 30
0.0
 11
81.915
 21
-3.175
 31
0.0
  0
LINE
  5
1F6
330
1B
100
AcDbEntity
 67
     1
  8
0
  6
Continuous
 62
     7
370
    25
100
AcDbLine
 10
81.915
 20
-3.175
 30
0.0
 11
81.915
 21
0.0
 31
0.0
  0
LINE
  5
1F7
330
1B
100
AcDbEntity
 67
     1
  8
0
  6
Continuous
 62
     7
370
    25
100
AcDbLine
 10
70.485
 20
-3.175
 30
0.0
 11
70.485
 21
0.0
 31
0.0
  0
LINE
  5
1F8
330
1B
100
AcDbEntity
 67
     1
  8
0
  6
Continuous
 62
     7
370
    25
100
AcDbLine
 10
70.485
 20
-3.175
 30
0.0
 11
62.865
 21
-3.175
 31
0.0
  0
LINE
  5
1F9
330
1B
100
AcDbEntity
 67
     1
  8
0
  6
Continuous
 62
     7
370
    25
100
AcDbLine
 10
62.865
 20
-3.175
 30
0.0
 11
62.865
 21
0.0
 31
0.0
  0
LINE
  5
1FA
330
1B
100
AcDbEntity
 67
     1
  8
0
  6
Continuous
 62
     7
370
    25
100
AcDbLine
 10
51.435
 20
-3.175
 30
0.0
 11
51.435
 21
0.0
 31
0.0
  0
LINE
  5
1FB
330
1B
100
AcDbEntity
 67
     1
  8
0
  6
Continuous
 62
     7
370
    25
100
AcDbLine
 10
51.435
 20
-3.175
 30
0.0
 11
43.815
 21
-3.175
 31
0.0
  0
LINE
  5
1FC
330
1B
100
AcDbEntity
 67
     1
  8
0
  6
Continuous
 62
     7
370
    25
100
AcDbLine
 10
43.815
 20
-3.175
 30
0.0
 11
43.815
 21
0.0
 31
0.0
  0
LINE
  5
1FD
330
1B
100
AcDbEntity
 67
     1
  8
0
  6
Continuous
 62
     7
370
    25
100
AcDbLine
 10
32.385
 20
-3.175
 30
0.0
 11
32.385
 21
0.0
 31
0.0
  0
LINE
  5
1FE
330
1B
100
AcDbEntity
 67
     1
  8
0
  6
Continuous
 62
     7
370
    25
100
AcDbLine
 10
32.385
 20
-3.175
 30
0.0
 11
24.765
 21
-3.175
 31
0.0
  0
LINE
  5
1FF
330
1B
100
AcDbEntity
 67
     1
  8
0
  6
Continuous
 62
     7
370
    25
100
AcDbLine
 10
24.765
 20
-3.175
 30
0.0
 11
24.765
 21
0.0
 31
0.0
  0
LINE
  5
200
330
1B
100
AcDbEntity
 67
     1
  8
0
  6
Continuous
 62
     7
370
    25
100
AcDbLine
 10
13.335
 20
-3.175
 30
0.0
 11
13.335
 21
0.0
 31
0.0
  0
LINE
  5
201
330
1B
100
AcDbEntity
 67
     1
  8
0
  6
Continuous
 62
     7
370
    25
100
AcDbLine
 10
13.335
 20
-3.175
 30
0.0
 11
5.715
 21
-3.175
 31
0.0
  0
LINE
  5
202
330
1B
100
AcDbEntity
 67
     1
  8
0
  6
Continuous
 62
     7
370
    25
100
AcDbLine
 10
5.715
 20
-3.175
 30
0.0
 11
5.715
 21
0.0
 31
0.0
  0
LINE
  5
203
330
1B
100
AcDbEntity
 67
     1
  8
0
  6
Continuous
 62
     7
370
    25
100
AcDbLine
 10
6.45
 20
3.54
 30
0.0
 11
3.175
 21
3.54
 31
0.0
  0
LINE
  5
204
330
1B
100
AcDbEntity
 67
     1
  8
0
  6
Continuous
 62
     7
370
    25
100
AcDbLine
 10
339.9
 20
11.36
 30
0.0
 11
343.175
 21
11.36
 31
0.0
  0
LINE
  5
205
330
1B
100
AcDbEntity
 67
     1
  8
0
  6
Continuous
 62
     7
370
    25
100
AcDbLine
 10
339.9
 20
11.36
 30
0.0
 11
339.9
 21
3.54
 31
0.0
  0
LINE
  5
206
330
1B
100
AcDbEntity
 67
     1
  8
0
  6
Continuous
 62
     7
370
    25
100
AcDbLine
 10
339.9
 20
3.54
 30
0.0
 11
343.175
 21
3.54
 31
0.0
  0
LINE
  5
207
330
1B
100
AcDbEntity
 67
     1
  8
0
  6
Continuous
 62
     7
370
    25
100
AcDbLine
 10
343.175
 20
0.0
 30
0.0
 11
343.175
 21
3.54
 31
0.0
  0
LINE
  5
208
330
1B
100
AcDbEntity
 67
     1
  8
0
  6
Continuous
 62
     7
370
    25
100
AcDbLine
 10
337.185
 20
0.0
 30
0.0
 11
343.175
 21
0.0
 31
0.0
  0
LINE
  5
209
330
1B
100
AcDbEntity
 67
     1
  8
0
  6
Continuous
 62
     7
370
    25
100
AcDbLine
 10
3.175
 20
90.0
 30
0.0
 11
3.175
 21
87.56
 31
0.0
  0
LINE
  5
20A
330
1B
100
AcDbEntity
 67
     1
  8
0
  6
Continuous
 62
     7
370
    25
100
AcDbLine
 10
343.175
 20
90.0
 30
0.0
 11
3.175
 21
90.0
 31
0.0
  0
LINE
  5
20B
330
1B
100
AcDbEntity
 67
     1
  8
0
  6
Continuous
 62
     7
370
    25
100
AcDbLine
 10
343.175
 20
87.56
 30
0.0
 11
343.175
 21
90.0
 31
0.0
  0
LINE
  5
20C
330
1B
100
AcDbEntity
 67
     1
  8
0
  6
Continuous
 62
     7
370
    25
100
AcDbLine
 10
339.9
 20
87.56
 30
0.0
 11
343.175
 21
87.56
 31
0.0
  0
LINE
  5
20D
330
1B
100
AcDbEntity
 67
     1
  8
0
  6
Continuous
 62
     7
370
    25
100
AcDbLine
 10
339.9
 20
87.56
 30
0.0
 11
339.9
 21
79.74
 31
0.0
  0
LINE
  5
20E
330
1B
100
AcDbEntity
 67
     1
  8
0
  6
Continuous
 62
     7
370
    25
100
AcDbLine
 10
339.9
 20
79.74
 30
0.0
 11
343.175
 21
79.74
 31
0.0
  0
LINE
  5
20F
330
1B
100
AcDbEntity
 67
     1
  8
0
  6
Continuous
 62
     7
370
    25
100
AcDbLine
 10
343.175
 20
68.51
 30
0.0
 11
343.175
 21
79.74
 31
0.0
  0
LINE
  5
210
330
1B
100
AcDbEntity
 67
     1
  8
0
  6
Continuous
 62
     7
370
    25
100
AcDbLine
 10
339.9
 20
68.51
 30
0.0
 11
343.175
 21
68.51
 31
0.0
  0
LINE
  5
211
330
1B
100
AcDbEntity
 67
     1
  8
0
  6
Continuous
 62
     7
370
    25
100
AcDbLine
 10
339.9
 20
68.51
 30
0.0
 11
339.9
 21
60.69
 31
0.0
  0
LINE
  5
212
330
1B
100
AcDbEntity
 67
     1
  8
0
  6
Continuous
 62
     7
370
    25
100
AcDbLine
 10
339.9
 20
60.69
 30
0.0
 11
343.175
 21
60.69
 31
0.0
  0
LINE
  5
213
330
1B
100
AcDbEntity
 67
     1
  8
0
  6
Continuous
 62
     7
370
    25
100
AcDbLine
 10
343.175
 20
49.46
 30
0.0
 11
343.175
 21
60.69
 31
0.0
  0
LINE
  5
214
330
1B
100
AcDbEntity
 67
     1
  8
0
  6
Continuous
 62
     7
370
    25
100
AcDbLine
 10
339.9
 20
49.46
 30
0.0
 11
343.175
 21
49.46
 31
0.0
  0
LINE
  5
215
330
1B
100
AcDbEntity
 67
     1
  8
0
  6
Continuous
 62
     7
370
    25
100
AcDbLine
 10
339.9
 20
49.46
 30
0.0
 11
339.9
 21
41.64
 31
0.0
  0
LINE
  5
216
330
1B
100
AcDbEntity
 67
     1
  8
0
  6
Continuous
 62
     7
370
    25
100
AcDbLine
 10
339.9
 20
41.64
 30
0.0
 11
343.175
 21
41.64
 31
0.0
  0
LINE
  5
217
330
1B
100
AcDbEntity
 67
     1
  8
0
  6
Continuous
 62
     7
370
    25
100
AcDbLine
 10
343.175
 20
30.41
 30
0.0
 11
343.175
 21
41.64
 31
0.0
  0
LINE
  5
218
330
1B
100
AcDbEntity
 67
     1
  8
0
  6
Continuous
 62
     7
370
    25
100
AcDbLine
 10
339.9
 20
30.41
 30
0.0
 11
343.175
 21
30.41
 31
0.0
  0
LINE
  5
219
330
1B
100
AcDbEntity
 67
     1
  8
0
  6
Continuous
 62
     7
370
    25
100
AcDbLine
 10
339.9
 20
30.41
 30
0.0
 11
339.9
 21
22.59
 31
0.0
  0
LINE
  5
21A
330
1B
100
AcDbEntity
 67
     1
  8
0
  6
Continuous
 62
     7
370
    25
100
AcDbLine
 10
339.9
 20
22.59
 30
0.0
 11
343.175
 21
22.59
 31
0.0
  0
LINE
  5
21B
330
1B
100
AcDbEntity
 67
     1
  8
0
  6
Continuous
 62
     7
370
    25
100
AcDbLine
 10
343.175
 20
11.36
 30
0.0
 11
343.175
 21
22.59
 31
0.0
  0
LINE
  5
21C
330
1B
100
AcDbEntity
 67
     1
  8
0
  6
Continuous
 62
     7
370
    25
100
AcDbLine
 10
3.175
 20
79.74
 30
0.0
 11
3.175
 21
68.51
 31
0.0
  0
LINE
  5
21D
330
1B
100
AcDbEntity
 67
     1
  8
0
  6
Continuous
 62
     7
370
    25
100
AcDbLine
 10
3.175
 20
60.69
 30
0.0
 11
3.175
 21
49.46
 31
0.0
  0
LINE
  5
21E
330
1B
100
AcDbEntity
 67
     1
  8
0
  6
Continuous
 62
     7
370
    25
100
AcDbLine
 10
3.175
 20
41.64
 30
0.0
 11
3.175
 21
30.41
 31
0.0
  0
LINE
  5
21F
330
1B
100
AcDbEntity
 67
     1
  8
0
  6
Continuous
 62
     7
370
    25
100
AcDbLine
 10
3.175
 20
22.59
 30
0.0
 11
3.175
 21
11.36
 31
0.0
  0
LINE
  5
220
330
1B
100
AcDbEntity
 67
     1
  8
0
  6
Continuous
 62
     7
370
    25
100
AcDbLine
 10
3.175
 20
3.54
 30
0.0
 11
3.175
 21
0.0
 31
0.0
  0
LINE
  5
221
330
1B
100
AcDbEntity
 67
     1
  8
0
  6
Continuous
 62
     7
370
    25
100
AcDbLine
 10
3.175
 20
0.0
 30
0.0
 11
5.715
 21
0.0
 31
0.0
  0
LINE
  5
222
330
1B
100
AcDbEntity
 67
     1
  8
0
  6
Continuous
 62
     7
370
    25
100
AcDbLine
 10
13.335
 20
0.0
 30
0.0
 11
24.765
 21
0.0
 31
0.0
  0
LINE
  5
223
330
1B
100
AcDbEntity
 67
     1
  8
0
  6
Continuous
 62
     7
370
    25
100
AcDbLine
 10
32.385
 20
0.0
 30
0.0
 11
43.815
 21
0.0
 31
0.0
  0
LINE
  5
224
330
1B
100
AcDbEntity
 67
     1
  8
0
  6
Continuous
 62
     7
370
    25
100
AcDbLine
 10
51.435
 20
0.0
 30
0.0
 11
62.865
 21
0.0
 31
0.0
  0
LINE
  5
225
330
1B
100
AcDbEntity
 67
     1
  8
0
  6
Continuous
 62
     7
370
    25
100
AcDbLine
 10
70.485
 20
0.0
 30
0.0
 11
81.915
 21
0.0
 31
0.0
  0
LINE
  5
226
330
1B
100
AcDbEntity
 67
     1
  8
0
  6
Continuous
 62
     7
370
    25
100
AcDbLine
 10
89.535
 20
0.0
 30
0.0
 11
100.965
 21
0.0
 31
0.0
  0
LINE
  5
227
330
1B
100
AcDbEntity
 67
     1
  8
0
  6
Continuous
 62
     7
370
    25
100
AcDbLine
 10
108.585
 20
0.0
 30
0.0
 11
120.015
 21
0.0
 31
0.0
  0
LINE
  5
228
330
1B
100
AcDbEntity
 67
     1
  8
0
  6
Continuous
 62
     7
370
    25
100
AcDbLine
 10
127.635
 20
0.0
 30
0.0
 11
139.065
 21
0.0
 31
0.0
  0
LINE
  5
229
330
1B
100
AcDbEntity
 67
     1
  8
0
  6
Continuous
 62
     7
370
    25
100
AcDbLine
 10
146.685
 20
0.0
 30
0.0
 11
158.115
 21
0.0
 31
0.0
  0
LINE
  5
22A
330
1B
100
AcDbEntity
 67
     1
  8
0
  6
Continuous
 62
     7
370
    25
100
AcDbLine
 10
165.735
 20
0.0
 30
0.0
 11
177.165
 21
0.0
 31
0.0
  0
LINE
  5
22B
330
1B
100
AcDbEntity
 67
     1
  8
0
  6
Continuous
 62
     7
370
    25
100
AcDbLine
 10
184.785
 20
0.0
 30
0.0
 11
196.215
 21
0.0
 31
0.0
  0
LINE
  5
22C
330
1B
100
AcDbEntity
 67
     1
  8
0
  6
Continuous
 62
     7
370
    25
100
AcDbLine
 10
203.835
 20
0.0
 30
0.0
 11
215.265
 21
0.0
 31
0.0
  0
LINE
  5
22D
330
1B
100
AcDbEntity
 67
     1
  8
0
  6
Continuous
 62
     7
370
    25
100
AcDbLine
 10
222.885
 20
0.0
 30
0.0
 11
234.315
 21
0.0
 31
0.0
  0
LINE
  5
22E
330
1B
100
AcDbEntity
 67
     1
  8
0
  6
Continuous
 62
     7
370
    25
100
AcDbLine
 10
241.935
 20
0.0
 30
0.0
 11
253.365
 21
0.0
 31
0.0
  0
LINE
  5
22F
330
1B
100
AcDbEntity
 67
     1
  8
0
  6
Continuous
 62
     7
370
    25
100
AcDbLine
 10
260.985
 20
0.0
 30
0.0
 11
272.415
 21
0.0
 31
0.0
  0
LINE
  5
230
330
1B
100
AcDbEntity
 67
     1
  8
0
  6
Continuous
 62
     7
370
    25
100
AcDbLine
 10
280.035
 20
0.0
 30
0.0
 11
291.465
 21
0.0
 31
0.0
  0
LINE
  5
231
330
1B
100
AcDbEntity
 67
     1
  8
0
  6
Continuous
 62
     7
370
    25
100
AcDbLine
 10
299.085
 20
0.0
 30
0.0
 11
310.515
 21
0.0
 31
0.0
  0
LINE
  5
232
330
1B
100
AcDbEntity
 67
     1
  8
0
  6
Continuous
 62
     7
370
    25
100
AcDbLine
 10
318.135
 20
0.0
 30
0.0
 11
329.565
 21
0.0
 31
0.0
  0
VIEWPORT
  5
66B
330
1B
100
AcDbEntity
 67
     1
  8
0
100
AcDbViewport
 10
0.0
 20
0.0
 30
0.0
 40
205.6
 41
156.0
 68
     1
 69
     1
 12
163.65
 22
43.4125
 13
0.0
 23
0.0
 14
10.0
 24
10.0
 15
10.0
 25
10.0
 16
0.0
 26
0.0
 36
1.0
 17
0.0
 27
0.0
 37
0.0
 42
50.0
 43
0.0
 44
0.0
 45
268.0506420233
 50
0.0
 51
0.0
 72
   100
 90
   557152
  1

281
     0
 71
     1
 74
     0
110
0.0
120
0.0
130
0.0
111
1.0
121
0.0
131
0.0
112
0.0
122
1.0
132
0.0
 79
     0
146
0.0
  0
MTEXT
  5
674
330
1B
100
AcDbEntity
 67
     1
  8
0
  6
Continuous
 62
     7
100
AcDbMText
 10
3.175
 20
-4.1945663917
 30
0.0
 40
4.83362
 41
0.0
 71
     1
 72
     1
  1
SOLIDWORKS Educational Product.
  7
SLDTEXTSTYLE0
 73
     1
 44
1.0
  0
MTEXT
  5
675
330
1B
100
AcDbEntity
 67
     1
  8
0
  6
Continuous
 62
     7
100
AcDbMText
 10
3.175
 20
-11.4449963917
 30
0.0
 40
4.83362
 41
0.0
 71
     1
 72
     1
  1
For Instructional Use Only.
  7
SLDTEXTSTYLE0
 73
     1
 44
1.0
  0
ENDSEC
  0
SECTION
  2
OBJECTS
  0
DICTIONARY
  5
C
330
0
100
AcDbDictionary
281
     1
  3
ACAD_GROUP
350
D
  3
ACAD_LAYOUT
350
1A
  3
ACAD_MLINESTYLE
350
17
  3
ACAD_PLOTSETTINGS
350
19
  3
ACAD_PLOTSTYLENAME
350
E
  3
ACAD_SCALELIST
350
47
  3
DWGPROPS
350
67E
  0
DICTIONARY
  5
D
102
{ACAD_REACTORS
330
C
102
}
330
C
100
AcDbDictionary
281
     1
  0
DICTIONARY
  5
1A
102
{ACAD_REACTORS
330
C
102
}
330
C
100
AcDbDictionary
281
     1
  3
Flat-Pattern15
350
26
  3
Flat-Pattern16
350
578
  3
Flat-Pattern17
350
1E
  3
Flat-Pattern19
350
47C
  3
Model
350
22
  0
DICTIONARY
  5
17
102
{ACAD_REACTORS
330
C
102
}
330
C
100
AcDbDictionary
281
     1
  3
Standard
350
18
  0
DICTIONARY
  5
19
102
{ACAD_REACTORS
330
C
102
}
330
C
100
AcDbDictionary
281
     1
  0
ACDBDICTIONARYWDFLT
  5
E
102
{ACAD_REACTORS
330
C
102
}
330
C
100
AcDbDictionary
281
     1
  3
Normal
350
F
100
AcDbDictionaryWithDefault
340
F
  0
DICTIONARY
  5
47
102
{ACAD_REACTORS
330
C
102
}
330
C
100
AcDbDictionary
281
     1
  3
A0
350
48
  3
A1
350
49
  3
A2
350
4A
  3
A3
350
4B
  3
A4
350
4C
  3
A5
350
4D
  3
A6
350
4E
  3
A7
350
4F
  3
A8
350
50
  3
A9
350
51
  3
B0
350
52
  3
B1
350
53
  3
B2
350
54
  3
B3
350
55
  3
B4
350
56
  3
B5
350
57
  3
B6
350
58
  0
XRECORD
  5
67E
102
{ACAD_REACTORS
330
C
102
}
330
C
100
AcDbXrecord
280
     1
  1
DWGPROPS COOKIE
  2

  3

  4

  6

  7

  8
adit
  9

300
=
301
=
302
=
303
=
304
=
305
=
306
=
307
=
308
=
309
=
 40
0.0
 41
2460020.749749977
 42
2460020.749901065
  1

 90
        0
  0
LAYOUT
  5
26
102
{ACAD_REACTORS
330
1A
102
}
330
1A
100
AcDbPlotSettings
  1

  2
none_device
  4
ISO_A4_(210.00_x_297.00_MM)
  6

 40
7.5
 41
20.0
 42
7.5
 43
20.0
 44
210.0
 45
297.0
 46
0.0
 47
0.0
 48
0.0
 49
0.0
140
0.0
141
0.0
142
1.0
143
1.3229571984
 70
   688
 72
     1
 73
     1
 74
     1
  7

 75
     0
147
0.7558823529
148
-3.175
149
3.175
100
AcDbLayout
  1
Flat-Pattern15
 70
     1
 71
     2
 10
0.0
 20
0.0
 11
0.0
 21
0.0
 12
0.0
 22
0.0
 32
0.0
 14
0.0
 24
0.0
 34
0.0
 15
0.0
 25
0.0
 35
0.0
146
0.0
 13
0.0
 23
0.0
 33
0.0
 16
1.0
 26
0.0
 36
0.0
 17
0.0
 27
1.0
 37
0.0
 76
     0
330
23
331
66D
  0
LAYOUT
  5
578
102
{ACAD_REACTORS
330
1A
102
}
330
1A
100
AcDbPlotSettings
  1

  2
none_device
  4
ISO_A4_(210.00_x_297.00_MM)
  6

 40
7.5
 41
20.0
 42
7.5
 43
20.0
 44
210.0
 45
297.0
 46
0.0
 47
0.0
 48
0.0
 49
0.0
140
0.0
141
0.0
142
1.0
143
1.3229571984
 70
   688
 72
     1
 73
     1
 74
     1
  7

 75
     0
147
0.7558823529
148
-3.175
149
3.175
100
AcDbLayout
  1
Flat-Pattern16
 70
     1
 71
     4
 10
0.0
 20
0.0
 11
0.0
 21
0.0
 12
0.0
 22
0.0
 32
0.0
 14
0.0
 24
0.0
 34
0.0
 15
0.0
 25
0.0
 35
0.0
146
0.0
 13
0.0
 23
0.0
 33
0.0
 16
1.0
 26
0.0
 36
0.0
 17
0.0
 27
1.0
 37
0.0
 76
     0
330
577
331
671
  0
LAYOUT
  5
1E
102
{ACAD_REACTORS
330
1A
102
}
330
1A
100
AcDbPlotSettings
  1

  2
none_device
  4
ISO_A4_(210.00_x_297.00_MM)
  6

 40
7.5
 41
20.0
 42
7.5
 43
20.0
 44
210.0
 45
297.0
 46
0.0
 47
0.0
 48
0.0
 49
0.0
140
0.0
141
0.0
142
1.0
143
1.3229571984
 70
   688
 72
     1
 73
     1
 74
     1
  7

 75
     0
147
0.7558823529
148
-3.175
149
3.175
100
AcDbLayout
  1
Flat-Pattern17
 70
     1
 71
     1
 10
-23.2841439689
 20
-13.0971789883
 11
369.6341439689
 21
264.7238326848
 12
0.0
 22
0.0
 32
0.0
 14
3.175
 24
-3.175
 34
0.0
 15
343.175
 25
90.0
 35
0.0
146
0.0
 13
0.0
 23
0.0
 33
0.0
 16
1.0
 26
0.0
 36
0.0
 17
0.0
 27
1.0
 37
0.0
 76
     0
330
1B
331
66B
  0
LAYOUT
  5
47C
102
{ACAD_REACTORS
330
1A
102
}
330
1A
100
AcDbPlotSettings
  1

  2
none_device
  4
ISO_A4_(210.00_x_297.00_MM)
  6

 40
7.5
 41
20.0
 42
7.5
 43
20.0
 44
210.0
 45
297.0
 46
0.0
 47
0.0
 48
0.0
 49
0.0
140
0.0
141
0.0
142
1.0
143
1.3229571984
 70
   688
 72
     1
 73
     1
 74
     1
  7

 75
     0
147
0.7558823529
148
-3.175
149
3.175
100
AcDbLayout
  1
Flat-Pattern19
 70
     1
 71
     3
 10
0.0
 20
0.0
 11
0.0
 21
0.0
 12
0.0
 22
0.0
 32
0.0
 14
0.0
 24
0.0
 34
0.0
 15
0.0
 25
0.0
 35
0.0
146
0.0
 13
0.0
 23
0.0
 33
0.0
 16
1.0
 26
0.0
 36
0.0
 17
0.0
 27
1.0
 37
0.0
 76
     0
330
47B
331
66F
  0
LAYOUT
  5
22
102
{ACAD_REACTORS
330
1A
102
}
330
1A
100
AcDbPlotSettings
  1

  2
none_device
  4
ANSI_A_(11.00_x_8.50_Inches)
  6

 40
6.35
 41
19.05
 42
6.35000508
 43
19.05000254
 44
279.4
 45
215.9
 46
2.6539619468
 47
54.2294112462
 48
0.0
 49
0.0
140
0.0
141
0.0
142
0.0314421828
143
1.0
 70
  1696
 72
     0
 73
     0
 74
     0
  7

 75
     0
147
0.0179189148
148
-1300.4909072572
149
0.0
100
AcDbLayout
  1
Model
 70
     1
 71
     0
 10
0.0
 20
0.0
 11
420.0
 21
297.0
 12
0.0
 22
0.0
 32
0.0
 14
-9.525
 24
-3.175
 34
0.0
 15
336.825
 25
90.0
 35
0.0
146
0.0
 13
0.0
 23
0.0
 33
0.0
 16
1.0
 26
0.0
 36
0.0
 17
0.0
 27
1.0
 37
0.0
 76
     0
330
1F
331
29
  0
MLINESTYLE
  5
18
102
{ACAD_REACTORS
330
17
102
}
330
17
100
AcDbMlineStyle
  2
Standard
 70
     0
  3

 62
   256
 51
90.0
 52
90.0
 71
     2
 49
0.5
 62
   256
  6
BYLAYER
 49
-0.5
 62
   256
  6
BYLAYER
  0
ACDBPLACEHOLDER
  5
F
102
{ACAD_REACTORS
330
E
102
}
330
E
  0
SCALE
  5
48
102
{ACAD_REACTORS
330
47
102
}
330
47
100
AcDbScale
 70
     0
300
1:1
140
1.0
141
1.0
290
     1
  0
SCALE
  5
49
102
{ACAD_REACTORS
330
47
102
}
330
47
100
AcDbScale
 70
     0
300
1:2
140
1.0
141
2.0
290
     0
  0
SCALE
  5
4A
102
{ACAD_REACTORS
330
47
102
}
330
47
100
AcDbScale
 70
     0
300
1:4
140
1.0
141
4.0
290
     0
  0
SCALE
  5
4B
102
{ACAD_REACTORS
330
47
102
}
330
47
100
AcDbScale
 70
     0
300
1:5
140
1.0
141
5.0
290
     0
  0
SCALE
  5
4C
102
{ACAD_REACTORS
330
47
102
}
330
47
100
AcDbScale
 70
     0
300
1:8
140
1.0
141
8.0
290
     0
  0
SCALE
  5
4D
102
{ACAD_REACTORS
330
47
102
}
330
47
100
AcDbScale
 70
     0
300
1:10
140
1.0
141
10.0
290
     0
  0
SCALE
  5
4E
102
{ACAD_REACTORS
330
47
102
}
330
47
100
AcDbScale
 70
     0
300
1:16
140
1.0
141
16.0
290
     0
  0
SCALE
  5
4F
102
{ACAD_REACTORS
330
47
102
}
330
47
100
AcDbScale
 70
     0
300
1:20
140
1.0
141
20.0
290
     0
  0
SCALE
  5
50
102
{ACAD_REACTORS
330
47
102
}
330
47
100
AcDbScale
 70
     0
300
1:30
140
1.0
141
30.0
290
     0
  0
SCALE
  5
51
102
{ACAD_REACTORS
330
47
102
}
330
47
100
AcDbScale
 70
     0
300
1:40
140
1.0
141
40.0
290
     0
  0
SCALE
  5
52
102
{ACAD_REACTORS
330
47
102
}
330
47
100
AcDbScale
 70
     0
300
1:50
140
1.0
141
50.0
290
     0
  0
SCALE
  5
53
102
{ACAD_REACTORS
330
47
102
}
330
47
100
AcDbScale
 70
     0
300
1:100
140
1.0
141
100.0
290
     0
  0
SCALE
  5
54
102
{ACAD_REACTORS
330
47
102
}
330
47
100
AcDbScale
 70
     0
300
2:1
140
2.0
141
1.0
290
     0
  0
SCALE
  5
55
102
{ACAD_REACTORS
330
47
102
}
330
47
100
AcDbScale
 70
     0
300
4:1
140
4.0
141
1.0
290
     0
  0
SCALE
  5
56
102
{ACAD_REACTORS
330
47
102
}
330
47
100
AcDbScale
 70
     0
300
8:1
140
8.0
141
1.0
290
     0
  0
SCALE
  5
57
102
{ACAD_REACTORS
330
47
102
}
330
47
100
AcDbScale
 70
     0
300
10:1
140
10.0
141
1.0
290
     0
  0
SCALE
  5
58
102
{ACAD_REACTORS
330
47
102
}
330
47
100
AcDbScale
 70
     0
300
100:1
140
100.0
141
1.0
290
     0
  0
ENDSEC
  0
EOF
